<svg xmlns="http://www.w3.org/2000/svg" viewBox="0 0 42 42">
  <g clip-path="url(#aa)"><path fill="currentColor" d="M-.031 4.904v32.668h42V4.904Zm24.705 6.225c5.99 0 8.986 3.08 8.986 9.24 0 5.067-1.885 8.06-5.656 8.975l2.95 3.431-2.66 2.022-4.13-5.238c-5.474 0-8.346-3.063-8.617-9.19 0-6.16 3.043-9.24 9.127-9.24zm-15.686.127h3.37v18.176h-3.37Zm15.686 2.797c-3.754 0-5.631 2.08-5.631 6.24 0 4.228 1.877 6.344 5.63 6.344 3.662 0 5.491-2.116 5.491-6.344 0-4.16-1.83-6.24-5.49-6.24z"/></g><defs><clipPath id="aa"><path d="M0 14.238a9.333 9.333 0 0 1 9.333-9.334h23.334A9.333 9.333 0 0 1 42 14.238v14a9.333 9.333 0 0 1-9.333 9.333H9.333A9.333 9.333 0 0 1 0 28.238Z" fill="currentColor"/></clipPath></defs>
</svg>
