<?xml version="1.0" encoding="UTF-8"?>
<svg xmlns="http://www.w3.org/2000/svg" width="178" height="30" viewBox="0 0 178 30" fill="none">
  <g clip-path="url(#clip0_7043_5709)">
    <path d="M38.1885 24.623V7.20886H41.6955L47.8862 20.4211L53.9504 7.20886H57.3311V24.623H54.2031V12.4954L49.2498 24.623H46.3657L41.3121 12.4954V24.623H38.1885ZM63.583 18.1808C63.583 20.8533 64.6678 22.1871 66.837 22.1871C69.0063 22.1871 70.0914 20.8533 70.0914 18.1808C70.0914 15.5751 69.0067 14.2742 66.837 14.2742C64.6674 14.2742 63.583 15.5751 63.583 18.1808ZM60.2022 18.2309C60.2022 13.9458 62.4152 11.8014 66.837 11.8014C71.2635 11.8014 73.4764 13.9458 73.4764 18.2309C73.4764 22.5074 71.2635 24.6476 66.837 24.6476C62.4284 24.6476 60.2195 22.5074 60.2022 18.2309ZM76.0251 24.623V11.8387H78.6433L79.0397 13.6882C80.2377 12.4538 81.6798 11.8387 83.3659 11.8387C85.052 11.8387 86.2018 12.4207 86.8249 13.5926C88.1929 12.4207 89.6263 11.8387 91.1248 11.8387C94.2049 11.8387 95.7472 13.4555 95.7472 16.6972V24.623H92.362V16.5725C92.362 15.1553 91.6912 14.4446 90.3451 14.4446C89.3431 14.4446 88.3759 14.8728 87.4479 15.7328V24.623H84.0672V16.6098C84.0672 15.1676 83.4443 14.4446 82.2028 14.4446C81.2181 14.4446 80.2857 14.8728 79.4103 15.7328V24.623H76.0251ZM104.591 11.8387C108.66 11.8387 110.695 13.8169 110.695 17.7778C110.695 18.3056 110.655 18.8334 110.577 19.3614H101.681C101.681 21.1651 103.066 22.0668 105.841 22.0668C107.196 22.0668 108.546 21.9422 109.901 21.7012V24.2572C108.716 24.5025 107.279 24.623 105.589 24.623C100.727 24.623 98.3002 22.4451 98.3002 18.0852C98.3002 13.9207 100.396 11.8387 104.591 11.8387ZM101.681 17.1213H107.401V17.0256C107.401 15.2551 106.464 14.3699 104.591 14.3699C102.805 14.3699 101.833 15.2882 101.681 17.1213ZM113.23 24.623V11.8387H115.848L116.271 13.7131C117.552 12.4623 119.015 11.8387 120.658 11.8387C123.834 11.8387 125.419 13.4139 125.419 16.5602V24.623H122.039V16.5602C122.039 15.1512 121.303 14.4446 119.83 14.4446C118.732 14.4446 117.66 14.86 116.615 15.6999V24.623H113.23ZM128.416 9.76894H130.922L131.431 11.8387H134.799V14.3948H131.802V20.2757C131.802 21.4684 132.342 22.0668 133.422 22.0668H134.799V24.623H131.788C129.541 24.623 128.416 23.4758 128.416 21.1775V9.76894ZM140.48 7.20886V9.76894H137.095V7.20886H140.48ZM140.48 11.8387V24.623H137.095V11.8387H140.48ZM142.074 11.8387H145.647L148.901 20.7744L152.286 11.8387H155.858L150.408 24.623H147.193L142.074 11.8387ZM163.108 11.8387C167.176 11.8387 169.211 13.8169 169.211 17.7778C169.211 18.3056 169.172 18.8334 169.094 19.3614H160.198C160.198 21.1651 161.583 22.0668 164.358 22.0668C165.713 22.0668 167.063 21.9422 168.418 21.7012V24.2572C167.233 24.5025 165.795 24.623 164.105 24.623C159.243 24.623 156.817 22.4451 156.817 18.0852C156.817 13.9207 158.912 11.8387 163.108 11.8387ZM160.198 17.1213H165.917V17.0256C165.917 15.2551 164.981 14.3699 163.108 14.3699C161.322 14.3699 160.35 15.2882 160.198 17.1213Z" fill="white"></path>
    <path fill-rule="evenodd" clip-rule="evenodd" d="M5.13938 2.53313C10.4929 3.62864 15.4383 8.38729 16.8276 13.688C12.4481 18.5255 6.09496 22.4955 -0.439941 24.4964C6.42497 18.237 8.90857 9.5171 5.13938 2.53313Z" fill="#72C2EB"></path>
    <path d="M22.7255 1.66333C32.5101 8.30688 31.1996 22.473 19.5344 30C21.1943 25.2196 21.3707 21.2693 19.336 19.5771C18.1115 18.5592 15.6615 19.631 13.0206 19.5441C19.0294 15.0254 22.3207 9.5213 22.7255 1.66333Z" fill="#72C2EB"></path>
  </g>
  <defs>
    <clipPath id="clip0_7043_5709">
      <rect width="178" height="30" fill="white"></rect>
    </clipPath>
  </defs>
</svg>
