<?xml version="1.0" encoding="UTF-8"?>
<svg xmlns="http://www.w3.org/2000/svg" width="180" height="32" viewBox="0 0 180 32" fill="none">
  <g clip-path="url(#clip0_9302_1411)">
    <path d="M40.9263 26.2644V7.68927H44.6477L51.2166 21.7824L57.6515 7.68927H61.2389V26.2644H57.9197V13.3282L52.6636 26.2644H49.6033L44.2408 13.3282V26.2644H40.9263ZM67.8728 19.3927C67.8728 22.2433 69.0239 23.6661 71.3258 23.6661C73.6276 23.6661 74.779 22.2433 74.779 19.3927C74.779 16.6133 73.628 15.2256 71.3258 15.2256C69.0235 15.2256 67.8728 16.6133 67.8728 19.3927ZM64.2854 19.4461C64.2854 14.8754 66.6337 12.588 71.3258 12.588C76.0227 12.588 78.3709 14.8754 78.3709 19.4461C78.3709 24.0078 76.0227 26.2906 71.3258 26.2906C66.6477 26.2906 64.3038 24.0078 64.2854 19.4461ZM81.0754 26.2644V12.6277H83.8536L84.2742 14.6006C85.5454 13.2838 87.0757 12.6277 88.8648 12.6277C90.6539 12.6277 91.8741 13.2485 92.5352 14.4986C93.9868 13.2485 95.5078 12.6277 97.0979 12.6277C100.366 12.6277 102.003 14.3524 102.003 17.8102V26.2644H98.4107V17.6772C98.4107 16.1655 97.6989 15.4074 96.2706 15.4074C95.2073 15.4074 94.181 15.8641 93.1963 16.7815V26.2644H89.609V17.7169C89.609 16.1786 88.948 15.4074 87.6306 15.4074C86.5857 15.4074 85.5964 15.8641 84.6675 16.7815V26.2644H81.0754ZM111.387 12.6277C115.705 12.6277 117.864 14.7378 117.864 18.9628C117.864 19.5258 117.822 20.0887 117.739 20.652H108.299C108.299 22.576 109.769 23.5378 112.714 23.5378C114.152 23.5378 115.584 23.4048 117.022 23.1478V25.8741C115.765 26.1358 114.239 26.2644 112.446 26.2644C107.287 26.2644 104.712 23.9412 104.712 19.2907C104.712 14.8486 106.935 12.6277 111.387 12.6277ZM108.299 18.2625H114.368V18.1605C114.368 16.272 113.375 15.3277 111.387 15.3277C109.492 15.3277 108.461 16.3072 108.299 18.2625ZM120.554 26.2644V12.6277H123.332L123.781 14.6272C125.14 13.293 126.693 12.6277 128.436 12.6277C131.806 12.6277 133.488 14.308 133.488 17.664V26.2644H129.901V17.664C129.901 16.1611 129.12 15.4074 127.557 15.4074C126.393 15.4074 125.255 15.8505 124.146 16.7464V26.2644H120.554ZM136.669 10.42H139.327L139.868 12.6277H143.441V15.3543H140.261V21.6272C140.261 22.8994 140.834 23.5378 141.981 23.5378H143.441V26.2644H140.247C137.862 26.2644 136.669 25.0406 136.669 22.5891V10.42ZM149.469 7.68927V10.42H145.878V7.68927H149.469ZM149.469 12.6277V26.2644H145.878V12.6277H149.469ZM151.162 12.6277H154.952L158.405 22.1592L161.997 12.6277H165.788L160.005 26.2644H156.593L151.162 12.6277ZM173.48 12.6277C177.798 12.6277 179.957 14.7378 179.957 18.9628C179.957 19.5258 179.915 20.0887 179.832 20.652H170.392C170.392 22.576 171.862 23.5378 174.807 23.5378C176.245 23.5378 177.678 23.4048 179.115 23.1478V25.8741C177.858 26.1358 176.332 26.2644 174.539 26.2644C169.38 26.2644 166.805 23.9412 166.805 19.2907C166.805 14.8486 169.028 12.6277 173.48 12.6277ZM170.392 18.2625H176.462V18.1605C176.462 16.272 175.468 15.3277 173.48 15.3277C171.585 15.3277 170.554 16.3072 170.392 18.2625Z" fill="#172A43"></path>
    <path fill-rule="evenodd" clip-rule="evenodd" d="M6.2609 2.70202C11.9417 3.87056 17.1893 8.94646 18.6635 14.6005C14.0163 19.7605 7.27487 23.9952 0.340576 26.1295C7.62506 19.4528 10.2605 10.1516 6.2609 2.70202Z" fill="#72C2EB"></path>
    <path d="M24.9219 1.77423C35.3044 8.86069 33.9139 23.9712 21.5357 32.0001C23.2971 26.9009 23.4842 22.6872 21.3251 20.8823C20.0258 19.7965 17.4261 20.9397 14.6238 20.847C20.9999 16.0271 24.4923 10.1561 24.9219 1.77423Z" fill="#72C2EB"></path>
  </g>
  <defs>
    <clipPath id="clip0_9302_1411">
      <rect width="180" height="32" fill="white"></rect>
    </clipPath>
  </defs>
</svg>
