<svg xmlns="http://www.w3.org/2000/svg" width="1920" height="1294" viewBox="0 0 1920 1294" fill="none"><g clip-path="url(#clip0_24598_6488)"><g opacity="0.3"><path d="M960.001 812.462C1119.32 812.462 1248.46 683.313 1248.46 523.999C1248.46 364.685 1119.32 235.535 960.001 235.535C800.687 235.535 671.538 364.685 671.538 523.999C671.538 683.313 800.687 812.462 960.001 812.462Z" stroke="url(#paint0_linear_24598_6488)" stroke-opacity="0.2" stroke-width="1.88221" stroke-miterlimit="10"></path><path d="M960 885C1159.37 885 1321 723.599 1321 524.5C1321 325.401 1159.37 164 960 164C760.625 164 599 325.401 599 524.5C599 723.599 760.625 885 960 885Z" stroke="url(#paint1_linear_24598_6488)" stroke-opacity="0.1" stroke-width="1.88221" stroke-miterlimit="10"></path><path d="M959.999 951.718C1196.22 951.718 1387.72 760.223 1387.72 524.001C1387.72 287.78 1196.22 96.2852 959.999 96.2852C723.778 96.2852 532.283 287.78 532.283 524.001C532.283 760.223 723.778 951.718 959.999 951.718Z" stroke="url(#paint2_linear_24598_6488)" stroke-opacity="0.07" stroke-width="1.88221" stroke-miterlimit="10"></path><path d="M960 1048C1249.4 1048 1484 813.397 1484 524C1484 234.603 1249.4 0 960 0C670.603 0 436 234.603 436 524C436 813.397 670.603 1048 960 1048Z" stroke="url(#paint3_linear_24598_6488)" stroke-opacity="0.1" stroke-width="2.29244" stroke-miterlimit="10"></path></g><path d="M1633.84 592.429L1635.03 586.309C1635.49 583.925 1637.79 582.374 1640.17 582.837L1646.09 583.988C1648.48 584.451 1650.03 586.75 1649.56 589.135L1648.38 595.255C1647.91 597.639 1645.61 599.19 1643.23 598.726L1637.31 597.576C1634.92 597.112 1633.37 594.813 1633.84 592.429Z" stroke="#64C1EE" stroke-width="2.87" stroke-miterlimit="10"></path><path d="M521.5 631C526.747 631 531 626.747 531 621.5C531 616.253 526.747 612 521.5 612C516.253 612 512 616.253 512 621.5C512 626.747 516.253 631 521.5 631Z" fill="#6B4FD9"></path><path d="M497.802 390.815L504.489 389.024C506.595 388.459 508.763 389.711 509.328 391.818L511.168 398.687C511.733 400.794 510.481 402.962 508.375 403.527L501.703 405.314C499.596 405.879 497.428 404.627 496.863 402.52L495.023 395.651C494.458 393.544 495.71 391.376 497.817 390.811L497.802 390.815Z" fill="#D6405C"></path><path d="M1321.67 568.339C1321.15 566.022 1319.23 565.303 1317.38 566.742L1309.64 572.727C1307.17 574.64 1307.52 577.071 1310.44 578.165L1319.83 581.661C1322.75 582.754 1324.55 581.114 1323.85 578.021L1321.69 568.339H1321.67Z" fill="#E7633A"></path><path d="M350.02 528C354.991 528 359.02 523.971 359.02 519C359.02 514.029 354.991 510 350.02 510C345.05 510 341.02 514.029 341.02 519C341.02 523.971 345.05 528 350.02 528Z" stroke="#0CBCA0" stroke-width="2.87" stroke-miterlimit="10"></path><path d="M1465 397C1469.97 397 1474 392.971 1474 388C1474 383.029 1469.97 379 1465 379C1460.03 379 1456 383.029 1456 388C1456 392.971 1460.03 397 1465 397Z" stroke="#0078FF" stroke-width="2.87" stroke-miterlimit="10"></path></g><defs><linearGradient id="paint0_linear_24598_6488" x1="960.001" y1="235.535" x2="960.001" y2="812.462" gradientUnits="userSpaceOnUse"><stop offset="0.659821" stop-color="#64C1EE"></stop><stop offset="1" stop-color="#64C1EE" stop-opacity="0"></stop></linearGradient><linearGradient id="paint1_linear_24598_6488" x1="960" y1="164" x2="960" y2="885" gradientUnits="userSpaceOnUse"><stop offset="0.639692" stop-color="#64C1EE"></stop><stop offset="1" stop-color="#64C1EE" stop-opacity="0"></stop></linearGradient><linearGradient id="paint2_linear_24598_6488" x1="959.999" y1="96.2852" x2="959.999" y2="951.718" gradientUnits="userSpaceOnUse"><stop offset="0.764677" stop-color="#64C1EE"></stop><stop offset="1" stop-color="#64C1EE" stop-opacity="0"></stop></linearGradient><linearGradient id="paint3_linear_24598_6488" x1="960" y1="601.5" x2="960" y2="1048" gradientUnits="userSpaceOnUse"><stop stop-color="#64C1EE"></stop><stop offset="1" stop-color="#64C1EE" stop-opacity="0"></stop></linearGradient><clipPath id="clip0_24598_6488"><rect width="1920" height="1294" fill="white"></rect></clipPath></defs></svg>