<svg width="74" height="74" viewBox="0 0 74 74" fill="currentColor" xmlns="http://www.w3.org/2000/svg">
<path d="M74 74H0V0H74V74ZM39.6191 25C37.1404 25 34.8026 25.5559 32.6055 26.667V30.667C34.8026 29.4448 37.1404 28.833 39.6191 28.833C42.5486 28.833 44.0137 29.8889 44.0137 32C44.0137 35.5707 40.0255 40.0975 32.0508 45.582L23.0752 25.167H18.2588L8 49H12.5967L20.5576 29.7168L24.5117 38.667H19.4922L17.9551 42.5H25.6953L28.7373 49H66V45.167H53.1387L66 29V25.167H51.2295V29H61.5039L48.085 45.167H38.8076C45.2637 40.5003 48.4922 36.1111 48.4922 32C48.4922 27.3333 45.5344 25 39.6191 25Z" fill="currentColor"/>
</svg>
