<svg xmlns="http://www.w3.org/2000/svg" width="42" height="42" viewBox="0 0 42 42" fill="none"><path d="M21 0C28.9592 0 32.9388 0.00018496 35.8848 1.74805C37.6832 2.81509 39.1849 4.31683 40.252 6.11523C41.9998 9.0612 42 13.0408 42 21C42 28.9592 41.9998 32.9388 40.252 35.8848C39.1849 37.6832 37.6832 39.1849 35.8848 40.252C32.9388 41.9998 28.9592 42 21 42C13.0408 42 9.0612 41.9998 6.11523 40.252C4.31683 39.1849 2.81509 37.6832 1.74805 35.8848C0.00018496 32.9388 0 28.9592 0 21C0 13.0408 0.000186495 9.0612 1.74805 6.11523C2.81509 4.31683 4.31683 2.81509 6.11523 1.74805C9.0612 0.000186495 13.0408 0 21 0ZM17.4092 20.3809C16.1421 24.1019 13.5289 31.7318 13.5166 31.7676H11.543V32.2188H14.6436L17.3398 24.0498C17.3119 24.1377 17.2949 24.1926 17.2949 24.1963C18.6363 22.5994 20.3467 21.1158 22.0391 19.9082L24.2695 27.1348H22.292V27.626H27.6318V27.1367H26.6797L23.9697 18.5244C23.9819 18.561 23.9937 18.5964 24.0059 18.6338C24.1241 18.5677 24.2653 18.4705 24.3828 18.4023C28.1798 16.201 32.2635 14.7947 36.5693 14.0029C36.8153 13.9576 37.0702 13.9432 37.3623 13.834C37.263 13.8218 37.2243 13.8152 37.1855 13.8115C35.425 13.6573 33.6806 13.8009 31.9502 14.127C28.983 14.6857 26.1882 15.7791 23.583 17.2959L21.7559 11.4873H20.4238C20.4073 11.5362 18.3863 17.5101 17.4092 20.3809ZM21.6074 18.5098C21.5902 18.5221 20.6078 19.2288 19.8545 19.832C19.1487 20.3975 18.4014 21.0537 18.2979 21.1445L20.4287 14.6885L21.6074 18.5098Z" fill="currentColor"></path></svg>