<svg width="46" height="46" viewBox="0 0 46 46" fill="none" xmlns="http://www.w3.org/2000/svg">
<g clip-path="url(#clip0_28510_2123)">
<path d="M23 0C31.7173 0 36.0762 -0.000301843 39.3027 1.91406C41.2724 3.08273 42.9173 4.72758 44.0859 6.69727C46.0003 9.92381 46 14.2827 46 23C46 31.7173 46.0003 36.0762 44.0859 39.3027C42.9173 41.2724 41.2724 42.9173 39.3027 44.0859C36.0762 46.0003 31.7173 46 23 46C14.2827 46 9.92381 46.0003 6.69727 44.0859C4.72758 42.9173 3.08273 41.2724 1.91406 39.3027C-0.000301843 36.0762 0 31.7173 0 23C0 14.2827 -0.000303377 9.92381 1.91406 6.69727C3.08273 4.72758 4.72758 3.08273 6.69727 1.91406C9.92381 -0.000303377 14.2827 0 23 0ZM19.0674 22.3223C17.6799 26.3968 14.8185 34.7498 14.8037 34.793H12.6426V35.2871H16.0381L18.9912 26.3398C18.9591 26.4409 18.9404 26.5024 18.9424 26.501C20.4116 24.752 22.2841 23.1263 24.1377 21.8037L26.5811 29.7188H24.415V30.2568H30.2637V29.7207H29.2207L26.252 20.2891C26.2653 20.3292 26.2796 20.3682 26.293 20.4092C26.4226 20.3368 26.5764 20.2289 26.7051 20.1543C30.8638 17.7433 35.3366 16.2041 40.0527 15.3369C40.3222 15.2873 40.6009 15.2711 40.9209 15.1514C40.8123 15.138 40.7698 15.131 40.7275 15.127C38.7993 14.958 36.8884 15.1155 34.9932 15.4727C31.7434 16.0846 28.6825 17.282 25.8291 18.9434L23.8271 12.5811H22.3682C22.3504 12.6337 20.1376 19.1779 19.0674 22.3223ZM23.665 20.2725C23.6432 20.2882 22.5699 21.0611 21.7461 21.7207V21.7217C20.9738 22.3404 20.1557 23.0576 20.041 23.1582L22.374 16.0879L23.665 20.2725Z" fill="currentColor"/>
</g>
<defs>
<clipPath id="clip0_28510_2123">
<rect width="46" height="46" rx="13.6757" fill="white"/>
</clipPath>
</defs>
</svg>
