<svg width="24" height="24" viewBox="0 0 24 24" fill="none" xmlns="http://www.w3.org/2000/svg">
<path d="M6.5 16.5H13.5C13.78 16.5 14 16.28 14 16C14 15.72 13.78 15.5 13.5 15.5H6.5C6.22 15.5 6 15.72 6 16C6 16.28 6.22 16.5 6.5 16.5ZM6.5 12.5H17.5C17.78 12.5 18 12.28 18 12C18 11.72 17.78 11.5 17.5 11.5H6.5C6.22 11.5 6 11.72 6 12C6 12.28 6.22 12.5 6.5 12.5ZM6.5 8.5H17.5C17.78 8.5 18 8.28 18 8C18 7.72 17.78 7.5 17.5 7.5H6.5C6.22 7.5 6 7.72 6 8C6 8.28 6.22 8.5 6.5 8.5Z" fill="currentColor"/>
<path d="M6.5 20H17.5C19.43 20 21 18.43 21 16.5V7.5C21 5.57 19.43 4 17.5 4H6.5C4.57 4 3 5.57 3 7.5V16.5C3 18.43 4.57 20 6.5 20ZM4 7.5C4 6.83696 4.26339 6.20107 4.73223 5.73223C5.20107 5.26339 5.83696 5 6.5 5H17.5C18.163 5 18.7989 5.26339 19.2678 5.73223C19.7366 6.20107 20 6.83696 20 7.5V16.5C20 17.163 19.7366 17.7989 19.2678 18.2678C18.7989 18.7366 18.163 19 17.5 19H6.5C5.83696 19 5.20107 18.7366 4.73223 18.2678C4.26339 17.7989 4 17.163 4 16.5V7.5Z" fill="currentColor"/>
</svg>
