<svg width="24" height="24" viewBox="0 0 24 24" fill="none" xmlns="http://www.w3.org/2000/svg">
<path d="M17.5 4H6.5C4.57 4 3 5.57 3 7.5V16.5C3 18.43 4.57 20 6.5 20H17.5C19.43 20 21 18.43 21 16.5V7.5C21 5.57 19.43 4 17.5 4ZM6.5 19C5.12 19 4 17.88 4 16.5V7.5C4 6.12 5.12 5 6.5 5H11.5V19H6.5ZM20 16.5C20 17.88 18.88 19 17.5 19H12.5V5H17.5C18.88 5 20 6.12 20 7.5V16.5Z" fill="currentColor"/>
<path d="M17.5 12H15.5C15.22 12 15 12.22 15 12.5C15 12.78 15.22 13 15.5 13H17.5C17.78 13 18 12.78 18 12.5C18 12.22 17.78 12 17.5 12Z" fill="currentColor"/>
<path d="M17.5 8H15.5C15.22 8 15 8.22 15 8.5C15 8.78 15.22 9 15.5 9H17.5C17.78 9 18 8.78 18 8.5C18 8.22 17.78 8 17.5 8Z" fill="currentColor"/>
</svg>
