<svg width="14" height="13" viewBox="0 0 14 13" fill="none" xmlns="http://www.w3.org/2000/svg">
<path fill-rule="evenodd" clip-rule="evenodd" d="M3.36821 2.66405V1.57843C3.36832 1.25812 3.48334 0.948473 3.69238 0.705768C3.90141 0.463063 4.19058 0.303409 4.50734 0.255819L5.44005 0.115913C6.47405 -0.0386375 7.52528 -0.0386375 8.55928 0.115913L9.49199 0.255819C9.80888 0.303428 10.0982 0.463193 10.3072 0.706058C10.5163 0.948922 10.6312 1.25875 10.6311 1.5792V2.66481L11.9262 2.76955C12.3711 2.80536 12.7912 2.98931 13.1193 3.292C13.4473 3.5947 13.6644 3.99864 13.7358 4.43925C13.7675 4.63633 13.7963 4.83385 13.8222 5.03175C13.8282 5.07952 13.8191 5.12796 13.796 5.17022C13.773 5.21249 13.7372 5.24642 13.6938 5.26723L13.6349 5.29475C9.48511 7.25956 4.51499 7.25956 0.364428 5.29475L0.30556 5.26723C0.262006 5.24654 0.226079 5.21265 0.202885 5.17038C0.17969 5.12811 0.170408 5.0796 0.176356 5.03175C0.20286 4.834 0.231911 4.6365 0.263511 4.43925C0.334928 3.99864 0.552018 3.5947 0.880071 3.292C1.20813 2.98931 1.6282 2.80536 2.07312 2.76955L3.36821 2.66405ZM5.61054 1.24969C6.53152 1.11213 7.46782 1.11213 8.3888 1.24969L9.32151 1.3896C9.36676 1.39637 9.40808 1.41915 9.43796 1.4538C9.46784 1.48845 9.4843 1.53268 9.48435 1.57843V2.58377C7.82924 2.48925 6.17009 2.48925 4.51499 2.58377V1.57843C4.51503 1.53268 4.53149 1.48845 4.56138 1.4538C4.59126 1.41915 4.63258 1.39637 4.67783 1.3896L5.61054 1.24969ZM13.9487 6.56123C13.9615 6.58241 13.969 6.60639 13.9706 6.63111V6.63187C14.0493 8.09286 13.9698 9.56074 13.7358 11.0095C13.6646 11.4502 13.4476 11.8544 13.1195 12.1572C12.7914 12.4601 12.3713 12.6441 11.9262 12.68L10.4951 12.7946C8.16787 12.9827 5.83074 12.9827 3.50432 12.7946L2.07314 12.68C1.62811 12.6441 1.20795 12.4601 0.879883 12.1572C0.551815 11.8544 0.334793 11.4502 0.263532 11.0095C0.0300725 9.5625 -0.0486068 8.09476 0.0288255 6.63111C0.030342 6.60639 0.0378396 6.58241 0.0506732 6.56123C0.0635068 6.54005 0.0812925 6.52231 0.102501 6.50952C0.123709 6.49674 0.147706 6.48929 0.172427 6.48783C0.197148 6.48637 0.221853 6.49094 0.244419 6.50114C4.50354 8.3872 9.49584 8.3872 13.755 6.50114C13.7775 6.49094 13.8022 6.48637 13.827 6.48783C13.8517 6.48929 13.8757 6.49674 13.8969 6.50952C13.9181 6.52231 13.9359 6.54005 13.9487 6.56123Z" fill="currentColor"/>
</svg>
