<svg xmlns="http://www.w3.org/2000/svg" viewBox="0 0 1024 1024">
  <path fill="currentColor" transform="scale(1,-1) translate(0,-960)" d="M213.333 554.71c0-81.152 32.64-154.752 85.333-208.64v-303.403c0-0.047 0-0.103 0-0.158 0-23.517 19.064-42.581 42.581-42.581 6.987 0 13.58 1.683 19.398 4.665l-0.24-0.112 151.595 75.819 151.595-75.776c5.56-2.873 12.136-4.558 19.106-4.558 8.285 0 16.015 2.381 22.541 6.495l-0.175-0.103c12.587 7.808 20.267 21.504 20.267 36.309v303.36c52.761 53.671 85.333 127.334 85.333 208.605 0 0.027 0 0.055 0 0.082v-0.004c0 164.651-133.973 298.624-298.667 298.624s-298.667-133.973-298.667-298.624zM531.072 166.187c-5.562 2.844-12.133 4.511-19.093 4.511s-13.531-1.667-19.335-4.622l0.242 0.112-108.885-54.485v173.525c38.869-18.517 82.176-29.227 128-29.227s89.131 10.667 128 29.227v-173.483l-108.928 54.443zM512 768c117.589 0 213.333-95.659 213.333-213.291-0.121-117.781-95.556-213.23-213.32-213.376h-0.014c-117.632 0-213.333 95.701-213.333 213.376 0.146 117.754 95.576 213.169 213.322 213.291h0.012z"/>
</svg>
