<svg xmlns="http://www.w3.org/2000/svg" viewBox="0 0 1024 1024">
  <path fill="currentColor" transform="scale(1,-1) translate(0,-960)" d="M85.333 426.667h85.333c-0.001 0.229-0.001 0.5-0.001 0.771 0 94.049 38.103 179.198 99.715 240.852l-0.002-0.002c30.27 30.367 66.276 54.995 106.26 72.122l2.199 0.838c39.268 16.765 84.955 26.512 132.919 26.512 46.334 0 90.544-9.096 130.941-25.599l-2.313 0.836c1.757-57.253 48.59-102.997 106.108-102.997 0.061 0 0.123 0 0.184 0h-0.009c59.136 0 106.667 47.531 106.667 106.667s-47.531 106.667-106.667 106.667c-29.397 0-55.979-11.776-75.221-30.933-103.723 41.515-222.848 40.875-325.76-2.517-52.757-22.507-97.795-53.308-135.674-91.258l-0.006-0.006c-37.976-37.868-68.792-82.893-90.255-132.883l-1.052-2.754c-21.096-48.843-33.366-105.713-33.366-165.449 0-0.304 0-0.608 0.001-0.912v0.047zM826.581 293.462c-17.109-40.619-41.685-77.141-72.96-108.416s-67.797-55.851-108.459-72.96c-39.268-16.765-84.955-26.512-132.919-26.512-46.334 0-90.544 9.096-130.941 25.599l2.313-0.836c-1.757 57.253-48.59 102.997-106.108 102.997-0.061 0-0.123 0-0.184 0h0.009c-59.136 0-106.667-47.531-106.667-106.667s47.531-106.667 106.667-106.667c29.397 0 55.979 11.776 75.221 30.933 47.112-19.569 101.833-30.933 159.208-30.933 0.083 0 0.167 0 0.25 0h-0.013c0.244-0.001 0.533-0.001 0.822-0.001 175.444 0 326.114 106.073 391.376 257.586l1.060 2.766c21.123 48.836 33.409 105.702 33.409 165.439 0 0.308 0 0.616-0.001 0.924v-0.048h-85.333c0.001-0.237 0.001-0.518 0.001-0.798 0-47.811-9.838-93.323-27.601-134.624l0.848 2.217zM512 620.288c-106.752 0-193.621-86.869-193.621-193.621s86.869-193.621 193.621-193.621 193.621 86.869 193.621 193.621-86.869 193.621-193.621 193.621zM512 318.379c-59.691 0-108.288 48.597-108.288 108.288s48.597 108.288 108.288 108.288 108.288-48.597 108.288-108.288-48.597-108.288-108.288-108.288z"/>
</svg>
