<svg xmlns="http://www.w3.org/2000/svg" viewBox="0 0 1024 1024">
  <path fill="currentColor" transform="scale(1,-1) translate(0,-960)" d="M384 85.334h256v-85.333h-256zM721.323 353.622c43.947 51.456 89.344 104.661 89.344 201.045 0 164.651-134.016 298.667-298.667 298.667s-298.667-134.016-298.667-298.667c0-97.493 45.525-150.528 89.643-201.813 15.275-17.835 31.104-36.309 46.251-57.557 6.144-8.789 16.213-42.496 25.216-81.963h-33.109v-85.333h341.333v85.333h-33.024c9.088 39.552 19.2 73.344 25.301 82.133 15.019 21.461 30.976 40.107 46.379 58.155zM605.099 344.534c-18.517-26.325-33.963-88.533-42.923-131.2h-100.309c-8.917 42.752-24.405 105.088-43.136 131.413-17.48 23.922-34.211 44.66-51.836 64.588l0.806-0.929c-41.557 48.384-69.035 80.384-69.035 146.261 0 117.632 95.701 213.333 213.333 213.333s213.333-95.701 213.333-213.333c0-64.896-27.435-97.024-68.907-145.621-15.915-18.688-33.963-39.808-51.328-64.512z"/>
</svg>
