<svg xmlns="http://www.w3.org/2000/svg" viewBox="0 0 1024 1024">
  <path fill="currentColor" transform="scale(1,-1) translate(0,-960)" d="M213.333 640h85.333v-426.667h-85.333zM597.333 640h42.667v-426.667h-42.667zM426.667 640h128v-426.667h-128zM341.333 640h42.667v-426.667h-42.667zM682.667 640h128v-426.667h-128zM170.667 725.334h170.667v85.333h-170.667c-47.061 0-85.333-38.272-85.333-85.333v-170.667h85.333v170.667zM170.667 42.667h170.667v85.333h-170.667v170.667h-85.333v-170.667c0-47.061 38.272-85.333 85.333-85.333zM853.333 810.667h-170.667v-85.333h170.667v-170.667h85.333v170.667c0 47.061-38.272 85.333-85.333 85.333zM853.333 128h-170.667v-85.333h170.667c47.061 0 85.333 38.272 85.333 85.333v170.667h-85.333v-170.667z"/>
</svg>
