<svg xmlns="http://www.w3.org/2000/svg" viewBox="0 0 1024 1024">
  <path fill="currentColor" transform="scale(1,-1) translate(0,-960)" d="M128 597.334v-469.333c0-93.909 76.544-128 128-128h640v85.333h-639.488c-19.712 0.512-43.179 8.277-43.179 42.667s23.467 42.155 43.179 42.667h639.488v597.333c0 47.061-38.272 85.333-85.333 85.333h-554.667c-51.456 0-128-34.091-128-128v-128zM256 768h554.667v-512h-597.333v469.333c0 34.389 23.467 42.155 42.667 42.667zM511.872 341.334l142.933 140.331c17.192 16.552 27.87 39.765 27.87 65.472s-10.679 48.92-27.842 65.445l-0.029 0.027c-17.135 16.918-40.691 27.368-66.688 27.368s-49.553-10.45-66.698-27.378l0.010 0.010-9.557-9.301-9.557 9.344c-17.128 16.916-40.677 27.364-66.667 27.364s-49.539-10.448-66.676-27.374l0.010 0.010c-17.192-16.552-27.87-39.765-27.87-65.472s10.679-48.92 27.842-65.445l0.029-0.027 142.891-140.373z"/>
</svg>
