<?xml version="1.0" encoding="UTF-8" standalone="no"?>
<svg
   width="1077.8445"
   height="1021.87"
   viewBox="0 0 1077.8445 1021.87"
   version="1.1"
   id="svg1"
   sodipodi:docname="bx-baby-carriage.svg"
   inkscape:version="1.4.3 (0d15f75, 2025-12-25)"
   xmlns:inkscape="http://www.inkscape.org/namespaces/inkscape"
   xmlns:sodipodi="http://sodipodi.sourceforge.net/DTD/sodipodi-0.dtd"
   xmlns="http://www.w3.org/2000/svg"
   xmlns:svg="http://www.w3.org/2000/svg">
  <defs
     id="defs1" />
  <sodipodi:namedview
     id="namedview1"
     pagecolor="#ffffff"
     bordercolor="#000000"
     borderopacity="0.25"
     inkscape:showpageshadow="2"
     inkscape:pageopacity="0.0"
     inkscape:pagecheckerboard="0"
     inkscape:deskcolor="#d1d1d1"
     inkscape:zoom="0.12419274"
     inkscape:cx="301.95001"
     inkscape:cy="829.35603"
     inkscape:window-width="944"
     inkscape:window-height="655"
     inkscape:window-x="0"
     inkscape:window-y="33"
     inkscape:window-maximized="0"
     inkscape:current-layer="svg1" />
  <g
     id="g1"
     transform="matrix(0.83564976,0,0,0.84240657,28.533824,63.344792)">
    <path
       d="m 322.47911,1038.3683 c -10.37165,-1.2083 -14.17796,-2.3362 -29.90679,-8.8618 -10.94031,-4.539 -21.71711,-10.6704 -26.36187,-14.9985 -1.70674,-1.5904 -4.12816,-3.2169 -5.38093,-3.6146 -2.47462,-0.7854 -4.54098,-2.4521 -15.97522,-12.88592 -13.9563,-12.7351 -27.27786,-27.5413 -32.0277,-35.5971 -1.72206,-2.9206 -4.13242,-6.7078 -5.35637,-8.4161 -4.72391,-6.5931 -16.21919,-34.1261 -19.24965,-46.1059 -3.79616,-15.0068 -5.38211,-25.9713 -6.00271,-41.5 -0.64651,-16.1772 0.64612,-38.969 2.58051,-45.5 0.48871,-1.65 2.22519,-7.725 3.85884,-13.5 3.25681,-11.5129 6.36843,-20.6637 8.02663,-23.6049 0.5876,-1.0423 3.34749,-6.5733 6.1331,-12.2912 2.7856,-5.7178 6.17441,-11.7149 7.53069,-13.3267 1.35629,-1.6119 2.4879,-3.4586 2.51471,-4.1039 0.0677,-1.6306 6.25314,-10.0653 13.79696,-18.814 9.17747,-10.6434 10.41336,-11.9299 15.71536,-16.3593 2.63342,-2.2 6.62199,-5.5908 8.86349,-7.5352 8.55356,-7.4197 18.21517,-14.7157 20.4091,-15.412 1.25625,-0.3987 5.03606,-2.5529 8.39957,-4.787 3.36352,-2.2341 8.17453,-4.5846 10.69113,-5.2235 5.55606,-1.4103 6.10181,-3.3975 3.16983,-11.5423 -1.08894,-3.025 -3.29364,-9.2006 -4.89932,-13.7237 -1.60569,-4.523 -4.56913,-11.363 -6.58543,-15.2 -2.01629,-3.837 -4.75467,-10.4066 -6.08527,-14.599 -1.33061,-4.1925 -3.66868,-9.7274 -5.1957,-12.3 -3.42067,-5.7626 -6.92828,-13.7637 -9.50323,-21.6773 -1.07376,-3.3 -3.72332,-9.4277 -5.88792,-13.61708 -2.16459,-4.1894 -4.84123,-10.4894 -5.94808,-14 -1.10686,-3.51061 -4.86882,-12.23292 -8.35993,-19.38292 -3.4911,-7.15 -6.946,-15.25 -7.67755,-18 -0.73155,-2.75 -3.03412,-8.16992 -5.11681,-12.04426 -2.0827,-3.87434 -4.70763,-9.94934 -5.83319,-13.5 -2.33609,-7.36938 -4.52281,-12.35125 -7.00355,-15.95574 -0.94632,-1.375 -2.29299,-4.26336 -2.99258,-6.41857 -0.6996,-2.15522 -2.06845,-5.30522 -3.0419,-7 -0.97345,-1.69479 -2.08258,-4.65643 -2.46472,-6.58143 -1.28454,-6.47068 -5.52704,-14.68382 -8.33011,-16.12644 -2.14219,-1.10249 -14.90444,-1.48391 -64.66889,-1.93274 -34.1,-0.30755 -62.190943,-0.64505 -62.424313,-0.75 -0.23338,-0.10495 0.50266,-1.20332 1.63564,-2.44082 3.02837,-3.30776 3.51586,-11.04169 3.4356,-54.50446 -0.0591,-32.01423 -0.327,-39.00952 -1.64217,-42.88328 -0.86434,-2.54585 -1.44401,-4.70273 -1.28815,-4.79306 4.17474,-2.41949 9.98008,-2.56672 99.080443,-2.51276 69.50061,0.0421 94.07599,0.35998 96.63592,1.25 3.15958,1.09851 3.64537,1.84853 6.09997,9.41792 2.27519,7.01611 5.32882,14.01822 11.45886,26.27564 0.68765,1.375 1.79347,4.3 2.45737,6.5 0.66391,2.2 3.38243,8.725 6.04116,14.5 7.04897,15.31102 8.00967,17.63319 8.00967,19.36072 0,0.85715 1.8,4.91611 4,9.01989 2.2,4.10379 4,8.01018 4,8.68088 0,0.6707 0.95006,3.12176 2.11125,5.44682 4.09197,8.19337 -15.13404,7.49169 205.27345,7.49169 138.9578,0 197.2293,-0.31808 199.4398,-1.08866 l 3.1229,-1.08867 -0.2237,-214.91139 -0.2237,-214.911392 24.75496,4.615758 c 0,0 21.96449,0.555727 25.93984,1.729942 1.2678,0.33425 10.1802,1.08719 19.8052,1.67319 19.4804,1.18603 34.6731,3.95797 51.3838,9.37506 5.8694,1.90269 12.1217,3.76941 13.8939,4.14828 1.7723,0.37886 3.688,1.06161 4.2571,1.51722 0.5692,0.45562 4.8442,2.14738 9.5,3.75948 12.066,4.17787 29.9922,11.84298 33.1716,14.18397 1.4886,1.09599 5.1673,2.91342 8.175,4.03873 3.0077,1.12532 7.1426,3.18208 9.1886,4.57058 2.0461,1.3885 6.0881,3.41051 8.9823,4.49336 2.8942,1.08286 6.7664,3.06748 8.6049,4.41028 1.8385,1.3428 4.4678,2.99568 5.8428,3.67307 2.5667,1.26448 7.3583,4.48324 23.5374,15.8112 16.3753,11.465362 17.6373,12.414592 23.3473,17.561292 3.0884,2.7837 8.54029,7.19454 12.11529,9.80186 3.575,2.60731 8.9794,7.07974 12.0098,9.93871 3.0304,2.85898 7.7554,7.28439 10.5,9.83425 2.7446,2.54986 7.2402,7.22019 9.9902,10.3785 2.75,3.15831 5.4633,6.24706 6.0297,6.86389 5.7171,6.22703 21.6222,25.79103 23.9777,29.49375 1.6541,2.60005 4.3758,6.50495 6.0483,8.67756 1.6724,2.1726 3.8147,5.07519 4.7605,6.45019 0.9458,1.375 3.5109,4.975 5.7001,8 2.1892,3.025 3.9811,5.77964 3.9821,6.12142 9e-4,0.34179 3.004,5.51679 6.6736,11.5 3.6696,5.98322 8.3275,14.05444 10.3508,17.93605 2.0233,3.8816 4.4434,8.22438 5.3779,9.65062 3.314,5.05786 10.5061,26.76973 12.7599,29.48542 1.4602,1.75932 3.8997,10.84658 8.3062,22.80649 8.7172,23.66028 16.9966,59.34179 18.563,80 1.156,15.24484 1.1182,110.0475 -0.047,117 -0.5528,3.3 -1.4416,10.11125 -1.9749,15.13612 -1.2866,12.12058 -11.0404,52.20046 -15.4202,63.36387 -0.7552,1.925 -1.9522,5.525 -2.6598,8 -0.7077,2.475 -2.1506,6.2569 -3.2065,8.4043 -1.0559,2.1473 -3.411,7.9973 -5.2335,13 -3.7061,10.1727 -8.3038,20.2722 -13.1079,28.7929 -1.7667,3.1335 -3.5092,6.6333 -3.8724,7.7775 -3.0836,9.7156 -32.4215,53.4289 -49.0104,73.0253 -3.0263,3.575 -7.8313,9.3096 -10.6778,12.7436 -2.8464,3.4339 -8.4527,9.5853 -12.4584,13.6697 -4.0056,4.0843 -7.5769,8.597 -7.936,10.028 -0.6905,2.7512 1.6566,10.2753 6.5692,21.0587 1.5033,3.3 3.4499,7.6015 4.3256,9.5589 0.8758,1.9575 3.4361,10.7231 5.6896,19.4793 3.7363,14.5172 4.1472,17.3763 4.6627,32.4411 0.7981,23.3221 -0.8105,42.2588 -4.7368,55.7591 -4.2832,14.728 -7.7914,25.3671 -8.7951,26.672 -0.4609,0.5993 -2.3078,4.6702 -4.1044,9.0466 -1.7965,4.3763 -5.2396,10.9521 -7.6513,14.6128 -2.4117,3.6607 -4.3849,7.1146 -4.3849,7.6753 0,1.7262 -20.39559,26.5656 -28.08039,34.1986 -5.2492,5.2139 -18.1072,15.58482 -21.4929,17.33562 -1.6123,0.8338 -3.8024,2.4783 -4.8669,3.6546 -1.0645,1.1763 -3.8609,2.9904 -6.2143,4.0314 -2.3534,1.041 -6.2623,3.2574 -8.6866,4.9254 -2.4243,1.668 -6.3768,3.7756 -8.7834,4.6837 -17.2271,6.5004 -24.16222,7.7708 -32.6047,9.262 -39.53876,6.9837 -94.66368,4.4958 -114.7704,-4.361 -14.96607,-6.5924 -31.9611,-14.8337 -37,-19.3279 -1.65,-1.4717 -4.7184,-3.5444 -6.8186,-4.606 -4.7836,-2.4181 -34.5238,-32.02642 -40.0628,-39.88502 -3.8634,-5.4815 -5.466,-7.9927 -10.6301,-16.6565 -11.3264,-19.0024 -21.0397,-44.7603 -23.4412,-62.1614 -0.4027,-2.9181 -1.2798,-4.9751 -2.3453,-5.5 -0.9361,-0.4612 -26.5688,-0.9691 -56.9616,-1.1285 l -55.2596,-0.2899 -0.8455,2.2899 c -0.4651,1.2594 -1.1308,4.7649 -1.4795,7.7899 -0.6096,5.2893 -4.8458,20.8554 -8.1056,29.7847 -3.5046,9.5995 -12.5895,27.9705 -16.2253,32.8097 -1.2787,1.7019 -2.3249,3.5593 -2.3249,4.1275 0,0.5683 -0.7029,1.6165 -1.5619,2.3295 -0.8591,0.713 -3.1324,3.6622 -5.0518,6.5539 -3.8548,5.8076 -30.3241,32.65492 -37.1671,37.69802 -2.3857,1.7582 -6.5477,4.8842 -9.249,6.9467 -2.7012,2.0625 -5.145,3.75 -5.4306,3.75 -0.2855,0 -3.5892,1.9678 -7.3414,4.3729 -3.7522,2.4052 -7.9193,4.702 -9.2602,5.1042 -1.3409,0.4021 -3.338,1.2909 -4.438,1.975 -4.1451,2.5779 -22.2695,7.707 -29,8.2068 -3.85,0.2859 -8.4454,0.9589 -10.212,1.4955 -31.07965,3.0927 -56.66711,2.4931 -86.6225,-1.1745 z m 63.8283,-102.02462 c 6.0383,-1.1653 12.4868,-3.1007 14.9932,-4.5 2.4188,-1.3504 4.9127,-2.4553 5.542,-2.4553 2.7871,0 16.9115,-11.1814 24.3373,-19.2662 9.0057,-9.8049 13.0237,-16.739 15.781,-27.2338 4.5951,-17.4898 5.1652,-31.1683 1.834,-44 -2.7463,-10.5786 -10.7618,-26.8879 -15.9726,-32.5 -2.2981,-2.475 -4.4777,-5.0208 -4.8435,-5.6573 -0.3659,-0.6366 -4.5108,-4.2551 -9.2109,-8.0413 -7.1711,-5.7766 -10.0664,-7.3961 -18,-10.0687 -10.0759,-3.3943 -24.4371,-6.2327 -31.5345,-6.2327 -7.1219,0 -25.4559,3.9704 -30.34004,6.5705 -2.51011,1.3362 -5.09778,2.4295 -5.75037,2.4295 -0.6526,0 -1.78118,0.5786 -2.50796,1.2858 -0.72679,0.7072 -2.72334,2.1697 -4.4368,3.25 -5.40871,3.4101 -13.38463,9.6207 -13.38463,10.4222 0,0.4238 -2.51651,3.419 -5.59224,6.6562 -8.44842,8.8919 -12.33992,17.943 -16.38393,38.1069 -1.76668,8.8088 -1.91094,11.4479 -1.04406,19.1003 2.07438,18.3117 9.98269,35.5331 22.2042,48.3526 11.68714,12.2589 17.041,15.9847 28.37016,19.7428 19.45847,6.4548 29.04967,7.298 45.93967,4.0385 z m 485.7207,0.064 c 9.1563,-1.7632 13.5439,-3.3593 24.2855,-8.8343 9.9889,-5.0913 27.185,-22.5307 32.229,-32.6851 1.6392,-3.3 3.9432,-10.05 5.12,-15 5.5076,-23.1665 4.3999,-36.7028 -4.6644,-57 -6.0522,-13.5526 -15.8683,-24.8002 -30.7288,-35.2105 -6.4086,-4.4895 -24.6059,-9.5854 -38.8328,-10.8746 -8.9733,-0.8131 -27.7221,2.5244 -34.5251,6.1459 -2.5201,1.3416 -5.1159,2.4392 -5.7685,2.4392 -0.6526,0 -1.7812,0.5786 -2.508,1.2858 -0.7268,0.7072 -2.7233,2.1697 -4.4368,3.25 -5.4087,3.4102 -13.3846,9.6208 -13.3846,10.4223 0,0.4238 -2.5158,3.419 -5.5906,6.6562 -7.627,8.0297 -11.1539,15.3337 -14.8304,30.7129 -3.4532,14.4456 -3.7529,17.4577 -2.6439,26.5783 2.2513,18.5162 10.0835,35.508 22.2489,48.2686 11.6871,12.2589 17.041,15.9847 28.3701,19.7428 19.3568,6.421 29.0826,7.2949 45.6604,4.1026 z m -188.7145,-161.3617 c 3.5072,-1.0422 4.4312,-2.006 7.5,-7.8224 1.925,-3.6485 4.2005,-7.4665 5.0566,-8.4845 0.8562,-1.0179 2.0992,-3.1214 2.7622,-4.6745 1.3376,-3.1331 4.581,-7.4433 14.032,-18.6474 11.3565,-13.4629 14.5761,-16.7207 23.1768,-23.4515 4.6598,-3.6467 11.0566,-8.6533 14.215,-11.1258 3.1585,-2.4725 6.8544,-4.9181 8.2131,-5.4347 1.3588,-0.5166 5.3483,-2.7567 8.8655,-4.978 3.5172,-2.2214 6.9267,-4.0388 7.5767,-4.0388 0.65,0 3.0647,-0.9606 5.3661,-2.1347 2.3014,-1.1741 6.896,-2.9473 10.2102,-3.9406 3.3142,-0.9932 9.9198,-3.144 14.6792,-4.7797 4.7593,-1.6356 12.6343,-3.4749 17.5,-4.0874 4.8656,-0.6125 11.9966,-1.5363 15.8466,-2.0529 9.2353,-1.2392 26.3805,-1.2163 34.5,0.046 3.575,0.5559 10.325,1.4231 15,1.9272 11.5991,1.2507 30.9589,6.9329 44,12.9141 6.4555,2.9608 12.0503,2.7549 16.1733,-0.5953 5.8616,-4.7629 16.885,-16.5768 22.4715,-24.0828 2.9825,-4.0072 6.5176,-8.238 7.8559,-9.4016 1.3383,-1.1636 3.9106,-4.5444 5.7163,-7.5128 1.8056,-2.9685 5.1835,-7.9627 7.5064,-11.0984 2.3228,-3.1357 4.2353,-6.0606 4.25,-6.4998 0.015,-0.4393 1.7324,-3.3667 3.8172,-6.5056 4.99299,-7.517 12.50729,-22.2482 15.07439,-29.5521 1.1284,-3.2105 3.0225,-7.48125 4.209,-9.49051 3.9426,-6.67624 12.5792,-31.47789 15.8976,-45.65321 1.03,-4.4 2.3833,-10.01617 3.0074,-12.48037 1.0556,-4.16842 2.5517,-13.80199 4.9727,-32.01963 4.5369,-34.13921 3.1184,-63.73077 -5.0691,-105.75123 -2.7868,-14.30257 -4.9204,-22.00976 -9.7578,-35.24877 -1.1053,-3.025 -2.9888,-8.875 -4.1855,-13 -1.1968,-4.125 -3.9227,-10.7054 -6.0576,-14.62311 -2.1349,-3.91771 -3.8817,-7.63834 -3.8817,-8.26807 0,-0.62973 -1.8051,-4.11615 -4.0112,-7.7476 -2.2062,-3.63146 -4.3053,-7.78583 -4.6646,-9.23193 -0.3593,-1.44611 -1.4204,-3.75429 -2.3579,-5.12929 -2.99089,-4.38634 -11.36239,-16.99434 -14.49299,-21.82739 -6.0292,-9.30803 -8.0752,-12.07046 -13.9733,-18.86592 -3.3,-3.80208 -7.7969,-9.13898 -9.9931,-11.85978 -6.1396,-7.60602 -31.5968,-32.13373 -37.5069,-36.13741 -1.375,-0.93146 -2.725,-1.96844 -3,-2.3044 -0.275,-0.33595 -2.2996,-1.93704 -4.4991,-3.55796 -2.1995,-1.62093 -4.4495,-3.29258 -5,-3.71479 -4.8817,-3.74406 -10.3102,-7.57335 -13.0879,-9.23235 -1.8418,-1.1 -6.4994,-3.9125 -10.3503,-6.25 -3.8508,-2.3375 -7.3103,-4.25 -7.6877,-4.25 -0.3774,0 -2.2273,-1.17545 -4.1109,-2.6121 -4.4669,-3.40709 -21.255,-11.69915 -28.2641,-13.96031 -3.025,-0.97589 -6.9919,-2.89715 -8.8153,-4.26948 -2.2164,-1.66803 -4.6877,-2.52216 -7.4554,-2.57663 -4.1365,-0.0814 -4.1407,-0.0777 -4.9535,4.41852 -0.4474,2.475 -0.6925,94.8038 -0.5446,205.17511 l 0.2688,200.67511 -2.875,0.57489 c -1.5813,0.31621 -105.3288,0.57491 -230.55,0.57491 -175.7472,0 -227.9487,0.27369 -228.875,1.2 -1.8142,1.8142 -1.4532,4.68547 1.1583,9.21214 1.2971,2.24832 2.6707,5.43786 3.0525,7.08786 0.3817,1.65 2.9705,7.95 5.7529,14 7.1601,15.5689 7.8363,17.1611 7.8363,18.452 0,0.6324 2.5163,6.3447 5.5919,12.6939 3.0755,6.3493 6.6313,14.5389 7.9018,18.1991 1.2704,3.6602 5.0639,12.4074 8.4299,19.4381 6.75,14.0986 6.3428,13.7325 18.0531,16.2323 3.5878,0.7658 9.2233,2.4956 12.5233,3.8439 14.9625,6.1133 22.3607,9.5381 26.9458,12.4739 2.7202,1.7418 5.5168,3.1668 6.2148,3.1668 0.698,0 1.7546,0.9073 2.3481,2.0162 0.5934,1.1089 3.4229,3.339 6.2877,4.9558 2.8648,1.6168 7.0145,4.647 9.2215,6.7338 2.207,2.0868 6.1069,5.482 8.6664,7.5448 5.5865,4.5023 11.0165,9.8837 15.9885,15.8455 2.02,2.4221 5.309,6.2039 7.3087,8.4039 1.9997,2.2 4.7942,6.025 6.2099,8.5 1.4158,2.475 3.805,6.3 5.3093,8.5 1.5044,2.2 3.9061,6.5711 5.3371,9.7136 2.1328,4.6836 3.1931,5.8841 5.882,6.6598 5.0866,1.4673 135.2903,1.2671 140.2802,-0.2158 z"
       id="path1"
       fill="currentColor" />
  </g>
</svg>
