<svg xmlns="http://www.w3.org/2000/svg" viewBox="0 0 1024 1024">
  <path fill="currentColor" transform="scale(1,-1) translate(0,-960)" d="M853.333 682.667h-128v85.333c0 47.061-38.272 85.333-85.333 85.333h-256c-47.061 0-85.333-38.272-85.333-85.333v-85.333h-128c-47.061 0-85.333-38.272-85.333-85.333v-469.333c0-47.061 38.272-85.333 85.333-85.333h682.667c47.061 0 85.333 38.272 85.333 85.333v469.333c0 47.061-38.272 85.333-85.333 85.333zM640 768v-85.333h-256v85.333h256zM170.667 597.334h682.667v-170.667h-128v85.333h-85.333v-85.333h-256v85.333h-85.333v-85.333h-128v170.667zM170.667 128v213.333h128v-85.333h85.333v85.333h256v-85.333h85.333v85.333h128.043v-213.333h-682.709z"/>
</svg>
