<svg xmlns="http://www.w3.org/2000/svg" viewBox="0 0 1024 1024">
  <path fill="currentColor" transform="scale(1,-1) translate(0,-960)" d="M853.333 640h-170.667v128c0 47.061-38.272 85.333-85.333 85.333h-170.667c-47.061 0-85.333-38.272-85.333-85.333v-213.333h-170.667c-47.061 0-85.333-38.272-85.333-85.333v-384c0-23.564 19.103-42.667 42.667-42.667v0h768c23.564 0 42.667 19.103 42.667 42.667v0 469.333c0 47.061-38.272 85.333-85.333 85.333zM170.667 469.334h170.667v-341.333h-170.667v341.333zM426.667 512v256h170.667v-640h-170.667v384zM853.333 128h-170.667v426.667h170.667v-426.667z"/>
</svg>
