<svg xmlns="http://www.w3.org/2000/svg" viewBox="0 0 1024 1024">
  <path fill="currentColor" transform="scale(1,-1) translate(0,-960)" d="M425.856 306.731l-19.925-116.309 104.491 54.912 104.491-54.912-19.968 116.309 84.565 82.432-116.821 16.981-52.267 105.856-52.267-105.856-116.821-16.981zM810.667 768h-85.333v85.333h-85.333v-85.333h-256v85.333h-85.333v-85.333h-85.333c-47.061 0-85.333-38.272-85.333-85.333v-597.333c0-47.061 38.272-85.333 85.333-85.333h597.333c47.061 0 85.333 38.272 85.333 85.333v597.333c0 47.061-38.272 85.333-85.333 85.333zM810.752 85.334h-597.419v512h597.333l0.085-512z"/>
</svg>
