<svg xmlns="http://www.w3.org/2000/svg" viewBox="0 0 1024 1024">
  <path fill="currentColor" transform="scale(1,-1) translate(0,-960)" d="M298.667 469.334h85.333v-85.333h-85.333zM298.667 298.667h85.333v-85.333h-85.333zM469.333 469.334h85.333v-85.333h-85.333zM469.333 298.667h85.333v-85.333h-85.333zM640 469.334h85.333v-85.333h-85.333zM640 298.667h85.333v-85.333h-85.333zM213.333-0h597.333c47.061 0 85.333 38.272 85.333 85.333v597.333c0 47.061-38.272 85.333-85.333 85.333h-85.333v85.333h-85.333v-85.333h-256v85.333h-85.333v-85.333h-85.333c-47.061 0-85.333-38.272-85.333-85.333v-597.333c0-47.061 38.272-85.333 85.333-85.333zM810.667 597.334l0.043-512h-597.376v512h597.333z"/>
</svg>
