<svg xmlns="http://www.w3.org/2000/svg" viewBox="0 0 1024 1024">
  <path fill="currentColor" transform="scale(1,-1) translate(0,-960)" d="M810.667 853.334h-597.333c-47.061 0-85.333-38.272-85.333-85.333v-682.667c0-47.061 38.272-85.333 85.333-85.333h597.333c47.061 0 85.333 38.272 85.333 85.333v682.667c0 47.061-38.272 85.333-85.333 85.333zM213.333 85.334v682.667h597.333l0.043-682.667h-597.376zM298.667 426.667h85.333v-85.333h-85.333zM298.667 256h85.333v-85.333h-85.333zM469.333 426.667h85.333v-85.333h-85.333zM298.667 682.667h426.667v-170.667h-426.667zM469.333 256h85.333v-85.333h-85.333zM640 426.667h85.333v-256h-85.333z"/>
</svg>
