<svg xmlns="http://www.w3.org/2000/svg" viewBox="0 0 1024 1024">
  <path fill="currentColor" transform="scale(1,-1) translate(0,-960)" d="M810.667 768h-128v85.333h-85.333v-85.333h-170.667v85.333h-85.333v-85.333h-128c-47.061 0-85.333-38.272-85.333-85.333v-597.333c0-47.061 38.272-85.333 85.333-85.333h597.333c47.061 0 85.333 38.272 85.333 85.333v597.333c0 47.061-38.272 85.333-85.333 85.333zM213.333 85.334v554.667h597.333v42.667l0.085-597.333h-597.419zM666.795 418.859l-76.8 76.757 58.453 58.496 76.8-76.757zM341.547 247.424v-76.757h76.757l212.309 212.053-76.757 76.757z"/>
</svg>
