<svg xmlns="http://www.w3.org/2000/svg" viewBox="0 0 1024 1024">
  <path fill="currentColor" transform="scale(1,-1) translate(0,-960)" d="M853.333 853.334h-426.667c-47.061 0-85.333-38.272-85.333-85.333v-170.667h-170.667c-47.061 0-85.333-38.272-85.333-85.333v-426.667c0-47.061 38.272-85.333 85.333-85.333h426.667c47.061 0 85.333 38.272 85.333 85.333v170.667h170.667c47.061 0 85.333 38.272 85.333 85.333v426.667c0 47.061-38.272 85.333-85.333 85.333zM170.667 85.334v426.667h426.667l0.085-426.667h-426.752zM853.333 341.334h-170.667v170.667c0 47.061-38.272 85.333-85.333 85.333h-170.667v170.667h426.667v-426.667zM256 426.667h256v-85.333h-256zM256 256h256v-85.333h-256z"/>
</svg>
