<svg xmlns="http://www.w3.org/2000/svg" viewBox="0 0 1024 1024">
  <path fill="currentColor" transform="scale(1,-1) translate(0,-960)" d="M768 469.334c0 40.917-29.013 75.136-67.456 83.371 15.36 25.643 24.789 55.296 24.789 87.296 0 94.123-76.544 170.667-170.667 170.667-64.725 0-120.363-36.565-149.333-89.771-28.971 53.205-84.608 89.771-149.333 89.771-94.123 0-170.667-76.544-170.667-170.667 0-38.485 13.312-73.685 34.859-102.229-21.173-15.61-34.778-40.427-34.859-68.424v-341.346c0-47.061 38.272-85.333 85.333-85.333h512c47.061 0 85.333 38.272 85.333 85.333v112.555l170.667-85.333v298.667l-170.667-85.333v100.779zM554.667 725.334c47.061 0 85.333-38.272 85.333-85.333s-38.272-85.333-85.333-85.333-85.333 38.272-85.333 85.333 38.272 85.333 85.333 85.333zM256 725.334c47.061 0 85.333-38.272 85.333-85.333s-38.272-85.333-85.333-85.333-85.333 38.272-85.333 85.333 38.272 85.333 85.333 85.333zM170.667 128v341.333h512l0.085-341.333h-512.085z"/>
</svg>
