<svg xmlns="http://www.w3.org/2000/svg" viewBox="0 0 1024 1024">
  <path fill="currentColor" transform="scale(1,-1) translate(0,-960)" d="M896 768h-810.667v-85.333h98.133l139.947-384c18.062-50.028 65.066-85.173 120.3-85.333h366.953v85.333h-366.933c-18.353 0.008-33.995 11.602-40.011 27.865l-0.096 0.295-19.627 57.173h395.947c38.72 0.058 71.389 25.895 81.768 61.263l0.152 0.603 76.8 267.947c1.21 3.773 1.908 8.113 1.908 12.617 0 20.155-13.976 37.047-32.765 41.512l-0.29 0.058c-1.732 0.296-3.726 0.466-5.76 0.466s-4.028-0.169-5.97-0.495l0.21 0.029zM778.667 469.334h-426.667l-77.653 213.333h564.907zM512 106.667c0-35.346-28.654-64-64-64s-64 28.654-64 64c0 35.346 28.654 64 64 64s64-28.654 64-64zM768 106.667c0-35.346-28.654-64-64-64s-64 28.654-64 64c0 35.346 28.654 64 64 64s64-28.654 64-64z"/>
</svg>
