<svg xmlns="http://www.w3.org/2000/svg" viewBox="0 0 1024 1024">
  <path fill="currentColor" transform="scale(1,-1) translate(0,-960)" d="M895.787 644.267c-1.516 14.904-10.518 27.407-23.139 33.808l-0.243 0.112-341.333 170.667c-5.562 2.844-12.133 4.511-19.093 4.511s-13.531-1.667-19.335-4.622l0.242 0.112-341.333-170.667c-12.825-6.548-21.799-19.036-23.323-33.736l-0.015-0.184c-0.469-4.565-41.003-459.392 366.464-640.597 5.090-2.355 11.046-3.728 17.323-3.728s12.233 1.373 17.584 3.836l-0.262-0.108c407.467 181.205 366.933 635.989 366.464 640.597zM512 89.728c-288.811 139.605-302.464 437.547-300.117 523.179l300.117 150.059 299.904-149.973c1.579-84.864-13.995-384.768-299.904-523.264zM469.333 401.664l-97.835 97.835-60.331-60.331 158.165-158.165 243.499 243.499-60.331 60.331z"/>
</svg>
