<svg xmlns="http://www.w3.org/2000/svg" viewBox="0 0 1024 1024">
  <path fill="currentColor" transform="scale(1,-1) translate(0,-960)" d="M512 256c94.123 0 170.667 76.544 170.667 170.667s-76.544 170.667-170.667 170.667-170.667-76.544-170.667-170.667 76.544-170.667 170.667-170.667zM512 512c46.251 0 85.333-39.083 85.333-85.333s-39.083-85.333-85.333-85.333-85.333 39.083-85.333 85.333 39.083 85.333 85.333 85.333zM121.387 250.198l42.667-73.813c22.656-39.125 77.184-53.803 116.48-31.147l22.571 13.056c23.341-18.505 49.998-34.424 78.634-46.591l2.262-0.854v-25.515c0-47.061 38.272-85.333 85.333-85.333h85.333c47.061 0 85.333 38.272 85.333 85.333v25.515c30.897 13.026 57.552 28.931 81.625 47.959l-0.729-0.556 22.571-13.056c39.381-22.613 93.781-8.021 116.523 31.189l42.624 73.771c7.184 12.241 11.427 26.959 11.427 42.669 0 31.406-16.957 58.851-42.215 73.679l-0.401 0.218-21.547 12.459c2.187 14.258 3.436 30.706 3.436 47.445s-1.249 33.188-3.659 49.257l0.223-1.811 21.547 12.459c25.651 15.058 42.601 42.506 42.601 73.912 0 15.702-4.237 30.415-11.63 43.058l0.218-0.404-42.624 73.771c-22.656 39.253-77.141 53.973-116.523 31.232l-22.571-13.056c-23.341 18.505-49.998 34.424-78.634 46.591l-2.262 0.854v25.515c0 47.061-38.272 85.333-85.333 85.333h-85.333c-47.061 0-85.333-38.272-85.333-85.333v-25.515c-30.897-13.026-57.552-28.931-81.625-47.959l0.729 0.556-22.571 13.056c-39.424 22.656-93.867 7.979-116.523-31.232l-42.624-73.771c-7.184-12.241-11.427-26.959-11.427-42.669 0-31.406 16.957-58.851 42.215-73.679l0.401-0.218 21.547-12.459c-2.195-14.251-3.449-30.691-3.449-47.424s1.254-33.172 3.672-49.231l-0.224 1.807-21.547-12.459c-25.654-15.068-42.604-42.524-42.604-73.938 0-15.708 4.238-30.427 11.633-43.074l-0.219 0.405zM263.296 367.872c-4.606 17.642-7.265 37.901-7.296 58.776v0.019c0 19.712 2.475 39.509 7.253 58.795 0.811 3.107 1.276 6.675 1.276 10.351 0 15.701-8.489 29.419-21.128 36.814l-0.202 0.109-47.915 27.733 42.581 73.771 48.853-28.245c6.11-3.596 13.459-5.72 21.305-5.72 11.404 0 21.76 4.488 29.399 11.794l-0.016-0.015c27.97 26.641 62.040 47.144 99.883 59.187l1.834 0.504c17.627 5.505 30.2 21.678 30.208 40.788v55.468h85.333v-55.467c0.008-19.112 12.581-35.285 29.906-40.708l0.302-0.082c39.672-12.565 73.739-33.065 101.825-59.793l-0.108 0.102c7.632-7.279 17.991-11.758 29.395-11.758 7.839 0 15.184 2.116 21.494 5.808l-0.202-0.109 48.811 28.203 42.667-73.771-47.957-27.691c-12.837-7.516-21.323-21.239-21.323-36.944 0-3.669 0.463-7.229 1.334-10.626l-0.064 0.296c4.779-19.285 7.253-39.083 7.253-58.795 0-19.669-2.475-39.467-7.296-58.795-0.803-3.095-1.264-6.648-1.264-10.309 0-15.72 8.502-29.455 21.158-36.857l0.202-0.109 47.915-27.691-42.581-73.771-48.853 28.203c-6.11 3.602-13.462 5.73-21.312 5.73-11.404 0-21.759-4.492-29.392-11.803l0.015 0.015c-27.97-26.641-62.040-47.144-99.883-59.187l-1.834-0.504c-17.627-5.505-30.2-21.678-30.208-40.788v-0.001l0.085-55.467h-85.419v55.467c-0.008 19.112-12.581 35.285-29.906 40.708l-0.302 0.082c-39.672 12.565-73.739 33.065-101.825 59.793l0.108-0.102c-7.594 7.305-17.934 11.804-29.324 11.804-7.874 0-15.246-2.15-21.56-5.895l0.196 0.107-48.811-28.245-42.667 73.771 47.957 27.776c12.858 7.511 21.36 21.246 21.36 36.966 0 3.661-0.461 7.214-1.328 10.604l0.064-0.295z"/>
</svg>
