<svg xmlns="http://www.w3.org/2000/svg" viewBox="0 0 1024 1024">
  <path fill="currentColor" transform="scale(1,-1) translate(0,-960)" d="M87.893 312.32c3.062-10.976 10.102-19.96 19.429-25.492l0.197-0.108 81.493-47.36v-93.867c0-23.564 19.103-42.667 42.667-42.667v0h93.867l47.36-81.493c7.472-12.771 21.083-21.236 36.679-21.333h0.014c8.029 0.002 15.54 2.222 21.953 6.081l-0.193-0.107 81.067 46.933 81.493-46.933c6.176-3.68 13.62-5.855 21.572-5.855 15.661 0 29.352 8.438 36.773 21.016l0.109 0.199 46.933 81.493h93.867c23.564 0 42.667 19.103 42.667 42.667v0 93.867l81.493 47.36c12.853 7.512 21.35 21.244 21.35 36.96 0 7.747-2.064 15.011-5.673 21.273l0.11-0.207-47.36 81.92 47.36 81.493c3.499 6.055 5.563 13.32 5.563 21.067 0 15.716-8.497 29.448-21.148 36.851l-0.202 0.109-81.493 46.933v93.867c0 23.564-19.103 42.667-42.667 42.667v0h-93.867l-46.933 81.493c-5.734 9.604-14.881 16.665-25.729 19.559l-0.298 0.068c-3.321 0.928-7.134 1.462-11.072 1.462-7.863 0-15.23-2.127-21.555-5.837l0.201 0.109-81.92-46.933-81.067 46.933c-6.1 3.565-13.431 5.67-21.253 5.67-15.586 0-29.22-8.357-36.666-20.835l-0.108-0.195-47.36-81.493h-93.867c-23.564 0-42.667-19.103-42.667-42.667v0-93.867l-81.067-46.933c-12.956-7.488-21.534-21.275-21.534-37.066 0-7.877 2.134-15.255 5.856-21.588l-0.109 0.2 46.933-81.067-46.933-81.493c-3.65-6.157-5.808-13.572-5.808-21.491 0-4.044 0.563-7.956 1.614-11.663l-0.073 0.301zM225.28 447.574l-37.973 64.427 66.133 38.4c12.601 7.568 20.904 21.161 20.907 36.693v0 77.227h75.947c0.050 0 0.11 0 0.169 0 15.71 0 29.436 8.49 36.842 21.132l0.109 0.201 39.253 65.707 65.707-37.973c6.12-3.594 13.479-5.716 21.333-5.716s15.214 2.123 21.535 5.825l-0.201-0.109 66.133 37.973 38.827-65.707c7.514-12.844 21.241-21.334 36.951-21.334 0.060 0 0.119 0 0.179 0h75.511v-75.947c0.097-15.61 8.562-29.222 21.132-36.584l0.201-0.109 65.707-38.4-37.973-65.707c-3.594-6.12-5.716-13.479-5.716-21.333s2.123-15.214 5.825-21.535l-0.109 0.201 37.973-65.707-65.707-38.4c-12.771-7.472-21.236-21.083-21.333-36.679v-75.961h-78.080c-15.61-0.097-29.222-8.562-36.584-21.132l-0.109-0.201-37.973-65.707-66.133 37.973c-6.12 3.594-13.479 5.716-21.333 5.716s-15.214-2.123-21.535-5.825l0.201 0.109-64.427-37.973-37.973 65.707c-7.514 12.844-21.241 21.334-36.951 21.334-0.060 0-0.119 0-0.179 0h-77.218v75.947c-0.773 14.708-8.883 27.364-20.713 34.452l-0.194 0.108-66.133 38.4 37.973 65.707c3.988 6.369 6.353 14.109 6.353 22.4s-2.365 16.031-6.458 22.579l0.105-0.179z"/>
</svg>
