<svg xmlns="http://www.w3.org/2000/svg" viewBox="0 0 1024 1024">
  <path fill="currentColor" transform="scale(1,-1) translate(0,-960)" d="M853.333 213.334v426.667c0 92.501-156.288 170.667-341.333 170.667s-341.333-78.165-341.333-170.667v-426.667c0-92.501 156.288-170.667 341.333-170.667s341.333 78.165 341.333 170.667zM512 725.334c157.483 0 253.056-64.299 256-85.077-2.944-21.291-98.517-85.589-256-85.589s-253.056 64.299-256 85.077c2.944 21.291 98.517 85.589 256 85.589zM256 528.768c63.104-36.139 155.179-59.435 256-59.435s192.896 23.296 256 59.435v-101.845c-2.944-21.291-98.517-85.589-256-85.589s-253.056 64.299-256 85.333v102.101zM256 213.334v102.101c63.104-36.139 155.179-59.435 256-59.435s192.896 23.296 256 59.435v-101.845c-2.944-21.291-98.517-85.589-256-85.589s-253.056 64.299-256 85.333z"/>
</svg>
