<svg xmlns="http://www.w3.org/2000/svg" viewBox="0 0 1024 1024">
  <path fill="currentColor" transform="scale(1,-1) translate(0,-960)" d="M896 725.334h-768c-23.564 0-42.667-19.103-42.667-42.667v0-170.667h38.101c42.496 0 81.92-29.056 88.747-70.997 0.767-4.297 1.205-9.244 1.205-14.293 0-47.152-38.224-85.376-85.376-85.376-0.004 0-0.007 0-0.011 0h-42.666v-170.667c0-23.564 19.103-42.667 42.667-42.667v0h768c23.564 0 42.667 19.103 42.667 42.667v0 170.667h-42.667c-0.003 0-0.007 0-0.010 0-47.152 0-85.376 38.224-85.376 85.376 0 5.049 0.438 9.996 1.279 14.805l-0.074-0.511c6.827 41.941 46.251 70.997 88.747 70.997h38.101v170.667c0 23.564-19.103 42.667-42.667 42.667v0zM384 554.667c23.564 0 42.667-19.103 42.667-42.667s-19.103-42.667-42.667-42.667v0c-23.564 0-42.667 19.103-42.667 42.667s19.103 42.667 42.667 42.667v0zM349.867 281.6l256 341.333 68.267-51.2-256-341.333-68.267 51.2zM640 298.667c-23.564 0-42.667 19.103-42.667 42.667s19.103 42.667 42.667 42.667v0c23.564 0 42.667-19.103 42.667-42.667s-19.103-42.667-42.667-42.667v0z"/>
</svg>
