<svg xmlns="http://www.w3.org/2000/svg" viewBox="0 0 1024 1024">
  <path fill="currentColor" transform="scale(1,-1) translate(0,-960)" d="M512 853.334c-235.641 0-426.667-191.025-426.667-426.667s191.025-426.667 426.667-426.667c235.641 0 426.667 191.025 426.667 426.667v0c0 235.641-191.025 426.667-426.667 426.667v0zM512 85.334c-188.513 0-341.333 152.82-341.333 341.333s152.82 341.333 341.333 341.333c188.513 0 341.333-152.82 341.333-341.333v0c0-188.513-152.82-341.333-341.333-341.333v0zM512 469.334c-85.333 0-85.333 26.88-85.333 42.667s29.867 42.667 85.333 42.667 59.307-27.307 59.733-42.667h85.333c-1.24 60.583-44.385 110.74-101.567 122.734l-0.833 0.146v47.787h-85.333v-46.507c-85.333-14.080-128-69.12-128-124.16 0-47.787 22.187-128 170.667-128 85.333 0 85.333-29.013 85.333-42.667s-26.453-42.667-85.333-42.667c-78.507 0-85.333 36.693-85.333 42.667h-85.333c0-39.253 28.16-108.8 128-124.587v-46.080h85.333v46.080c85.333 14.507 128 69.547 128 124.587 0 47.787-22.187 128-170.667 128z"/>
</svg>
