<svg xmlns="http://www.w3.org/2000/svg" viewBox="0 0 1024 1024">
  <path fill="currentColor" transform="scale(1,-1) translate(0,-960)" d="M170.667 42.667h410.453c0.027 0 0.059 0 0.091 0 51.708 0 98.039 23.024 129.299 59.38l0.189 0.225 217.685 253.952c6.399 7.419 10.296 17.152 10.296 27.796 0 18.73-12.069 34.642-28.855 40.382l-0.3 0.089-83.968 27.989c-11.986 4.032-25.789 6.359-40.135 6.359-30.445 0-58.442-10.479-80.582-28.027l0.27 0.206-135.893-108.672-26.325 52.693c-28.424 56.334-85.827 94.294-152.097 94.294-0.199 0-0.397 0-0.595-0.001h-219.532c-47.061 0-85.333-38.272-85.333-85.333v-256c0-47.061 38.272-85.333 85.333-85.333zM170.667 384h219.563c32.555 0 61.781-18.048 76.331-47.147l19.072-38.187h-186.965v-85.333h256.597c6.901 0.094 13.379 1.819 19.093 4.805l-0.234-0.112 0.128 0.043 0.171 0.085h0.128l0.085 0.043h0.171l0.043 0.043c0.384-0.128 0.128 0.043 0.128 0.043 0.427 0 0.085 0.043 0.085 0.043h0.043l0.085 0.043 0.128 0.043 0.171 0.085 0.128 0.043 0.085 0.043c0.128 0 0.043 0.043 0.085 0.043l0.128 0.085 0.171 0.085 0.128 0.043 0.085 0.043h0.043l0.085 0.043h0.043l0.171 0.085c0.384 0.043 0.128 0.043 0.128 0.043l0.085 0.043c1.78 1.082 3.313 2.18 4.757 3.38l-0.064-0.052 176.896 141.525c11.179 8.875 26.581 11.648 40.107 7.125l23.765-7.936-176.341-205.781c-15.917-18.011-39.061-29.319-64.847-29.355h-410.459v256zM682.667 853.334h-0.725c-6.955-0.085-42.923-1.664-84.608-30.080-40.576 27.648-75.691 29.867-83.968 30.037l-1.28 0.043h-0.171c-34.176 0-66.347-13.355-90.411-37.461-24.149-24.192-37.504-56.32-37.504-90.539s13.355-66.347 36.736-89.771l145.664-153.003c7.819-8.109 18.778-13.144 30.913-13.144 12.156 0 23.131 5.053 30.941 13.173l0.013 0.014 144.896 152.235c24.192 24.149 37.504 56.277 37.504 90.496s-13.355 66.347-37.461 90.496c-23.022 23.166-54.904 37.504-90.134 37.504-0.112 0-0.225 0-0.337 0h-0.068zM725.333 725.334c0-11.392-4.437-22.101-13.269-30.933l-114.731-120.533-115.499 121.301c-8.064 8.064-12.501 18.773-12.501 30.165s4.437 22.101 12.544 30.208c7.454 7.578 17.773 12.317 29.2 12.458h0.027c1.067-0.043 21.419-1.365 45.525-20.693 3.456-2.773 6.955-5.931 10.539-9.472l30.165-30.165 30.165 30.165c3.584 3.541 7.083 6.699 10.539 9.472 22.571 18.133 41.643 20.395 44.885 20.651 0.002 0 0.005 0 0.008 0 11.691 0 22.269-4.764 29.899-12.456l0.003-0.003c8.064-8.064 12.501-18.773 12.501-30.165z"/>
</svg>
