<svg xmlns="http://www.w3.org/2000/svg" viewBox="0 0 1024 1024">
  <path fill="currentColor" transform="scale(1,-1) translate(0,-960)" d="M760.021 774.912c-15.652 21.735-40.877 35.728-69.372 35.755h-357.295c-27.477 0-53.419-13.355-71.125-38.357l-170.667-280.789c-3.903-6.314-6.215-13.969-6.215-22.163 0-10.987 4.157-21.004 10.984-28.562l-0.033 0.037 384-426.667c7.811-8.753 19.125-14.238 31.72-14.238 12.575 0 23.873 5.467 31.647 14.155l0.036 0.041 384 426.667c6.806 7.512 10.972 17.527 10.972 28.515 0 8.201-2.321 15.86-6.341 22.356l0.105-0.182-172.416 283.435zM512 106.454l-288.213 320.213h576.384l-288.171-320.213zM203.819 512l129.536 213.333 355.499 2.645 131.285-215.979h-616.32z"/>
</svg>
