<svg xmlns="http://www.w3.org/2000/svg" viewBox="0 0 1024 1024">
  <path fill="currentColor" transform="scale(1,-1) translate(0,-960)" d="M682.624 576h85.333c0 121.045-117.547 176.256-213.333 188.971v88.363h-85.333v-88.363c-95.787-12.715-213.333-67.925-213.333-188.971 0-115.456 113.749-175.488 213.333-189.013v-212.053c-61.781 10.709-128 43.691-128 102.4h-85.333c0-110.464 103.467-175.744 213.333-189.269v-88.064h85.333v88.32c95.787 12.715 213.333 67.968 213.333 189.013s-117.547 176.256-213.333 188.971v212.096c56.747-10.197 128-40.149 128-102.4zM341.291 576c0 62.251 71.253 92.203 128 102.4v-204.757c-58.496 10.795-128 42.752-128 102.357zM682.624 277.334c0-62.251-71.253-92.203-128-102.4v204.8c56.747-10.197 128-40.149 128-102.4z"/>
</svg>
