<svg xmlns="http://www.w3.org/2000/svg" viewBox="0 0 1024 1024">
  <path fill="currentColor" transform="scale(1,-1) translate(0,-960)" d="M810.667 512v128c0 47.061-38.272 85.333-85.333 85.333h-128c0 70.571-57.429 128-128 128s-128-57.429-128-128h-128c-47.061 0-85.333-38.272-85.333-85.333v-165.589l28.117-10.197c34.219-12.373 57.216-44.629 57.216-80.213s-22.997-67.84-57.216-80.213l-28.117-10.197v-165.589c0-47.061 38.272-85.333 85.333-85.333h165.589l10.197 28.117c12.373 34.219 44.629 57.216 80.213 57.216s67.84-22.997 80.213-57.216l10.197-28.117h165.589c47.061 0 85.333 38.272 85.333 85.333v128c70.571 0 128 57.429 128 128s-57.429 128-128 128zM810.667 341.334h-85.333l-0.128-213.333h-108.587c-30.336 52.053-86.272 85.333-147.285 85.333s-116.949-33.28-147.285-85.333h-108.715v108.715c52.053 30.336 85.333 86.272 85.333 147.285s-33.28 116.949-85.333 147.285v108.715h213.333v85.333c0 23.564 19.103 42.667 42.667 42.667s42.667-19.103 42.667-42.667v0-85.333h213.333v-213.333h85.333c23.564 0 42.667-19.103 42.667-42.667s-19.103-42.667-42.667-42.667v0z"/>
</svg>
