<svg xmlns="http://www.w3.org/2000/svg" viewBox="0 0 1024 1024">
  <path fill="currentColor" transform="scale(1,-1) translate(0,-960)" d="M896 810.667h-682.667c-23.564 0-42.667-19.103-42.667-42.667v0-110.507c0-22.315 9.088-44.245 24.875-60.032l231.125-231.125v-323.669c0.028-23.567 19.139-42.66 42.709-42.66 6.934 0 13.483 1.653 19.273 4.586l-0.244-0.112 170.667 85.333c14.464 7.253 23.595 22.016 23.595 38.187v238.336l231.125 231.125c15.787 15.787 24.875 37.717 24.875 60.032v110.507c0 23.564-19.103 42.667-42.667 42.667v0zM609.835 414.166c-7.723-7.696-12.501-18.342-12.501-30.104 0-0.022 0-0.043 0-0.065v0.003-229.632l-85.333-42.667v272.299c0 0.018 0 0.040 0 0.062 0 11.762-4.779 22.408-12.5 30.102l-243.5 243.329v67.84h597.376l0.085-67.541-243.627-243.627z"/>
</svg>
