<svg xmlns="http://www.w3.org/2000/svg" viewBox="0 0 1024 1024">
  <path fill="currentColor" transform="scale(1,-1) translate(0,-960)" d="M584.832 840.832c-7.696 7.723-18.342 12.501-30.104 12.501-0.022 0-0.043 0-0.065 0h-298.664c-47.061 0-85.333-38.272-85.333-85.333v-682.667c0-47.061 38.272-85.333 85.333-85.333h512c47.061 0 85.333 38.272 85.333 85.333v469.333c0 0.018 0 0.040 0 0.062 0 11.762-4.779 22.408-12.5 30.102l-256.001 256.001zM256 768h281.003l230.997-230.997 0.085-391.424-109.568 109.568c14.933 25.387 24.149 54.656 24.149 86.187 0 94.123-76.544 170.667-170.667 170.667s-170.667-76.544-170.667-170.667 76.544-170.667 170.667-170.667c31.531 0 60.8 9.216 86.187 24.149l109.483-109.483h-451.669v682.667zM512 256c-47.061 0-85.333 38.272-85.333 85.333s38.272 85.333 85.333 85.333 85.333-38.272 85.333-85.333-38.272-85.333-85.333-85.333z"/>
</svg>
