<svg xmlns="http://www.w3.org/2000/svg" viewBox="0 0 20 20" fill="currentColor">
<g transform="translate(3, 1)"><path d="M13.98 4.37a.51.51 0 0 0-.12-.23l-4-4a.51.51 0 0 0-.23-.12L9.57 0H3.5C1.57 0 0 1.57 0 3.5v11C0 16.43 1.57 18 3.5 18h7c1.93 0 3.5-1.57 3.5-3.5v-10l-.01-.06-.01-.06zM10.51 17H3.51A2.51 2.51 0 0 1 1 14.5V3.5A2.51 2.51 0 0 1 3.51 1H9v2a2 2 0 0 0 2 2h2v9.5a2.51 2.51 0 0 1-2.49 2.5z"/><path d="M10.51 7h-7a.5.5 0 0 0 0 1h7a.5.5 0 0 0 0-1zm0 3h-7a.5.5 0 0 0 0 1h7a.5.5 0 0 0 0-1zm0 3h-7a.5.5 0 0 0 0 1h7a.5.5 0 0 0 0-1zm-7-8h3a.5.5 0 0 0 0-1h-3a.5.5 0 0 0 0 1z"/></g>
</svg>