<svg xmlns="http://www.w3.org/2000/svg" viewBox="0 0 1024 1024">
  <path fill="currentColor" transform="scale(1,-1) translate(0,-960)" d="M849.195 572.331c-2.14 4.832-4.953 8.969-8.375 12.514l-255.988 255.988c-3.532 3.41-7.67 6.222-12.231 8.255l-0.27 0.108c-1.28 0.597-2.645 0.939-4.011 1.408-3.253 1.147-7.019 1.924-10.929 2.17l-0.122 0.006c-0.896 0.085-1.707 0.555-2.603 0.555h-298.667c-47.061 0-85.333-38.272-85.333-85.333v-682.667c0-47.061 38.272-85.333 85.333-85.333h512c47.061 0 85.333 38.272 85.333 85.333v469.333c0 0.896-0.469 1.707-0.555 2.645-0.229 4.025-1.008 7.793-2.264 11.335l0.088-0.284c-0.427 1.365-0.811 2.688-1.408 3.968zM707.669 597.334h-110.336v110.336l110.336-110.336zM256 85.334v682.667h256v-213.333c0-23.564 19.103-42.667 42.667-42.667v0h213.333l0.085-426.667h-512.085zM341.333 426.667h341.333v-85.333h-341.333zM341.333 256h341.333v-85.333h-341.333zM341.333 597.334h85.333v-85.333h-85.333z"/>
</svg>
