<svg xmlns="http://www.w3.org/2000/svg" viewBox="0 0 1024 1024">
  <path fill="currentColor" transform="scale(1,-1) translate(0,-960)" d="M853.333 640h-51.584c5.675 18.141 8.944 39.001 8.944 60.624 0 1.187-0.010 2.372-0.029 3.555l0.002-0.178c0 82.347-66.987 149.333-149.333 149.333-69.205 0-115.413-63.232-145.237-131.627-29.397 64.64-77.952 131.627-153.429 131.627-82.347 0-149.333-66.987-149.333-149.333 0-25.429 3.371-46.464 8.917-64h-51.584c-47.061 0-85.333-38.272-85.333-85.333v-85.333c0-47.061 38.272-85.333 85.333-85.333v-298.667c0-47.061 38.272-85.333 85.333-85.333h512c47.061 0 85.333 38.272 85.333 85.333v298.667c47.061 0 85.333 38.272 85.333 85.333v85.333c0 47.061-38.272 85.333-85.333 85.333zM661.333 768c35.285 0 64-28.715 64-64 0-64-26.709-64-42.667-64h-105.728c21.803 67.243 53.461 128 84.395 128zM298.667 704c0 35.285 28.715 64 64 64 37.888 0 73.131-65.067 93.781-128h-115.115c-15.957 0-42.667 0-42.667 64zM170.667 554.667h298.667v-85.333h-298.667v85.333zM256 85.334v298.667h213.333v-298.667h-213.333zM768 85.334h-213.333v298.667h213.333v-298.667zM554.667 469.334v81.707l0.725 3.627h297.941l0.043-85.333h-298.709z"/>
</svg>
