<svg xmlns="http://www.w3.org/2000/svg" viewBox="0 0 1024 1024">
  <path fill="currentColor" transform="scale(1,-1) translate(0,-960)" d="M512 853.334c-235.264 0-426.667-191.403-426.667-426.667s191.403-426.667 426.667-426.667 426.667 191.403 426.667 426.667-191.403 426.667-426.667 426.667zM850.389 469.334h-117.931c-5.71 98.525-33.356 189.453-78.086 269.542l1.628-3.174c104.48-49.651 178.811-147.854 194.203-264.634l0.187-1.734zM534.613 766.848c44.16-58.197 103.552-161.28 112.085-297.515h-261.419c5.931 110.763 42.411 214.528 104.576 297.557 7.339 0.427 14.677 1.109 22.144 1.109 7.637 0 15.104-0.683 22.613-1.152zM370.688 736.982c-41.984-80.683-66.219-172.16-70.741-267.648h-126.336c15.698 119.534 91.184 218.437 194.972 266.768l2.106 0.88zM173.611 384h126.891c5.803-101.504 28.373-191.061 66.389-265.813-103.906 49.806-177.769 147.72-193.094 264.081l-0.186 1.733zM488.533 86.486c-59.776 72.448-95.061 173.952-102.784 297.515h260.821c-8.875-118.315-47.659-221.696-111.061-297.472-7.765-0.512-15.531-1.195-23.509-1.195-7.936 0-15.659 0.683-23.467 1.152zM659.669 119.424c40.747 76.544 65.621 166.443 72.149 264.576h118.528c-15.341-117.131-88.11-214.392-188.664-263.685l-2.013-0.891z"/>
</svg>
