<svg xmlns="http://www.w3.org/2000/svg" viewBox="0 0 1024 1024">
  <path fill="currentColor" transform="scale(1,-1) translate(0,-960)" d="M106.667 149.334c0-82.347 66.987-149.333 149.333-149.333s149.333 66.987 149.333 149.333c0 67.413-45.227 123.861-106.667 142.379v148.821c10.411-11.648 21.717-22.485 34.688-31.744 50.347-36.011 111.659-46.848 167.168-46.848 41.216 0 79.061 5.973 106.923 11.989 21.861-56.813 75.909-96.437 139.239-96.64h0.025c82.347 0 149.333 66.987 149.333 149.333s-66.987 149.333-149.333 149.333c-70.512-0.156-129.534-49.158-145.036-114.956l-0.201-1.012c-55.339-13.696-156.331-26.283-218.411 18.176-28.416 20.352-46.507 52.864-55.723 95.403 46.208 25.472 77.995 74.069 77.995 130.432 0 82.347-66.987 149.333-149.333 149.333s-149.333-66.987-149.333-149.333c0-67.413 45.227-123.861 106.667-142.379v-269.909c-61.44-18.517-106.667-74.965-106.667-142.379zM746.667 490.667c35.285 0 64-28.715 64-64s-28.715-64-64-64-64 28.715-64 64 28.715 64 64 64zM320 149.334c0-35.285-28.715-64-64-64s-64 28.715-64 64 28.715 64 64 64 64-28.715 64-64zM192 704c0 35.285 28.715 64 64 64s64-28.715 64-64-28.715-64-64-64-64 28.715-64 64z"/>
</svg>
