<svg xmlns="http://www.w3.org/2000/svg" viewBox="0 0 1024 1024">
  <path fill="currentColor" transform="scale(1,-1) translate(0,-960)" d="M708.437 467.286c20.909 35.049 33.27 77.299 33.27 122.436 0 8.571-0.446 17.039-1.315 25.38l0.088-1.042c-7.637 76.117-50.133 143.403-119.595 189.44l-47.147-71.083c47.744-31.659 76.8-76.757 81.835-126.891 0.494-4.685 0.776-10.12 0.776-15.622 0-43.692-17.783-83.231-46.507-111.773l-50.867-50.867 69.035-20.267c180.565-52.907 182.656-234.496 182.656-236.331h85.333c0 76.331-40.789 225.493-187.563 296.619zM405.333 426.667c94.123 0 170.667 76.544 170.667 170.667s-76.544 170.667-170.667 170.667-170.667-76.544-170.667-170.667 76.544-170.667 170.667-170.667zM405.333 682.667c47.061 0 85.333-38.272 85.333-85.333s-38.272-85.333-85.333-85.333-85.333 38.272-85.333 85.333 38.272 85.333 85.333 85.333zM469.333 384h-128c-141.184 0-256-114.816-256-256v-42.667h85.333v42.667c0 94.123 76.544 170.667 170.667 170.667h128c94.123 0 170.667-76.544 170.667-170.667v-42.667h85.333v42.667c0 141.184-114.816 256-256 256z"/>
</svg>
