<svg xmlns="http://www.w3.org/2000/svg" viewBox="0 0 1024 1024">
  <path fill="currentColor" transform="scale(1,-1) translate(0,-960)" d="M426.667 810.667h-256c-23.564 0-42.667-19.103-42.667-42.667v0-256c0-23.564 19.103-42.667 42.667-42.667v0h256c23.564 0 42.667 19.103 42.667 42.667v0 256c0 23.564-19.103 42.667-42.667 42.667v0zM384 554.667h-170.667v170.667h170.667v-170.667zM597.333 469.334h256c23.564 0 42.667 19.103 42.667 42.667v0 256c0 23.564-19.103 42.667-42.667 42.667v0h-256c-23.564 0-42.667-19.103-42.667-42.667v0-256c0-23.564 19.103-42.667 42.667-42.667v0zM640 725.334h170.667v-170.667h-170.667v170.667zM128 85.334c0-23.564 19.103-42.667 42.667-42.667v0h256c23.564 0 42.667 19.103 42.667 42.667v0 256c0 23.564-19.103 42.667-42.667 42.667v0h-256c-23.564 0-42.667-19.103-42.667-42.667v0-256zM213.333 298.667h170.667v-170.667h-170.667v170.667zM554.667 85.334c0-23.564 19.103-42.667 42.667-42.667v0h256c23.564 0 42.667 19.103 42.667 42.667v0 256c0 23.564-19.103 42.667-42.667 42.667v0h-256c-23.564 0-42.667-19.103-42.667-42.667v0-256zM640 298.667h170.667v-170.667h-170.667v170.667z"/>
</svg>
