<svg xmlns="http://www.w3.org/2000/svg" viewBox="0 0 1024 1024">
  <path fill="currentColor" transform="scale(1,-1) translate(0,-960)" d="M237.184 560.854c7.083-50.475 33.664-136.832 131.712-174.037 100.437-38.187 100.437-68.267 100.437-88.149v-6.955c-61.44-18.517-106.667-74.965-106.667-142.379 0-82.347 66.987-149.333 149.333-149.333s149.333 66.987 149.333 149.333c0 67.413-45.227 123.861-106.667 142.379v6.955c0 19.883 0 49.963 100.437 88.107 98.048 37.205 124.629 123.563 131.712 174.037 62.763 17.707 109.184 74.837 109.184 143.189 0 82.347-66.987 149.333-149.333 149.333s-149.333-66.987-149.333-149.333c0-66.219 43.605-121.813 103.424-141.355-6.229-31.36-24.107-76.416-75.861-96.085-50.859-19.285-87.595-40.661-112.896-65.536-25.301 24.875-61.995 46.251-112.896 65.536-51.755 19.669-69.675 64.725-75.861 96.085 59.819 19.541 103.424 75.136 103.424 141.355 0 82.347-66.987 149.333-149.333 149.333s-149.333-66.987-149.333-149.333c0-68.352 46.421-125.483 109.184-143.147zM746.667 768c35.285 0 64-28.715 64-64s-28.715-64-64-64-64 28.715-64 64 28.715 64 64 64zM576 149.334c0-35.285-28.715-64-64-64s-64 28.715-64 64 28.715 64 64 64 64-28.715 64-64zM277.333 768c35.285 0 64-28.715 64-64s-28.715-64-64-64-64 28.715-64 64 28.715 64 64 64z"/>
</svg>
