<svg xmlns="http://www.w3.org/2000/svg" viewBox="0 0 1024 1024">
  <path fill="currentColor" transform="scale(1,-1) translate(0,-960)" d="M256.427 853.334c-82.347 0-149.333-66.987-149.333-149.333 0-67.413 45.227-123.861 106.667-142.379v-305.493c-0.043-7.637 1.152-75.989 50.091-125.056 30.208-30.379 70.656-45.739 120.149-45.739v-85.333l170.667 128-170.667 128v-85.333c-77.781 0-84.651 65.451-84.907 85.333v305.621c61.44 18.517 106.667 74.965 106.667 142.379 0 82.347-67.029 149.333-149.333 149.333zM256.427 640c-35.285 0-64 28.715-64 64s28.715 64 64 64 64-28.715 64-64-28.715-64-64-64zM811.093 291.712v305.749c-0.213 68.523-45.952 170.539-171.093 170.539v85.333l-170.667-128 170.667-128v85.333c78.037 0 85.376-65.664 85.76-85.333v-305.621c-61.44-18.517-106.667-74.965-106.667-142.379 0-82.347 66.987-149.333 149.333-149.333s149.333 66.987 149.333 149.333c0 67.413-45.227 123.861-106.667 142.379zM768.427 85.334c-35.285 0-64 28.715-64 64s28.715 64 64 64 64-28.715 64-64-28.715-64-64-64z"/>
</svg>
