<svg xmlns="http://www.w3.org/2000/svg" viewBox="0 0 1024 1024">
  <path fill="currentColor" transform="scale(1,-1) translate(0,-960)" d="M746.667 768c-82.347 0-149.333-66.987-149.333-149.333 0-66.304 43.733-121.984 103.68-141.44-6.229-39.765-23.339-72.533-52.48-99.115-83.029-75.648-235.819-82.56-307.2-81.365v264.875c61.44 18.517 106.667 74.965 106.667 142.379 0 82.347-66.987 149.333-149.333 149.333s-149.333-66.987-149.333-149.333c0-67.413 45.227-123.861 106.667-142.379v-269.909c-61.44-18.517-106.667-74.965-106.667-142.379 0-82.347 66.987-149.333 149.333-149.333s149.333 66.987 149.333 149.333c0 23.509-5.973 45.44-15.659 65.237 87.893 7.936 198.699 32.299 273.451 100.267 46.805 42.539 73.856 96.597 81.237 160.768 62.677 17.707 108.971 74.795 108.971 143.061 0 82.347-66.987 149.333-149.333 149.333zM234.667 704c0 35.285 28.715 64 64 64s64-28.715 64-64-28.715-64-64-64-64 28.715-64 64zM298.667 85.334c-35.285 0-64 28.715-64 64 0.046 35.042 28.246 63.481 63.191 63.914h0.041l5.547-0.427c34.186-1.321 61.399-29.355 61.399-63.744 0-35.23-28.559-63.789-63.789-63.789-0.84 0-1.677 0.016-2.509 0.048l0.12-0.004zM746.667 554.667c-35.285 0-64 28.715-64 64s28.715 64 64 64 64-28.715 64-64-28.715-64-64-64z"/>
</svg>
