<svg xmlns="http://www.w3.org/2000/svg" viewBox="0 0 1024 1024">
  <path fill="currentColor" transform="scale(1,-1) translate(0,-960)" d="M512 853.334c-235.264 0-426.667-191.403-426.667-426.667s191.403-426.667 426.667-426.667 426.667 191.403 426.667 426.667-191.403 426.667-426.667 426.667zM512 85.334c-188.203 0-341.333 153.131-341.333 341.333s153.131 341.333 341.333 341.333 341.333-153.131 341.333-341.333-153.131-341.333-341.333-341.333zM426.667 490.667c0-35.346-28.654-64-64-64s-64 28.654-64 64c0 35.346 28.654 64 64 64s64-28.654 64-64zM724.736 490.966c0-35.181-28.52-63.701-63.701-63.701s-63.701 28.52-63.701 63.701c0 35.181 28.52 63.701 63.701 63.701s63.701-28.52 63.701-63.701zM512 170.667c170.667 0 213.333 170.667 213.333 170.667h-426.667s42.667-170.667 213.333-170.667z"/>
</svg>
