<svg xmlns="http://www.w3.org/2000/svg" viewBox="0 0 1024 1024">
  <path fill="currentColor" transform="scale(1,-1) translate(0,-960)" d="M523.904 561.792l-11.904-11.904-11.904 11.904c-21.244 21.502-50.731 34.818-83.328 34.818s-62.084-13.317-83.317-34.807l-0.011-0.012c-21.515-21.246-34.84-50.742-34.84-83.349s13.326-62.103 34.828-83.338l178.572-178.615 178.603 178.603c21.515 21.246 34.84 50.742 34.84 83.349s-13.326 62.103-34.828 83.338l-0.012 0.012c-21.251 21.504-50.745 34.822-83.349 34.822s-62.098-13.318-83.338-34.811l-0.011-0.011zM512 853.334c-235.264 0-426.667-191.403-426.667-426.667s191.403-426.667 426.667-426.667 426.667 191.403 426.667 426.667-191.403 426.667-426.667 426.667zM512 85.334c-188.203 0-341.333 153.131-341.333 341.333s153.131 341.333 341.333 341.333 341.333-153.131 341.333-341.333-153.131-341.333-341.333-341.333z"/>
</svg>
