<svg xmlns="http://www.w3.org/2000/svg" viewBox="0 0 1024 1024">
  <path fill="currentColor" transform="scale(1,-1) translate(0,-960)" d="M664.149 468.438c88.194 53.038 146.33 148.157 146.517 256.869v42.694h42.667v85.333h-682.667v-85.333h42.667v-42.667c0.187-108.739 58.324-203.858 145.168-256.143l1.349-0.753c15.104-8.875 24.149-23.253 24.149-38.4v-6.741c0-15.104-9.045-29.44-24.149-38.4-88.194-53.038-146.33-148.157-146.517-256.869v-42.694h-42.667v-85.333h682.667v85.333h-42.667v42.667c-0.176 108.72-58.298 203.825-145.126 256.1l-1.349 0.753c-15.147 8.96-24.192 23.339-24.192 38.443v6.741c0 15.147 9.045 29.525 24.149 38.4zM620.843 311.382c62.918-37.881 104.381-105.777 104.491-183.365v-42.683h-426.667v42.667c0.121 77.624 41.598 145.533 103.572 182.886l0.961 0.538c41.429 24.448 66.133 66.304 66.133 111.872v6.741c0 45.611-24.747 87.509-66.176 111.915-62.918 37.881-104.381 105.777-104.491 183.365v42.683h426.667v-42.667c0-75.093-40.021-145.323-104.491-183.381-41.429-24.405-66.176-66.304-66.176-111.915v-6.741c0-45.568 24.704-87.424 66.176-111.915z"/>
</svg>
