<svg xmlns="http://www.w3.org/2000/svg" viewBox="0 0 1024 1024">
  <path fill="currentColor" transform="scale(1,-1) translate(0,-960)" d="M512 742.614c-44.704 41.206-104.649 66.473-170.496 66.475v0c-70.287-0.076-133.863-28.741-179.738-74.991l-0.017-0.017c-100.395-100.821-100.352-258.517 0.085-358.912l312.832-312.832c7.253-12.757 21.248-20.992 37.333-20.992 13.86 0.139 26.104 6.932 33.709 17.331l0.083 0.119 316.373 316.373c100.437 100.437 100.437 258.091-0.085 359.083-45.866 46.18-109.379 74.782-179.573 74.837h-0.011c-65.846-0.011-125.788-25.275-170.672-66.635l0.176 0.16zM801.749 673.92c66.688-67.029 66.731-171.733 0.085-238.421l-289.835-289.835-289.835 289.835c-66.645 66.688-66.603 171.392-0.085 238.251 32.427 32.256 74.837 50.005 119.424 50.005s86.827-17.749 118.997-49.92l21.333-21.333c7.716-7.729 18.382-12.51 30.165-12.51s22.449 4.781 30.165 12.509l21.334 21.334c64.512 64.384 173.824 64.213 238.251 0.085z"/>
</svg>
