<svg xmlns="http://www.w3.org/2000/svg" viewBox="0 0 1024 1024">
  <path fill="currentColor" transform="scale(1,-1) translate(0,-960)" d="M414.507 426.667c49.109 0 85.333 36.224 85.333 85.333s-36.224 85.333-85.333 85.333-85.333-36.224-85.333-85.333 36.181-85.333 85.333-85.333zM853.333 768h-682.667c-47.061 0-85.333-35.883-85.333-80v-522.667c0-44.117 38.272-80 85.333-80h682.667c47.061 0 85.333 35.883 85.333 80v522.667c0 44.117-38.272 80-85.333 80zM853.333 170.667l-682.667 0.469v511.531l682.667-0.469v-511.531zM597.333 554.667h170.667v-85.333h-170.667zM640 384h128v-85.333h-128zM573.013 275.798c0 58.624-71.509 118.869-158.507 118.869s-158.507-60.245-158.507-118.869v-19.797h317.013v19.797z"/>
</svg>
