<svg xmlns="http://www.w3.org/2000/svg" viewBox="0 0 1024 1024">
  <path fill="currentColor" transform="scale(1,-1) translate(0,-960)" d="M853.333 597.334h-239.445l47.915 143.659c8.619 25.941 4.267 54.699-11.733 76.885s-41.941 35.456-69.291 35.456h-68.779c-12.672 0-24.661-5.632-32.811-15.36l-200.533-240.64h-107.989c-47.061 0-85.333-38.272-85.333-85.333v-384c0-47.061 38.272-85.333 85.333-85.333h567.765c36.332 0.124 67.332 22.822 79.715 54.796l0.199 0.585 117.632 313.643c1.702 4.428 2.688 9.551 2.688 14.905 0 0.025 0 0.050 0 0.075v-0.004 85.333c0 47.061-38.272 85.333-85.333 85.333zM170.667 512h85.333v-384h-85.333v384zM853.333 434.39l-114.901-306.389h-397.099v411.221l190.635 228.779h48.896l-66.645-199.808c-1.416-4.060-2.234-8.74-2.234-13.611 0-23.517 19.064-42.581 42.581-42.581 0.035 0 0.071 0 0.106 0h298.662v-77.611z"/>
</svg>
