<svg xmlns="http://www.w3.org/2000/svg" viewBox="0 0 1024 1024">
  <path fill="currentColor" transform="scale(1,-1) translate(0,-960)" d="M512 853.334c-117.632 0-213.333-95.701-213.333-213.333v-85.333h-42.667c-47.061 0-85.333-38.272-85.333-85.333v-384c0-47.061 38.272-85.333 85.333-85.333h512c47.061 0 85.333 38.272 85.333 85.333v384c0 47.061-38.272 85.333-85.333 85.333h-42.667v85.333c0 117.632-95.701 213.333-213.333 213.333zM384 640c0 70.571 57.429 128 128 128s128-57.429 128-128v-85.333h-256v85.333zM768.085 85.334h-213.419v97.195c25.387 14.805 42.667 42.027 42.667 73.472 0 47.061-38.272 85.333-85.333 85.333s-85.333-38.272-85.333-85.333c0-31.403 17.28-58.667 42.667-73.472v-97.195h-213.333v384h512l0.085-384z"/>
</svg>
