<svg xmlns="http://www.w3.org/2000/svg" viewBox="0 0 1024 1024">
  <path fill="currentColor" transform="scale(1,-1) translate(0,-960)" d="M810.667 810.667c-70.571 0-128-57.429-128-128 0-21.419 5.803-41.301 15.104-59.093l-47.616-55.552c-26.703 18.353-59.732 29.312-95.32 29.312-0.059 0-0.118 0-0.177 0h0.009c-31.531 0-60.8-9.216-86.187-24.149l-60.331 60.331c11.495 20.315 18.339 44.582 18.517 70.432v0.053c0 82.347-66.987 149.333-149.333 149.333s-149.333-66.987-149.333-149.333 66.987-149.333 149.333-149.333c25.643 0 49.408 7.083 70.485 18.517l60.331-60.331c-14.999-24.606-23.954-54.33-24.149-86.132v-0.055c0-42.539 16.213-81.024 42.027-110.976l-72.192-72.192 1.067-1.067c-16.367 8.444-35.703 13.444-56.195 13.568h-0.040c-70.571 0-128-57.429-128-128s57.429-128 128-128 128 57.429 128 128c0 20.309-5.163 39.211-13.568 56.235l1.067-1.067 83.371 83.371c17.963-6.4 36.992-10.539 57.131-10.539 94.123 0 170.667 76.544 170.667 170.667-0.199 27.846-7.103 54.034-19.174 77.090l0.444-0.93 53.461 62.379c15.531-6.741 32.597-10.539 50.603-10.539 70.571 0 128 57.429 128 128s-57.429 128-128 128zM298.667 85.334c-23.564 0-42.667 19.103-42.667 42.667s19.103 42.667 42.667 42.667v0c23.564 0 42.667-19.103 42.667-42.667s-19.103-42.667-42.667-42.667v0zM213.333 704c0 35.285 28.715 64 64 64s64-28.715 64-64-28.715-64-64-64-64 28.715-64 64zM554.667 341.334c-47.061 0-85.333 38.272-85.333 85.333s38.272 85.333 85.333 85.333 85.333-38.272 85.333-85.333-38.272-85.333-85.333-85.333zM810.667 640c-23.564 0-42.667 19.103-42.667 42.667s19.103 42.667 42.667 42.667v0c23.564 0 42.667-19.103 42.667-42.667s-19.103-42.667-42.667-42.667v0z"/>
</svg>
