<svg xmlns="http://www.w3.org/2000/svg" viewBox="0 0 1024 1024">
  <path fill="currentColor" transform="scale(1,-1) translate(0,-960)" d="M896 682.667c0-70.692-57.308-128-128-128s-128 57.308-128 128c0 70.692 57.308 128 128 128s128-57.308 128-128zM768 128h-554.667v554.667h341.333c0 30.379 6.528 59.179 18.005 85.333h-359.339c-47.061 0-85.333-38.272-85.333-85.333v-554.667c0-47.061 38.272-85.333 85.333-85.333h554.667c47.061 0 85.333 38.272 85.333 85.333v359.339c-25.112-11.362-54.447-17.99-85.328-18.005h-0.006v-341.333z"/>
</svg>
