<svg width="24" height="24" viewBox="0 0 24 24" fill="currentColor" xmlns="http://www.w3.org/2000/svg">
<path d="M14.86 11.3502L10.12 8.64017C9.62 8.35017 9 8.72017 9 9.29017V14.7102C9 15.2902 9.62 15.6502 10.12 15.3602L14.86 12.6502C15.36 12.3602 15.36 11.6402 14.86 11.3502Z"/>
<path d="M12.53 3.03009C12.24 3.00009 12.02 3.22009 12 3.50009C11.98 3.78009 12.19 4.01009 12.47 4.03009C16.69 4.28009 20 7.78009 20 12.0101C20 16.2401 16.69 19.7401 12.47 19.9901C12.19 20.0101 11.98 20.2401 12 20.5201C12.02 20.7901 12.24 20.9901 12.5 20.9901C12.5 20.9901 12.52 20.9901 12.53 20.9901C17.28 20.7101 21 16.7701 21 12.0201C21 7.27009 17.28 3.30009 12.53 3.03009Z"/>
<path d="M6.72999 5.84979C6.83999 5.84979 6.94999 5.80979 7.03999 5.73979C7.81999 5.11979 8.69999 4.65979 9.64999 4.36979C9.90999 4.28979 10.06 4.00979 9.97999 3.74979C9.89999 3.48979 9.61999 3.32979 9.35999 3.41979C8.28999 3.74979 7.29999 4.26979 6.41999 4.95979C6.19999 5.12979 6.16999 5.44979 6.33999 5.65979C6.43999 5.77979 6.58999 5.84979 6.72999 5.84979Z"/>
<path d="M5.01006 7.15014C4.77006 7.00014 4.47006 7.08014 4.32006 7.31014C3.73006 8.27014 3.34006 9.31014 3.14006 10.4101C3.09006 10.6801 3.27006 10.9401 3.54006 10.9901C3.57006 10.9901 3.60006 10.9901 3.63006 10.9901C3.87006 10.9901 4.08006 10.8201 4.12006 10.5801C4.29006 9.60014 4.65006 8.68014 5.17006 7.83014C5.31006 7.59014 5.24006 7.29014 5.00006 7.14014L5.01006 7.15014Z"/>
<path d="M9.64003 19.6298C8.69003 19.3398 7.81003 18.8698 7.03003 18.2598C6.81003 18.0898 6.50003 18.1298 6.33003 18.3398C6.16003 18.5598 6.20003 18.8698 6.41003 19.0398C7.29003 19.7398 8.28003 20.2598 9.34003 20.5898C9.39003 20.6098 9.44003 20.6098 9.49003 20.6098C9.70003 20.6098 9.90003 20.4698 9.97003 20.2598C10.05 19.9998 9.90003 19.7198 9.64003 19.6398V19.6298Z"/>
<path d="M4.11995 13.3999C4.06995 13.1299 3.80995 12.9399 3.53995 12.9899C3.26995 13.0399 3.08995 13.2999 3.12995 13.5699C3.31995 14.6699 3.71995 15.7099 4.30995 16.6699C4.39995 16.8199 4.56995 16.9099 4.73995 16.9099C4.82995 16.9099 4.91995 16.8899 4.99995 16.8399C5.23995 16.6999 5.30995 16.3899 5.16995 16.1499C4.64995 15.2999 4.29995 14.3699 4.12995 13.3999H4.11995Z"/>
</svg>
