<svg xmlns="http://www.w3.org/2000/svg" viewBox="0 0 1024 1024">
  <path fill="currentColor" transform="scale(1,-1) translate(0,-960)" d="M877.227 796.16c-6.779 4.744-15.197 7.58-24.277 7.58-6.685 0-13.011-1.537-18.643-4.278l0.253 0.111-725.333-341.333c-14.502-7.021-24.326-21.625-24.326-38.524 0-0.257 0.002-0.513 0.007-0.768l-0.001 0.038c0.293-17.112 10.615-31.743 25.328-38.292l0.272-0.108 230.827-101.12v-286.72l249.173 177.92 203.093-88.747c4.983-2.423 10.841-3.84 17.029-3.84 0.013 0 0.026 0 0.039 0h-0.002c8.223 0.058 15.88 2.433 22.365 6.504l-0.178-0.104c11.634 7.13 19.514 19.404 20.473 33.576l0.007 0.131 42.667 640c0.049 0.769 0.078 1.667 0.078 2.572 0 14.68-7.414 27.629-18.702 35.306l-0.148 0.095zM772.267 184.32l-224.853 98.56 135.253 264.533-326.4-181.333-125.013 55.040 574.72 270.507z"/>
</svg>
