<svg xmlns="http://www.w3.org/2000/svg" viewBox="0 0 1024 1024">
  <path fill="currentColor" transform="scale(1,-1) translate(0,-960)" d="M895.061 375.040c0.608 2.7 0.956 5.8 0.956 8.982 0 14.253-6.989 26.874-17.727 34.622l-0.126 0.086-597.333 426.667c-6.901 5.012-15.542 8.018-24.884 8.018-23.541 0-42.624-19.083-42.624-42.624 0-1.803 0.112-3.58 0.329-5.325l-0.021 0.208 85.333-725.333c2.59-21.312 20.572-37.662 42.372-37.662 13.276 0 25.136 6.063 32.961 15.572l0.059 0.074 154.112 188.416 144.085-232.96 72.576 44.885-143.232 231.595 259.797 51.968c16.722 3.358 29.729 16.18 33.314 32.53l0.052 0.281zM524.971 361.814c-10-2.043-18.519-7.347-24.603-14.732l-0.059-0.073-128.341-156.885-62.336 529.792 438.741-313.387-223.403-44.715z"/>
</svg>
