<svg xmlns="http://www.w3.org/2000/svg" viewBox="0 0 1024 1024">
  <path fill="currentColor" transform="scale(1,-1) translate(0,-960)" d="M938.667 597.334c0.198 1.346 0.311 2.9 0.311 4.48s-0.113 3.134-0.331 4.654l0.020-0.174v3.413c-0.814 2.61-1.828 4.871-3.070 6.98l0.084-0.154c-0.595 1.303-1.308 2.427-2.153 3.437l0.019-0.024-4.267 5.547-8.533 6.4-384 213.333c-6.12 3.594-13.479 5.716-21.333 5.716s-15.214-2.123-21.535-5.825l0.201 0.109-384-213.333-3.84-2.987-4.693-3.413c-1.197-1.342-2.199-2.892-2.943-4.581l-0.044-0.112c-1.345-1.21-2.481-2.618-3.37-4.184l-0.043-0.082c-1.035-1.717-1.908-3.7-2.516-5.796l-0.044-0.178c-0.114-0.641-0.179-1.38-0.179-2.133s0.065-1.492 0.19-2.21l-0.011 0.076c-2.897-2.508-5.317-5.472-7.169-8.795l-0.084-0.165v-341.333c0.12-15.933 8.955-29.776 21.969-37.009l0.218-0.111 384-213.333c1.578-0.94 3.408-1.804 5.323-2.49l0.223-0.070h4.267c3.203-0.811 6.881-1.276 10.667-1.276s7.463 0.465 10.978 1.342l-0.311-0.066h4.267l5.973 2.56 384 213.333c13.061 7.444 21.732 21.266 21.76 37.116v341.337zM512 432.214l-296.107 165.12 117.76 64.853 291.413-166.4zM512 761.6l296.107-164.267-95.573-53.333-291.413 166.827zM170.667 524.8l298.667-167.253v-242.347l-298.667 165.973zM554.667 115.2v242.347l128 71.68v-130.56l85.333 42.667v135.68l85.333 47.36v-243.2z"/>
</svg>
