<svg xmlns="http://www.w3.org/2000/svg" viewBox="0 0 1024 1024">
  <path fill="currentColor" transform="scale(1,-1) translate(0,-960)" d="M512 853.334c-235.264 0-426.667-191.403-426.667-426.667s191.403-426.667 426.667-426.667 426.667 191.403 426.667 426.667-191.403 426.667-426.667 426.667zM850.389 469.334h-295.723v295.723c154.488-20.255 275.468-141.235 295.537-293.993l0.186-1.73zM170.667 426.667c0 173.739 130.603 317.269 298.667 338.389v-338.389c0.137-6.848 1.873-13.261 4.848-18.921l-0.112 0.233c0.64-1.28 0.939-2.688 1.749-3.968l179.285-286.848c-41.937-20.044-91.144-31.775-143.085-31.829h-0.019c-188.203 0-341.333 153.131-341.333 341.333zM727.552 162.304l-138.539 221.696h261.376c-11.619-89.899-56.75-167.513-122.238-221.219l-0.599-0.477z"/>
</svg>
