<svg xmlns="http://www.w3.org/2000/svg" viewBox="0 0 1024 1024">
  <path fill="currentColor" transform="scale(1,-1) translate(0,-960)" d="M170.667 42.667c1.537-0.196 3.315-0.308 5.12-0.308s3.583 0.112 5.328 0.329l-0.208-0.021 170.667 42.667c7.879 1.914 14.67 5.796 20.059 11.099l-0.006-0.005 524.373 526.080c15.335 15.424 24.814 36.685 24.814 60.16s-9.479 44.736-24.818 60.164l-67.409 67.836c-15.446 15.462-36.792 25.027-60.373 25.027s-44.928-9.565-60.373-25.026l-524.374-524.374c-5.356-5.413-9.357-12.177-11.445-19.736l-0.075-0.318-42.667-170.667c-0.988-3.423-1.557-7.355-1.557-11.42 0-20.028 13.8-36.834 32.41-41.426l0.293-0.061c1.537-0.196 3.315-0.308 5.12-0.308s3.583 0.112 5.328 0.329l-0.208-0.021zM768 750.507l67.84-67.84-67.84-67.84-67.413 67.84zM252.16 234.24l387.84 388.267 67.84-67.84-388.267-388.267-90.027-22.187z"/>
</svg>
