<svg xmlns="http://www.w3.org/2000/svg" viewBox="0 0 1024 1024">
  <path fill="currentColor" transform="scale(1,-1) translate(0,-960)" d="M426.667 469.334h-123.691l0.043 0.384c6.030 28.929 17.181 54.508 32.553 76.969l-0.468-0.724c23.267 33.959 55.122 60.479 92.475 76.73l1.392 0.539c12.885 5.461 26.325 9.643 40.021 12.416 12.942 2.747 27.813 4.32 43.051 4.32s30.108-1.573 44.458-4.566l-1.407 0.245c42.459-8.901 79.159-29.427 107.729-58.065l0.004-0.004 60.416 60.245c-26.537 26.544-58.020 48.142-92.949 63.293l-1.942 0.75c-15.942 6.98-34.71 12.985-54.184 17.071l-1.922 0.337c-18.080 3.846-38.852 6.048-60.139 6.048s-42.059-2.202-62.102-6.391l1.963 0.343c-21.417-4.442-40.199-10.461-58.068-18.189l1.918 0.739c-54.28-23.414-98.895-60.54-130.748-107.089l-0.665-1.029c-20.858-30.48-36.483-66.33-44.628-104.938l-0.343-1.942c-1.195-5.76-1.835-11.648-2.688-17.493h-131.413l170.667-170.667 170.667 170.667zM597.333 384h123.691l-0.043-0.341c-11.715-56.098-44.254-103.066-88.984-133.412l-0.744-0.476c-21.734-14.918-47.315-26.071-74.873-31.845l-1.372-0.241c-12.936-2.747-27.799-4.32-43.029-4.32s-30.093 1.573-44.435 4.566l1.406-0.245c-28.929 6.030-54.508 17.181-76.969 32.553l0.724-0.468c-11.802 8.041-22.124 16.601-31.578 26.031l0.005-0.004-60.331-60.331c26.548-26.535 58.046-48.12 92.99-63.251l1.943-0.749c18.091-7.68 36.992-13.525 56.107-17.408 18.073-3.848 38.838-6.051 60.117-6.051s42.044 2.203 62.079 6.394l-1.961-0.343c78.461 16.68 144.155 62.169 186.855 124.623l0.665 1.030c20.837 30.456 36.448 66.277 44.585 104.853l0.343 1.941c1.152 5.76 1.835 11.648 2.688 17.493h131.456l-170.667 170.667-170.667-170.667z"/>
</svg>
