<svg xmlns="http://www.w3.org/2000/svg" viewBox="0 0 1024 1024">
  <path fill="currentColor" transform="scale(1,-1) translate(0,-960)" d="M853.547 682.88h-42.667v-85.333h42.667v-341.333h-42.667v-85.333h42.667c47.061 0 85.333 38.272 85.333 85.333v341.333c0 47.019-38.315 85.333-85.333 85.333zM256.213 512.214h383.787v-170.667h-383.787zM725.547 170.88v597.12h127.787v85.333h-341.333v-85.333h128.213v-85.12h-469.333c-47.061 0-85.333-38.272-85.333-85.333v-341.333c0-47.061 38.272-85.333 85.333-85.333h469.333v-85.547h-128.213v-85.333h341.333v85.333h-127.787v85.547zM170.88 256.214v341.333h469.333v-341.333h-469.333z"/>
</svg>
