<svg xmlns="http://www.w3.org/2000/svg" viewBox="0 0 1024 1024">
  <path fill="currentColor" transform="scale(1,-1) translate(0,-960)" d="M892.587 837.12c-43.83 10.256-94.172 16.16-145.884 16.213h-0.036c-6.678 0.451-14.475 0.708-22.332 0.708-89.818 0-171.788-33.599-234.027-88.915l0.359 0.313q-68.693-68.693-136.107-136.96c-51.627 5.547-174.080 8.533-256-74.24-7.668-7.712-12.407-18.343-12.407-30.080s4.74-22.368 12.409-30.082l-0.002 0.002 482.133-482.987c7.712-7.668 18.343-12.407 30.080-12.407s22.368 4.74 30.082 12.409l-0.002-0.002c83.2 85.333 80.64 205.653 75.52 256l136.96 136.533c136.107 136.107 74.24 391.68 71.68 402.347-4.109 15.678-16.524 27.666-32.144 31.095l-0.283 0.052zM791.893 463.787l-151.893-151.040c-7.634-7.706-12.35-18.314-12.35-30.023 0-2.965 0.302-5.859 0.878-8.653l-0.047 0.276c2.364-13.924 3.716-29.963 3.716-46.319 0-44.185-9.862-86.066-27.506-123.563l0.751 1.775-412.587 413.44c34.907 16.459 75.822 26.066 118.982 26.066 18.274 0 36.145-1.722 53.461-5.013l-1.776 0.281c1.655-0.227 3.567-0.357 5.509-0.357 12.517 0 23.775 5.39 31.58 13.976l0.031 0.035s59.733 61.867 149.76 151.893c47.879 38.701 109.498 62.127 176.588 62.127 6.925 0 13.791-0.25 20.59-0.74l-0.912 0.053c35.244-0.18 69.631-3.277 103.098-9.060l-3.685 0.527c10.24-61.013 26.453-215.040-54.187-295.68zM756.48 584.534c0-47.128-38.205-85.333-85.333-85.333s-85.333 38.205-85.333 85.333c0 47.128 38.205 85.333 85.333 85.333s85.333-38.205 85.333-85.333zM213.333 256c-85.333-42.667-85.333-213.333-85.333-213.333 82.38 2.423 156.858 34.381 213.628 85.595l-0.295-0.262z"/>
</svg>
