<svg xmlns="http://www.w3.org/2000/svg" viewBox="0 0 1024 1024">
  <path fill="currentColor" transform="scale(1,-1) translate(0,-960)" d="M895.787 644.267c-1.516 14.904-10.518 27.407-23.139 33.808l-0.243 0.112-341.333 170.667c-5.562 2.844-12.133 4.511-19.093 4.511s-13.531-1.667-19.335-4.622l0.242 0.112-341.333-170.667c-12.825-6.548-21.799-19.036-23.323-33.736l-0.015-0.184c-0.469-4.565-41.003-459.392 366.464-640.597 5.090-2.355 11.046-3.728 17.323-3.728s12.233 1.373 17.584 3.836l-0.262-0.108c407.467 181.205 366.933 635.989 366.464 640.597zM512 89.728v336.939h-276.907c-14.81 52.154-23.325 112.051-23.325 173.936 0 4.326 0.042 8.643 0.124 12.949l-0.010-0.646 300.117 150.059v-336.299h275.627c-32.384-116.907-106.581-255.104-275.627-336.939z"/>
</svg>
