<svg xmlns="http://www.w3.org/2000/svg" viewBox="0 0 1024 1024">
  <path fill="currentColor" transform="scale(1,-1) translate(0,-960)" d="M853.333 333.44v101.077c49.998 18.011 85.137 64.951 85.333 120.125v0.024c0 70.571-57.429 128-128 128-0.019 0-0.042 0-0.064 0-35.234 0-67.131-14.283-90.218-37.376v0l-167.040 66.816c0.427 4.395 1.323 8.704 1.323 13.227 0 70.571-57.429 128-128 128s-128-57.429-128-128c0-32.512 12.587-61.909 32.64-84.523l-71.424-95.189c-13.778 5.658-29.766 8.973-46.521 9.045h-0.029c-70.571 0-128-57.429-128-128s57.429-128 128-128c6.784 0 13.355 0.981 19.84 2.005l82.56-110.037c-10.581-18.603-17.067-39.765-17.067-62.635 0-70.571 57.429-128 128-128 57.582 0.208 106.168 38.481 121.921 90.957l0.233 0.904 169.045 33.792c23.266-24.793 56.221-40.257 92.788-40.32h0.012c70.571 0 128 57.429 128 128-0.188 55.19-35.334 102.122-84.443 119.826l-0.891 0.28zM810.667 597.334c0.013 0 0.028 0 0.043 0 23.588 0 42.709-19.122 42.709-42.709s-19.122-42.709-42.709-42.709c-23.588 0-42.709 19.122-42.709 42.709 0 0.015 0 0.030 0 0.045v-0.002c0 23.509 19.115 42.667 42.667 42.667zM426.667 768c0.013 0 0.028 0 0.043 0 23.588 0 42.709-19.122 42.709-42.709s-19.122-42.709-42.709-42.709c-23.588 0-42.709 19.122-42.709 42.709 0 0.015 0 0.030 0 0.045v-0.002c0 23.509 19.115 42.667 42.667 42.667zM170.667 426.667c0 0.013 0 0.028 0 0.043 0 23.588 19.122 42.709 42.709 42.709s42.709-19.122 42.709-42.709c0-23.588-19.122-42.709-42.709-42.709-0.015 0-0.030 0-0.045 0h0.002c-23.552 0-42.667 19.157-42.667 42.667zM426.667 85.334c-23.564 0-42.667 19.103-42.667 42.667s19.103 42.667 42.667 42.667v0c23.564 0 42.667-19.103 42.667-42.667s-19.103-42.667-42.667-42.667v0zM544.469 178.006c-20.029 46.188-65.201 77.924-117.794 77.995h-0.009c-16.469 0-32.085-3.371-46.549-9.088l-71.424 95.189c20.053 22.656 32.64 52.053 32.64 84.565 0 22.869-6.485 44.032-17.024 62.592l82.56 110.080c6.485-1.024 13.013-2.005 19.797-2.005 0.019 0 0.042 0 0.064 0 35.234 0 67.131 14.283 90.218 37.376v0l167.040-66.816c-0.427-4.395-1.323-8.704-1.323-13.227 0-55.552 35.797-102.443 85.333-120.107v-101.077c-49.992-17.995-85.132-64.921-85.333-120.082v-0.024c0-2.603 0.64-4.992 0.768-7.552l-138.965-27.819zM810.667 170.667c-23.564 0-42.667 19.103-42.667 42.667s19.103 42.667 42.667 42.667v0c23.564 0 42.667-19.103 42.667-42.667s-19.103-42.667-42.667-42.667v0z"/>
</svg>
