<svg xmlns="http://www.w3.org/2000/svg" viewBox="0 0 1024 1024">
  <path fill="currentColor" transform="scale(1,-1) translate(0,-960)" d="M213.333-0h597.333c47.061 0 85.333 38.272 85.333 85.333v469.333c0 23.564-19.103 42.667-42.667 42.667v0h-128v42.667c0 117.632-95.701 213.333-213.333 213.333s-213.333-95.701-213.333-213.333v-42.667h-128c-23.564 0-42.667-19.103-42.667-42.667v0-469.333c0-47.061 38.272-85.333 85.333-85.333zM384 640c0 70.571 57.429 128 128 128s128-57.429 128-128v-42.667h-256v42.667zM213.333 512h85.333v-85.333h85.333v85.333h256v-85.333h85.333v85.333h85.333l0.085-426.667h-597.419v426.667z"/>
</svg>
