<svg xmlns="http://www.w3.org/2000/svg" viewBox="0 0 1024 1024">
  <path fill="currentColor" transform="scale(1,-1) translate(0,-960)" d="M831.744 552.534c-36.071 88.755-105.122 157.806-191.555 193.040l-2.322 0.837c-10.112 60.501-62.507 106.923-125.867 106.923s-115.755-46.421-125.867-106.923c-88.766-36.054-157.823-105.111-193.041-191.556l-0.836-2.321c-60.501-10.112-106.923-62.507-106.923-125.867s46.421-115.755 106.923-125.867c36.071-88.755 105.122-157.806 191.555-193.040l2.322-0.837c10.112-60.501 62.507-106.923 125.867-106.923s115.755 46.421 125.867 106.923c88.755 36.071 157.806 105.122 193.040 191.555l0.837 2.322c60.501 10.112 106.923 62.507 106.923 125.867s-46.421 115.755-106.923 125.867zM512 768c23.564 0 42.667-19.103 42.667-42.667v0c0-2.56-0.981-4.693-1.451-7.125-0.663-4.444-1.902-8.451-3.653-12.168l0.112 0.264c-0.597-1.152-1.451-2.091-2.176-3.2-1.998-3.384-4.258-6.309-6.832-8.923l0.006 0.006c-1.707-1.579-3.84-2.645-5.803-3.925-2.304-1.536-4.437-3.328-7.040-4.395-4.907-2.005-10.197-3.2-15.829-3.2s-10.923 1.195-15.829 3.2c-2.603 1.024-4.736 2.816-7.040 4.395-1.963 1.28-4.096 2.347-5.803 3.925-2.569 2.608-4.829 5.533-6.712 8.708l-0.115 0.209c-0.725 1.109-1.579 2.048-2.176 3.2-1.633 3.452-2.871 7.458-3.511 11.661l-0.030 0.243c-0.469 2.432-1.451 4.565-1.451 7.125 0 23.564 19.103 42.667 42.667 42.667v0zM213.333 469.334c2.56 0 4.693-0.981 7.125-1.451 4.224-0.725 8.277-1.749 11.904-3.541 1.152-0.597 2.091-1.451 3.2-2.176 3.2-2.005 6.357-4.139 8.917-6.827 1.579-1.707 2.645-3.84 3.925-5.803 1.536-2.304 3.328-4.437 4.395-7.040 2.005-4.907 3.2-10.197 3.2-15.829s-1.195-10.923-3.2-15.829c-1.024-2.603-2.816-4.736-4.395-7.040-1.28-1.963-2.347-4.096-3.925-5.803-2.56-2.688-5.717-4.821-8.917-6.827-1.109-0.725-2.048-1.579-3.2-2.176-3.452-1.633-7.458-2.871-11.661-3.511l-0.243-0.030c-2.432-0.469-4.565-1.451-7.125-1.451-23.564 0-42.667 19.103-42.667 42.667s19.103 42.667 42.667 42.667v0zM512 85.334c-23.564 0-42.667 19.103-42.667 42.667v0c0 2.56 0.981 4.693 1.451 7.125 0.725 4.224 1.749 8.277 3.541 11.904 0.597 1.152 1.451 2.091 2.176 3.2 2.005 3.2 4.139 6.357 6.827 8.917 1.707 1.579 3.84 2.645 5.803 3.925 2.304 1.536 4.437 3.328 7.040 4.395 4.907 2.005 10.197 3.2 15.829 3.2s10.923-1.195 15.829-3.2c2.603-1.024 4.736-2.816 7.040-4.395 1.963-1.28 4.096-2.347 5.803-3.925 2.688-2.56 4.821-5.717 6.827-8.917 0.725-1.109 1.579-2.048 2.176-3.2 1.792-3.627 2.816-7.723 3.541-11.904 0.469-2.432 1.451-4.565 1.451-7.125 0-23.564-19.103-42.667-42.667-42.667v0zM622.208 192.512c-0.256 0.469-0.725 0.811-0.939 1.237-10.735 17.622-25.021 32.058-41.958 42.651l-0.538 0.314c-2.304 1.408-4.651 2.56-7.083 3.84-5.855 3.205-12.715 6.169-19.86 8.5l-0.876 0.247c-2.731 0.896-5.461 1.877-8.277 2.603-9.941 2.432-20.096 4.096-30.677 4.096s-20.736-1.664-30.635-4.139c-2.816-0.725-5.547-1.664-8.32-2.603-8.011-2.589-14.855-5.552-21.353-9.074l0.659 0.327c-2.389-1.237-4.779-2.432-7.083-3.84-17.475-10.908-31.761-25.344-42.176-42.402l-0.32-0.564c-0.256-0.469-0.725-0.811-0.939-1.237-54.528 26.404-97.542 69.419-123.263 122.387l-0.683 1.56c0.469 0.256 0.811 0.725 1.237 0.939 17.622 10.735 32.058 25.021 42.651 41.958l0.314 0.538c1.408 2.304 2.603 4.693 3.84 7.083 3.541 6.571 6.4 13.483 8.747 20.693 0.896 2.773 1.877 5.504 2.603 8.32 2.389 9.984 4.053 20.139 4.053 30.72s-1.664 20.736-4.139 30.635c-0.964 3.573-1.853 6.33-2.847 9.038l0.244-0.76c-2.578 8.021-5.541 14.881-9.071 21.389l0.324-0.653c-1.28 2.432-2.432 4.779-3.84 7.083-10.908 17.475-25.344 31.761-42.402 42.176l-0.564 0.32c-0.427 0.256-0.768 0.725-1.195 0.981 26.404 54.528 69.419 97.542 122.387 123.263l1.56 0.683c0.256-0.427 0.725-0.768 0.939-1.237 10.581-17.536 25.088-32.213 42.496-42.965 2.304-1.408 4.693-2.603 7.083-3.84 6.613-3.541 13.483-6.4 20.736-8.747 2.731-0.896 5.461-1.877 8.277-2.603 9.941-2.432 20.053-4.096 30.677-4.096 13.987 0.194 27.338 2.647 39.791 7.010l-0.879-0.268c7.253 2.347 14.123 5.205 20.736 8.747 2.389 1.237 4.779 2.432 7.083 3.84 17.408 10.752 31.915 25.429 42.496 42.965 0.256 0.469 0.725 0.811 0.939 1.237 54.528-26.404 97.542-69.419 123.263-122.387l0.683-1.56c-0.469-0.256-0.811-0.725-1.237-0.939-17.622-10.735-32.058-25.021-42.651-41.958l-0.314-0.538c-1.408-2.304-2.603-4.693-3.84-7.083-3.541-6.613-6.4-13.483-8.747-20.736-0.896-2.731-1.877-5.461-2.603-8.277-2.441-9.179-3.911-19.745-4.052-30.632l-0.001-0.088c0.194-13.987 2.647-27.338 7.010-39.791l-0.268 0.879c2.347-7.253 5.205-14.123 8.747-20.736 1.237-2.389 2.432-4.779 3.84-7.083 10.752-17.408 25.429-31.915 42.965-42.496 0.469-0.256 0.811-0.725 1.237-0.939-26.393-54.561-69.429-97.596-122.429-123.307l-1.56-0.683zM810.667 384c-2.56 0-4.693 0.981-7.125 1.451-4.444 0.663-8.451 1.902-12.168 3.653l0.264-0.112c-1.152 0.597-2.091 1.451-3.2 2.176-3.384 1.998-6.309 4.258-8.923 6.832l0.006-0.006c-1.579 1.707-2.645 3.84-3.925 5.803-1.536 2.304-3.328 4.437-4.395 7.040-2.005 4.907-3.2 10.197-3.2 15.829s1.195 10.923 3.2 15.829c1.024 2.603 2.816 4.736 4.395 7.040 1.28 1.963 2.347 4.096 3.925 5.803 2.56 2.688 5.717 4.821 8.917 6.827 1.109 0.725 2.048 1.579 3.2 2.176 3.627 1.792 7.723 2.816 11.904 3.541 2.432 0.469 4.565 1.451 7.125 1.451 23.564 0 42.667-19.103 42.667-42.667s-19.103-42.667-42.667-42.667v0z"/>
</svg>
