<svg xmlns="http://www.w3.org/2000/svg" viewBox="0 0 1024 1024">
  <path fill="currentColor" transform="scale(1,-1) translate(0,-960)" d="M278.016 327.552l-63.573-275.285c-0.724-2.94-1.14-6.315-1.14-9.787 0-23.517 19.064-42.581 42.581-42.581 8.878 0 17.121 2.717 23.944 7.364l-0.148-0.095 232.32 154.88 232.32-154.88c6.643-4.466 14.822-7.128 23.624-7.128 23.588 0 42.709 19.122 42.709 42.709 0 4.133-0.587 8.13-1.683 11.91l0.075-0.302-78.037 273.067 193.536 174.165c8.683 7.841 14.117 19.14 14.117 31.707 0 22.376-17.224 40.728-39.137 42.523l-0.153 0.010-243.243 19.371-105.259 233.003c-6.818 14.972-21.65 25.193-38.869 25.193s-32.052-10.221-38.761-24.927l-0.109-0.266-105.259-233.003-243.243-19.328c-22.069-1.801-39.297-20.155-39.297-42.533 0-11.975 4.933-22.797 12.878-30.546l0.009-0.009 179.797-175.232zM399.744 512.128c15.843 1.285 29.128 11.067 35.39 24.737l0.109 0.266 76.757 169.856 76.757-169.856c6.37-13.936 19.656-23.718 35.347-24.993l0.152-0.010 169.472-13.44-139.563-125.611c-12.117-10.923-16.939-27.733-12.501-43.435l53.461-187.093-159.403 106.283c-6.641 4.512-14.835 7.203-23.659 7.203s-17.018-2.692-23.807-7.299l0.149 0.095-166.571-111.061 44.8 193.963c0.691 2.876 1.088 6.179 1.088 9.574 0 11.964-4.924 22.777-12.856 30.525l-0.008 0.008-129.621 126.379 174.507 13.909z"/>
</svg>
