<svg xmlns="http://www.w3.org/2000/svg" viewBox="0 0 1024 1024">
  <path fill="currentColor" transform="scale(1,-1) translate(0,-960)" d="M853.333 383.574h-298.667v128.427h42.667c47.061 0 85.333 38.272 85.333 85.333v170.667c0 47.061-38.272 85.333-85.333 85.333h-170.667c-47.061 0-85.333-38.272-85.333-85.333v-170.667c0-47.061 38.272-85.333 85.333-85.333h42.667v-128.427h-298.667v-212.907h-42.667v-170.667h170.667v170.667h-42.667v127.573h213.333v-127.573h-42.667v-170.667h170.667v170.667h-42.667v127.573h213.333v-127.573h-42.667v-170.667h170.667v170.667h-42.667v212.907zM426.667 597.334v170.667h170.667l0.085-170.667h-170.752z"/>
</svg>
