<svg xmlns="http://www.w3.org/2000/svg" viewBox="0 0 1024 1024">
  <path fill="currentColor" transform="scale(1,-1) translate(0,-960)" d="M512 853.334c-235.264 0-426.667-191.403-426.667-426.667v-176.768c0-43.691 38.272-79.232 85.333-79.232h42.667c23.564 0 42.667 19.103 42.667 42.667v0 219.435c0 23.564-19.103 42.667-42.667 42.667v0h-38.741c23.723 165.12 165.803 292.565 337.408 292.565s313.685-127.445 337.408-292.565h-38.741c-23.564 0-42.667-19.103-42.667-42.667v0-262.101c0-47.061-38.272-85.333-85.333-85.333h-85.333v42.667h-170.667v-128h256c94.123 0 170.667 76.544 170.667 170.667 47.061 0 85.333 35.541 85.333 79.232v176.768c0 235.264-191.403 426.667-426.667 426.667z"/>
</svg>
