<svg xmlns="http://www.w3.org/2000/svg" viewBox="0 0 1024 1024">
  <path fill="currentColor" transform="scale(1,-1) translate(0,-960)" d="M512 768c-235.264 0-426.667-191.403-426.667-426.667 0-0.105 0-0.23 0-0.354 0-69.019 16.57-134.169 45.95-191.686l-1.107 2.387c7.253-14.507 22.016-23.68 38.187-23.68h687.232c16.171 0 30.976 9.173 38.229 23.68 28.273 55.131 44.843 120.28 44.843 189.299 0 0.125 0 0.25 0 0.374v-0.020c0 235.264-191.403 426.667-426.667 426.667zM828.16 213.334h-632.32c-15.922 37.725-25.174 81.584-25.174 127.605 0 0.139 0 0.278 0 0.417v-0.021c0 188.203 153.131 341.333 341.333 341.333s341.333-153.131 341.333-341.333c0-0.118 0-0.256 0-0.395 0-46.020-9.252-89.88-25.997-129.82l0.824 2.215zM466.731 386.603c-17.903-11.834-29.551-31.874-29.551-54.635s11.648-42.8 29.308-54.484l0.243-0.151c10.105-6.734 22.525-10.746 35.882-10.746 22.747 0 42.777 11.634 54.463 29.277l0.151 0.242 169.045 257.621c0.13 0.213 0.207 0.471 0.207 0.747s-0.077 0.534-0.211 0.753l0.004-0.006c-0.255 0.386-0.688 0.638-1.179 0.638-0.275 0-0.531-0.079-0.747-0.214l0.006 0.003-257.621-169.045z"/>
</svg>
