<svg xmlns="http://www.w3.org/2000/svg" viewBox="0 0 1024 1024">
  <path fill="currentColor" transform="scale(1,-1) translate(0,-960)" d="M633.344 85.334h-356.011c-58.837 0-106.667 47.829-106.667 106.667s47.829 106.667 106.667 106.667h298.667c82.347 0 149.333 66.987 149.333 149.333s-66.987 149.333-149.333 149.333h-207.403c-16.75-32.485-35.962-60.497-58.178-85.807l0.408 0.474h265.173c35.285 0 64-28.715 64-64s-28.715-64-64-64h-298.667c-105.856 0-192-86.144-192-192s86.144-192 192-192h409.301c-19.866 24.798-37.625 52.81-52.133 82.691l-1.157 2.642zM213.333 853.334c-70.571 0-128-57.429-128-128 0-136.021 128-213.333 128-213.333s128 77.355 128 213.333c0 70.571-57.429 128-128 128zM213.333 661.334c-35.349 0.012-64 28.671-64 64.021 0 35.358 28.663 64.021 64.021 64.021 0.008 0 0.015 0 0.023 0h-0.001c35.349-0.012 64-28.671 64-64.021 0-35.358-28.663-64.021-64.021-64.021-0.008 0-0.015 0-0.023 0h0.001zM810.667 341.334c-70.571 0-128-57.429-128-128 0-136.021 128-213.333 128-213.333s128 77.355 128 213.333c0 70.571-57.429 128-128 128zM810.667 149.334c-35.349 0.012-64 28.671-64 64.021 0 35.358 28.663 64.021 64.021 64.021 0.008 0 0.015 0 0.023 0h-0.001c35.349-0.012 64-28.671 64-64.021 0-35.358-28.663-64.021-64.021-64.021-0.008 0-0.015 0-0.023 0h0.001z"/>
</svg>
