<svg xmlns="http://www.w3.org/2000/svg" viewBox="0 0 1024 1024">
  <path fill="currentColor" transform="scale(1,-1) translate(0,-960)" d="M512 853.334c-234.39-3.084-423.582-192.276-426.664-426.373l-0.003-0.294c1.141-137.825 67.455-259.928 169.594-337.143l1.073-0.777v-3.413h4.267c68.944-53.255 156.589-85.361 251.733-85.361s182.79 32.106 252.694 86.074l-0.961-0.713h4.267v3.413c103.212 77.993 169.526 200.096 170.665 337.736l0.001 0.184c-3.084 234.39-192.276 423.582-426.373 426.664l-0.294 0.003zM344.32 130.987c12.988 57.986 64.013 100.674 125.011 100.693h85.335c61.001-0.020 112.025-42.707 124.852-99.839l0.161-0.854c-47.986-28.699-105.851-45.669-167.68-45.669s-119.695 16.97-169.194 46.505l1.514-0.837zM751.36 186.027c-33.066 77.556-108.639 130.941-196.687 130.987h-85.339c-88.054-0.045-163.628-53.431-196.165-129.595l-0.529-1.392c-62.338 61.341-101.2 146.378-101.972 240.494l-0.001 0.146c2.375 187.551 153.783 338.959 341.108 341.331l0.225 0.002c187.551-2.375 338.959-153.783 341.331-341.108l0.002-0.225c-0.773-94.262-39.635-179.299-101.928-240.596l-0.045-0.044zM512 682.667c-1.157 0.029-2.519 0.045-3.885 0.045-92.136 0-166.827-74.691-166.827-166.827 0-1.366 0.016-2.729 0.049-4.087l-0.004 0.202c-0.029-1.157-0.045-2.519-0.045-3.885 0-92.136 74.691-166.827 166.827-166.827 1.366 0 2.729 0.016 4.087 0.049l-0.202-0.004c1.157-0.029 2.519-0.045 3.885-0.045 92.136 0 166.827 74.691 166.827 166.827 0 1.366-0.016 2.729-0.049 4.087l0.004-0.202c0.029 1.157 0.045 2.519 0.045 3.885 0 92.136-74.691 166.827-166.827 166.827-1.366 0-2.729-0.016-4.087-0.049l0.202 0.004zM512 426.667c-1.175-0.061-2.551-0.095-3.935-0.095-45.008 0-81.493 36.486-81.493 81.493 0 1.384 0.035 2.76 0.103 4.127l-0.008-0.192c-0.061 1.175-0.095 2.551-0.095 3.935 0 45.008 36.486 81.493 81.493 81.493 1.384 0 2.76-0.035 4.127-0.103l-0.192 0.008c1.175 0.061 2.551 0.095 3.935 0.095 45.008 0 81.493-36.486 81.493-81.493 0-1.384-0.035-2.76-0.103-4.127l0.008 0.192c0.061-1.175 0.095-2.551 0.095-3.935 0-45.008-36.486-81.493-81.493-81.493-1.384 0-2.76 0.035-4.127 0.103l0.192-0.008z"/>
</svg>
