<svg xmlns="http://www.w3.org/2000/svg" viewBox="0 0 1024 1024">
  <path fill="currentColor" transform="scale(1,-1) translate(0,-960)" d="M768 554.667c0 47.061-38.272 85.333-85.333 85.333h-61.184l-103.168 171.904c-15.224 24.932-42.251 41.342-73.118 41.429h-231.864v-85.333h231.851l76.8-128h-351.317c-47.061 0-85.333-38.272-85.333-85.333v-384c0-47.061 38.272-85.333 85.333-85.333h512c47.061 0 85.333 38.272 85.333 85.333v128l170.667-85.333v298.667l-170.667-85.333v128zM682.752 170.667h-512.085v384h512l0.043-170.667h-0.043v-42.667l0.043-0.043 0.043-170.624zM256 341.334h256v-85.333h-256z"/>
</svg>
