<svg xmlns="http://www.w3.org/2000/svg" viewBox="0 0 1024 1024">
  <path fill="currentColor" transform="scale(1,-1) translate(0,-960)" d="M218.539 42.667c16.128-16.128 37.547-25.003 60.331-25.003s44.203 8.875 60.331 25.003l185.003 185.003c28.192-9.013 60.62-14.208 94.262-14.208 0.116 0 0.232 0 0.348 0h-0.018c0.288-0.001 0.63-0.001 0.971-0.001 88.029 0 167.696 35.803 225.234 93.641l0.013 0.014c57.974 57.817 93.843 137.774 93.843 226.108 0 44.001-8.9 85.923-24.997 124.064l0.786-2.098-24.32 59.221-181.077-181.035-90.496 90.539 181.035 181.035-59.264 24.363c-35.902 15.192-77.648 24.022-121.457 24.022-0.155 0-0.311 0-0.466 0h0.024c-85.461 0-165.803-33.28-226.176-93.696-57.97-57.783-93.838-137.71-93.838-226.014 0-33.825 5.263-66.421 15.014-97.013l-0.622 2.26-185.003-185.003c-15.427-15.446-24.967-36.774-24.967-60.331s9.54-44.885 24.968-60.332l90.538-90.538zM412.587 417.75l-10.837 26.283c-11.249 26.448-17.788 57.212-17.788 89.503 0 64.766 26.304 123.388 68.811 165.766l0.006 0.006c42.21 42.477 100.665 68.768 165.261 68.768 8.109 0 16.122-0.414 24.018-1.223l-0.991 0.082-143.061-143.061 211.157-211.2 143.147 143.147c0.695-6.772 1.092-14.633 1.092-22.587 0-64.781-26.297-123.42-68.799-165.824l-0.004-0.004c-66.133-66.133-169.131-86.485-255.317-51.029l-26.24 10.88-224.128-224.256-0.043-42.667v42.667l-90.539 90.539 224.256 224.213z"/>
</svg>
