<svg width="16" height="16" viewBox="0 0 16 16" fill="none" xmlns="http://www.w3.org/2000/svg">
<g clip-path="url(#clip0_28510_3253)">
<path fill-rule="evenodd" clip-rule="evenodd" d="M7.28571 0H2.85714C2.09938 0 1.37266 0.30102 0.836838 0.836838C0.30102 1.37266 0 2.09938 0 2.85714L0 7.28571H7.28571V0ZM0 13.1429V8.71429H7.28571V16H2.85714C2.09938 16 1.37266 15.699 0.836838 15.1632C0.30102 14.6273 0 13.9006 0 13.1429ZM8.71429 16V8.71429H16V13.1429C16 13.9006 15.699 14.6273 15.1632 15.1632C14.6273 15.699 13.9006 16 13.1429 16H8.71429ZM16 2.85714V7.28571H8.71429V0H13.1429C13.9006 0 14.6273 0.30102 15.1632 0.836838C15.699 1.37266 16 2.09938 16 2.85714ZM2.32343 3.11429C2.13399 3.11429 1.95231 3.18954 1.81835 3.3235C1.6844 3.45745 1.60914 3.63913 1.60914 3.82857C1.60914 4.01801 1.6844 4.19969 1.81835 4.33365C1.95231 4.4676 2.13399 4.54286 2.32343 4.54286H3.03771V5.25714C3.03771 5.44658 3.11297 5.62826 3.24692 5.76222C3.38088 5.89617 3.56256 5.97143 3.752 5.97143C3.94144 5.97143 4.12312 5.89617 4.25708 5.76222C4.39103 5.62826 4.46629 5.44658 4.46629 5.25714V4.54286H5.18057C5.37001 4.54286 5.55169 4.4676 5.68565 4.33365C5.8196 4.19969 5.89486 4.01801 5.89486 3.82857C5.89486 3.63913 5.8196 3.45745 5.68565 3.3235C5.55169 3.18954 5.37001 3.11429 5.18057 3.11429H4.46629V2.4C4.46629 2.21056 4.39103 2.02888 4.25708 1.89492C4.12312 1.76097 3.94144 1.68571 3.752 1.68571C3.56256 1.68571 3.38088 1.76097 3.24692 1.89492C3.11297 2.02888 3.03771 2.21056 3.03771 2.4V3.11429H2.32343ZM10.3143 3.82857C10.3143 3.43314 10.6343 3.11429 11.0286 3.11429H13.3143C13.5037 3.11429 13.6854 3.18954 13.8194 3.3235C13.9533 3.45745 14.0286 3.63913 14.0286 3.82857C14.0286 4.01801 13.9533 4.19969 13.8194 4.33365C13.6854 4.4676 13.5037 4.54286 13.3143 4.54286H11.0286C10.8391 4.54286 10.6575 4.4676 10.5235 4.33365C10.3895 4.19969 10.3143 4.01801 10.3143 3.82857ZM11.0286 10.3223C10.8391 10.3223 10.6575 10.3975 10.5235 10.5315C10.3895 10.6655 10.3143 10.8471 10.3143 11.0366C10.3143 11.226 10.3895 11.4077 10.5235 11.5416C10.6575 11.6756 10.8391 11.7509 11.0286 11.7509H13.3143C13.5037 11.7509 13.6854 11.6756 13.8194 11.5416C13.9533 11.4077 14.0286 11.226 14.0286 11.0366C14.0286 10.8471 13.9533 10.6655 13.8194 10.5315C13.6854 10.3975 13.5037 10.3223 13.3143 10.3223H11.0286ZM10.3143 13.3223C10.3143 12.928 10.6343 12.608 11.0286 12.608H13.3143C13.5037 12.608 13.6854 12.6833 13.8194 12.8172C13.9533 12.9512 14.0286 13.1328 14.0286 13.3223C14.0286 13.5117 13.9533 13.6934 13.8194 13.8274C13.6854 13.9613 13.5037 14.0366 13.3143 14.0366H11.0286C10.9348 14.0366 10.8419 14.0181 10.7552 13.9822C10.6686 13.9463 10.5898 13.8937 10.5235 13.8274C10.4572 13.761 10.4046 13.6823 10.3687 13.5956C10.3328 13.509 10.3143 13.4161 10.3143 13.3223ZM2.03543 10.5314C2.10176 10.4651 2.18051 10.4125 2.26718 10.3765C2.35386 10.3406 2.44675 10.3222 2.54057 10.3222C2.63439 10.3222 2.72729 10.3406 2.81396 10.3765C2.90063 10.4125 2.97938 10.4651 3.04571 10.5314L3.752 11.2377L4.45829 10.5314C4.59226 10.3975 4.77396 10.3222 4.96343 10.3222C5.15289 10.3222 5.3346 10.3975 5.46857 10.5314C5.60254 10.6654 5.67781 10.8471 5.67781 11.0366C5.67781 11.226 5.60254 11.4077 5.46857 11.5417L4.76229 12.248L5.46857 12.9543C5.53491 13.0206 5.58753 13.0994 5.62343 13.186C5.65933 13.2727 5.67781 13.3656 5.67781 13.4594C5.67781 13.5532 5.65933 13.6461 5.62343 13.7328C5.58753 13.8195 5.53491 13.8982 5.46857 13.9646C5.40224 14.0309 5.32348 14.0835 5.23681 14.1194C5.15014 14.1553 5.05724 14.1738 4.96343 14.1738C4.86962 14.1738 4.77672 14.1553 4.69005 14.1194C4.60337 14.0835 4.52462 14.0309 4.45829 13.9646L3.752 13.2583L3.04571 13.9646C2.97938 14.0309 2.90063 14.0835 2.81395 14.1194C2.72728 14.1553 2.63439 14.1738 2.54057 14.1738C2.44676 14.1738 2.35386 14.1553 2.26719 14.1194C2.18052 14.0835 2.10176 14.0309 2.03543 13.9646C1.96909 13.8982 1.91647 13.8195 1.88057 13.7328C1.84467 13.6461 1.82619 13.5532 1.82619 13.4594C1.82619 13.3656 1.84467 13.2727 1.88057 13.186C1.91647 13.0994 1.96909 13.0206 2.03543 12.9543L2.74171 12.248L2.03543 11.5417C1.96908 11.4754 1.91645 11.3966 1.88054 11.31C1.84463 11.2233 1.82615 11.1304 1.82615 11.0366C1.82615 10.9428 1.84463 10.8499 1.88054 10.7632C1.91645 10.6765 1.96908 10.5978 2.03543 10.5314Z" fill="currentColor"/>
</g>
<defs>
<clipPath id="clip0_28510_3253">
<rect width="16" height="16" fill="white"/>
</clipPath>
</defs>
</svg>
