<svg width="46" height="46" viewBox="0 0 46 46" fill="none" xmlns="http://www.w3.org/2000/svg">
<path d="M46 46H0V0H46V46ZM34.7627 23.0352C33.9477 22.3403 32.8669 22.0306 31.7988 22.2021L31.79 22.207C30.0355 22.4859 28.7139 24.1072 28.7139 25.9775V29.8516C28.7137 33.0002 26.1531 35.5615 23.0088 35.5615C21.6233 35.5615 20.3104 35.051 19.2852 34.1631C18.7319 34.4847 18.1398 34.7372 17.5137 34.9131C18.9207 36.4403 20.9025 37.333 23.0088 37.333C27.1312 37.333 30.4901 33.9783 30.4902 29.8516V25.9775C30.4903 24.9652 31.1681 24.0986 32.0732 23.957C32.6352 23.8627 33.1843 24.0215 33.6133 24.3818C34.0379 24.7465 34.2871 25.2785 34.2871 25.8447V27.333C34.2871 27.7148 34.2701 28.093 34.2314 28.4619C34.0683 30.1004 33.1753 30.9972 32.1201 31.4004C32.0043 32.0737 31.8198 32.726 31.5625 33.3564C33.6645 33.0261 35.7028 31.5373 35.9902 28.6416C36.0331 28.2126 36.0537 27.7749 36.0537 27.333V25.8447C36.0537 24.7594 35.582 23.7387 34.7627 23.0352ZM23.6133 18.4873C22.5409 18.3115 21.4476 18.6124 20.624 19.3115C19.7961 20.0151 19.3193 21.04 19.3193 22.1211V27.8564C19.3193 30.3446 17.3844 31.5753 15.5869 31.6611C13.8539 31.7468 12.0051 30.7906 11.7734 28.457C11.7348 28.0882 11.7178 27.7108 11.7178 27.3291V26.0371C11.718 25.0121 12.3956 24.1201 13.292 23.957C13.8497 23.8584 14.3993 24.0045 14.8369 24.3691C15.2741 24.738 15.5272 25.2739 15.5273 25.8398V29.877C16.1965 29.8383 16.8915 29.5594 17.2646 28.9717L17.2988 28.9893V25.8398C17.2987 24.7461 16.8183 23.7165 15.9775 23.0088C15.1453 22.3096 14.0472 22.0179 12.9834 22.2109C11.2547 22.5198 9.9465 24.1626 9.94629 26.0371V27.3291C9.9463 27.7709 9.96785 28.2088 10.0107 28.6377C10.3413 31.9749 12.9711 33.4414 15.3818 33.4414C15.4803 33.4414 15.5787 33.4421 15.6729 33.4336C18.3626 33.3006 21.0908 31.3398 21.0908 27.8564V22.1211C21.0908 21.5592 21.3396 21.0267 21.7686 20.6621C22.2018 20.2932 22.7599 20.1433 23.3262 20.2334C24.2228 20.3793 24.9004 21.2503 24.9004 22.2627V27.8564C24.9004 29.3965 25.4495 30.7309 26.4404 31.7305C26.7535 31.1557 26.9384 30.5164 26.9385 29.8516V29.2676C26.7884 28.8644 26.6719 28.4141 26.6719 27.8564V22.2627C26.6719 20.3923 25.355 18.7704 23.6133 18.4873ZM13.627 13.0479C11.6023 13.0479 9.95041 14.6951 9.9502 16.7197C9.9502 18.7444 11.5975 20.3923 13.6221 20.3926H13.627C15.6517 20.3925 17.2988 18.7445 17.2988 16.7197C17.2986 14.6951 15.6516 13.0479 13.627 13.0479ZM32.3818 13.0479C30.3573 13.048 28.7102 14.6952 28.71 16.7197C28.71 18.7445 30.3571 20.3924 32.3818 20.3926C34.4067 20.3926 36.0547 18.7445 36.0547 16.7197C36.0545 14.6951 34.4065 13.0479 32.3818 13.0479ZM13.627 14.8193C14.6735 14.8194 15.5271 15.6732 15.5273 16.7197C15.5273 17.7664 14.6736 18.62 13.627 18.6201C12.5802 18.6201 11.7266 17.7665 11.7266 16.7197C11.7268 15.6732 12.5804 14.8193 13.627 14.8193ZM32.3818 14.8193C33.4284 14.8193 34.282 15.6732 34.2822 16.7197C34.2822 17.7665 33.4286 18.6201 32.3818 18.6201C31.3352 18.62 30.4814 17.7664 30.4814 16.7197C30.4817 15.6733 31.3354 14.8195 32.3818 14.8193ZM23.0039 9.32422C20.9794 9.32448 19.3322 10.9716 19.332 12.9961C19.332 15.0207 20.9793 16.6687 23.0039 16.6689V16.6729C25.0286 16.6729 26.6766 15.0257 26.6768 13.001C26.6768 10.9762 25.0287 9.32422 23.0039 9.32422ZM23.0039 11.0957C24.0505 11.0957 24.9051 11.9495 24.9053 12.9961C24.9053 14.0428 24.0506 14.8965 23.0039 14.8965C21.9574 14.8962 21.1035 14.0427 21.1035 12.9961C21.1037 11.9497 21.9575 11.096 23.0039 11.0957Z" fill="currentColor"/>
</svg>
