<svg width="36" height="36" viewBox="0 0 36 36" fill="none" xmlns="http://www.w3.org/2000/svg">
<g clip-path="url(#clip0_27848_16829)">
<path d="M36 36H0V0H36V36ZM15.7559 6.41504C15.194 6.08828 14.475 6.28211 14.1504 6.84375L12.8516 9.08984H10.2666C9.61649 9.08989 9.09082 9.61668 9.09082 10.2656V12.8506L6.84668 14.1494C6.5763 14.3058 6.37996 14.5623 6.29883 14.8633C6.21771 15.1643 6.2616 15.4855 6.41797 15.7559L7.71387 18L6.41602 20.2441C6.26083 20.5134 6.21888 20.8348 6.29883 21.1357C6.3788 21.4366 6.57515 21.6944 6.84668 21.8496L9.09082 23.1475V25.7324C9.09082 26.3814 9.61649 26.9082 10.2666 26.9082H12.8516L14.1504 29.1533C14.369 29.5294 14.7623 29.7411 15.1689 29.7412C15.3688 29.7412 15.5713 29.691 15.7559 29.584L18 28.2871L20.2461 29.585C20.5151 29.7412 20.8381 29.7829 21.1377 29.7031C21.4385 29.6232 21.6963 29.4255 21.8516 29.1553L23.1484 26.9102H25.7334C26.3835 26.9102 26.9092 26.3833 26.9092 25.7344V23.1494L29.1543 21.8516C29.7172 21.527 29.9096 20.807 29.584 20.2451L28.2871 18L29.585 15.7559C29.9094 15.1939 29.7172 14.4739 29.1553 14.1494L26.9111 12.8516V10.2666C26.9111 9.61773 26.3854 9.09098 25.7354 9.09082H23.1494L21.8525 6.84668C21.6962 6.57638 21.4393 6.38001 21.1396 6.29883C20.8399 6.21772 20.5175 6.25852 20.2471 6.41602L18 7.71289L15.7559 6.41504Z" fill="#222222"/>
<path d="M23.58 16.3808C23.9238 16.0379 23.9238 15.4819 23.58 15.139C23.2361 14.7961 22.6787 14.7961 22.3349 15.139L15.805 21.6515C15.4612 21.9944 15.4612 22.5504 15.805 22.8933C16.1488 23.2362 16.7063 23.2362 17.0501 22.8933L23.58 16.3808Z" fill="#222222"/>
<path d="M15.7714 22.8949C16.1152 23.2378 16.6726 23.2378 17.0164 22.8949C17.3602 22.552 17.3602 21.9961 17.0164 21.6532L13.1786 17.8255C12.8348 17.4826 12.2773 17.4826 11.9335 17.8255C11.5897 18.1684 11.5897 18.7244 11.9335 19.0673L15.7714 22.8949Z" fill="#222222"/>
</g>
<defs>
<clipPath id="clip0_27848_16829">
<rect width="36" height="36" rx="10.7027" fill="white"/>
</clipPath>
</defs>
</svg>
