<svg width="18" height="18" viewBox="0 0 18 18" fill="none" xmlns="http://www.w3.org/2000/svg">
<path d="M6.05027 0.450921C6.29907 0.0200395 6.85084 -0.128777 7.28172 0.121819L9.00242 1.11694L10.7251 0.122796C10.9323 0.00209285 11.1789 -0.0291286 11.4087 0.0329523C11.6385 0.0951507 11.8366 0.245546 11.9565 0.452874L12.9507 2.17358H14.9331C15.4314 2.17374 15.8345 2.57746 15.8345 3.07494V5.05737L17.5552 6.05248C17.9859 6.30133 18.134 6.85311 17.8852 7.28393L16.8901 9.00463L17.8843 10.7263C18.1338 11.1572 17.9859 11.709 17.5542 11.9578L15.8335 12.9529V14.9353C15.8333 15.4326 15.4304 15.8365 14.9321 15.8367H12.9497L11.9555 17.5574C11.8366 17.7645 11.6392 17.9159 11.4087 17.9773C11.1789 18.0386 10.9305 18.0072 10.7241 17.8874L9.00242 16.8923L7.28172 17.8865C7.14019 17.9685 6.98477 18.0066 6.83152 18.0066C6.51973 18.0065 6.21793 17.8447 6.05027 17.5564L5.05516 15.8347H3.07273C2.57432 15.8347 2.17148 15.4308 2.17137 14.9333V12.9509L0.450663 11.9558C0.242566 11.8369 0.0921122 11.6395 0.0307412 11.4089C-0.0305523 11.1782 0.00161327 10.9318 0.120585 10.7253L1.1157 9.00463L0.121561 7.28393C0.00167185 7.0766 -0.0314572 6.83012 0.0307412 6.59936C0.0929661 6.36866 0.243383 6.17235 0.450663 6.05248L2.17137 5.05639V3.07397C2.17137 2.57638 2.57424 2.1726 3.07273 2.1726H5.05516L6.05027 0.450921ZM13.2807 6.81127C13.0171 6.54836 12.5893 6.54836 12.3257 6.81127L7.78269 11.3415L5.30516 8.87084C5.04155 8.60816 4.6146 8.60806 4.35105 8.87084C4.08744 9.13376 4.08744 9.56008 4.35105 9.82299L7.29344 12.7576C7.42976 12.8935 7.60993 12.9575 7.78855 12.9529C7.96396 12.955 8.14005 12.89 8.27391 12.7566L13.2807 7.76342C13.5443 7.50057 13.5442 7.0742 13.2807 6.81127Z" fill="currentColor"/>
</svg>
