<svg width="46" height="46" viewBox="0 0 46 46" fill="none" xmlns="http://www.w3.org/2000/svg"><path d="M46 46H0V0H46V46ZM10.9033 16.0713C9.09565 17.8881 8.08105 20.3473 8.08105 22.9102C8.08116 25.4728 9.0958 27.9314 10.9033 29.748L10.916 29.7207C12.7316 31.5306 15.1903 32.5468 17.7539 32.5469C20.3176 32.5469 22.7772 31.5307 24.5928 29.7207L30.1191 24.1914C30.3046 24.0059 30.4523 23.7853 30.5527 23.543C30.653 23.3007 30.7041 23.0405 30.7041 22.7783C30.704 22.5163 30.6529 22.2567 30.5527 22.0146C30.4523 21.7723 30.3046 21.5517 30.1191 21.3662C29.9336 21.1807 29.7131 21.034 29.4707 20.9336C29.2285 20.8333 28.9692 20.7813 28.707 20.7812C28.4447 20.7812 28.1847 20.8332 27.9424 20.9336C27.7 21.034 27.4794 21.1807 27.2939 21.3662L21.7676 26.8955C20.7032 27.9599 19.2592 28.5586 17.7539 28.5586C16.2487 28.5585 14.8056 27.9599 13.7412 26.8955C12.6769 25.8312 12.0782 24.388 12.0781 22.8828C12.0781 21.3775 12.6768 19.9335 13.7412 18.8691L17.9756 14.6523L18.6621 13.9629H13.0117L10.9033 16.0713ZM28.8682 13.0537C26.3043 13.0537 23.8445 14.0711 22.0293 15.8818L16.5029 21.4082C16.1283 21.7828 15.918 22.2915 15.918 22.8213C15.9181 23.351 16.1284 23.8589 16.5029 24.2334C16.8775 24.6079 17.3854 24.8183 17.915 24.8184C18.4448 24.8184 18.9535 24.608 19.3281 24.2334L24.8545 18.707C25.9189 17.6426 27.3629 17.0439 28.8682 17.0439C30.3733 17.044 31.8165 17.6427 32.8809 18.707C33.9452 19.7714 34.5439 21.2146 34.5439 22.7197C34.5439 24.225 33.9452 25.669 32.8809 26.7334L28.6465 30.9648L27.9717 31.6543H33.6104L35.7188 29.5459C37.526 27.7297 38.541 25.2712 38.541 22.709C38.5409 20.1469 37.5259 17.6892 35.7188 15.873L35.7061 15.8818C33.8909 14.0712 31.432 13.0538 28.8682 13.0537Z" fill="currentColor"/></svg>
