<svg xmlns="http://www.w3.org/2000/svg" width="42" height="42" viewBox="0 0 42 42"><path fill="currentColor" d="M42 42H0V0H42V42ZM20.0205 11.1182C19.9969 12.0609 19.6053 12.9573 18.9287 13.6143C18.2521 14.2712 17.3444 14.6361 16.4014 14.6318C15.7644 14.6177 15.1405 14.4429 14.5889 14.124L14.5029 14.0732L12.2461 17.9004L12.3516 17.9551C12.9008 18.2565 13.36 18.6991 13.6807 19.2373C14.0012 19.7755 14.1723 20.3902 14.1758 21.0166C14.1707 21.6441 13.9989 22.2591 13.6787 22.7988C13.3584 23.3387 12.9001 23.7836 12.3516 24.0889L12.2461 24.1436L14.5068 27.9863L14.6123 27.9316C15.1667 27.63 15.7898 27.4752 16.4209 27.4824C16.8925 27.4758 17.3607 27.5627 17.7988 27.7373C18.237 27.912 18.6369 28.1716 18.9746 28.501C19.3121 28.8302 19.5811 29.2228 19.7666 29.6562C19.9522 30.09 20.0506 30.5566 20.0557 31.0283V31.0986H24.5576V31.0283C24.5539 30.4123 24.7139 29.8058 25.0205 29.2715C25.3271 28.7373 25.7701 28.2939 26.3037 27.9863L27.7832 26.9941L28.1738 26.7168L27.084 25.4639L26.6475 25.8311C25.8715 26.5005 24.9508 26.981 23.958 27.2354C22.9651 27.4896 21.9261 27.511 20.9238 27.2969C19.9218 27.0828 18.9829 26.6394 18.1807 26.002C17.3784 25.3643 16.7346 24.5491 16.2998 23.6211C15.9343 22.8057 15.7451 21.9219 15.7451 21.0283C15.7667 19.3126 16.4659 17.6746 17.6904 16.4727C18.915 15.2708 20.5655 14.6019 22.2812 14.6123C23.9847 14.6475 25.6239 15.2687 26.9238 16.3701L27.9004 15.1357C27.7089 15.0146 26.5614 14.2997 26.2295 14.0732C25.721 13.7637 25.299 13.3305 25.0039 12.8135C24.709 12.2966 24.5499 11.7132 24.542 11.1182V10.9268H20.0205V11.1182ZM22.2461 15.8154C19.2708 15.8156 16.959 18.0217 16.959 20.8916C16.954 21.5738 17.0874 22.2501 17.3496 22.8799C17.6118 23.5096 17.9978 24.0806 18.4854 24.5576C18.973 25.0346 19.5522 25.4079 20.1875 25.6562C20.8228 25.9046 21.5018 26.0228 22.1836 26.0029C23.6491 25.9748 25.048 25.3827 26.0889 24.3506L25.0811 23.2383C24.3371 23.9834 23.334 24.4124 22.2812 24.4365C21.3431 24.4364 20.4436 24.0638 19.7803 23.4004C19.1169 22.737 18.7442 21.8376 18.7441 20.8994C18.7441 19.9612 19.1168 19.0609 19.7803 18.3975C20.4436 17.7342 21.3432 17.3614 22.2812 17.3613C22.811 17.3726 23.3329 17.4929 23.8145 17.7139C24.296 17.9348 24.7271 18.2523 25.0811 18.6465L26.0732 17.4121C25.0484 16.4107 23.6788 15.8397 22.2461 15.8154Z"></path></svg>