<svg xmlns="http://www.w3.org/2000/svg" width="74" height="74" viewBox="0 0 74 74"><path fill="currentColor" fill-rule="evenodd" clip-rule="evenodd" d="M74 0H0V74H74V0ZM27.4098 33.0694L30.2202 30.0938L29.8103 29.6583C27.8992 27.6277 25.4209 25.9576 21.4709 25.9576C15.3513 25.9576 10.752 30.9839 10.752 36.8669V36.943C10.752 42.7926 15.3558 47.7762 21.4709 47.7762C25.3941 47.7762 27.9131 46.0573 29.9729 43.7598L30.3867 43.2982L27.6059 40.6877L27.1719 41.1534C25.6811 42.7533 23.8964 43.8818 21.6232 43.8818C17.9011 43.8818 15.0269 40.8177 15.0269 36.8669V36.7908C15.0269 32.864 17.838 29.8139 21.4329 29.8139C23.8399 29.8139 25.4346 30.9979 26.9486 32.5857L27.4098 33.0694ZM39.8728 47.4717L32.5441 26.3763H37.016L41.7371 40.7825L46.5646 26.3001H49.9134L54.7778 40.7891L59.501 26.3763H63.8985L56.5292 47.4717H53.0752L48.2373 33.2713L43.3646 47.4717H39.8728Z"></path></svg>