<svg xmlns="http://www.w3.org/2000/svg" viewBox="0 0 85.764 85.59">
  <path fill="currentColor" d="M37.531 85.46c-10.993-1.05-21.511-6.65-28.29-15.064C.918 60.068-1.963 46.802 1.334 34c1.776-6.896 5.722-13.762 10.862-18.901C18.395 8.899 26.623 4.782 35.467 3.452c2.78-.417 9.103-.364 11.997.102 6.503 1.046 13.229 3.914 18.508 7.892l2.117 1.595-4.362 4.394c-2.4 2.416-4.494 4.653-4.655 4.971-1.276 2.517 1.703 5.36 4.239 4.045.345-.18 2.569-2.245 4.942-4.591l4.314-4.265.785.926c.994 1.174 3.342 4.716 4.384 6.614 3.599 6.557 5.327 14.903 4.638 22.406-.5 5.452-1.405 8.902-3.64 13.886-5.58 12.434-17.087 21.35-30.476 23.616-3.019.51-7.804.697-10.727.417zm5.694-20.152c.662-.468 1.261-1.841 1.265-2.897 0-.34.377-.454 1.825-.558 2.266-.162 3.972-.952 5.627-2.605 1.547-1.545 2.227-2.869 2.613-5.081.361-2.076.005-4.958-.81-6.557-.868-1.7-3.428-3.408-7.137-4.762l-1.984-.724-.073-4.525c-.08-5.038-.115-4.954 1.692-4.097 1.207.573 1.902 1.612 2.222 3.32.442 2.358 1.802 3.61 3.563 3.28 2.128-.399 2.991-2.01 2.516-4.697-.55-3.109-2.712-6.166-5.29-7.48-1.144-.584-1.574-.705-3.77-1.064-.546-.09-.993-.306-.994-.48-.004-.87-.609-2.313-1.229-2.933-1.762-1.762-5.12-.167-5.12 2.432 0 .756-.032.773-1.677.905-3.468.278-6.313 2.264-7.805 5.448-.625 1.333-.703 1.814-.695 4.28.01 3.219.47 4.575 2.087 6.145 1.167 1.134 3.846 2.565 6.304 3.368l1.786.584V55.632l-.918-.15c-1.747-.283-2.845-1.534-3.183-3.624-.313-1.939-.955-2.759-2.56-3.267-.79-.25-2.283.351-3.006 1.21-.643.765-.695.993-.588 2.573.184 2.742 1.057 4.621 3.087 6.652 1.932 1.932 3.901 2.886 5.953 2.886h1.147l.136 1.211c.296 2.627 2.83 3.73 5.016 2.185zm1.266-13.053c0-1.819.104-3.307.232-3.307.61 0 2.598.874 3.134 1.378.45.422.603.861.603 1.724 0 2.131-1.168 3.512-2.97 3.512h-.999zm-7.903-12.824c-2.176-.74-2.54-1.302-2.443-3.76.016-.413.399-1.102.919-1.653.742-.787 1.073-.945 1.984-.945h1.093v3.44c0 1.891-.03 3.43-.066 3.42-.036-.01-.705-.236-1.487-.502zM81.92 22.447c-.442-.114-1.156-.576-1.588-1.026l-.783-.818-.133-4.944-.132-4.943-3.37 3.29-3.37 3.29-2.093-2.085-2.094-2.085 3.277-3.454 3.278-3.454-5.045-.133-5.044-.132-.906-.988c-1.273-1.39-1.158-2.943.322-4.314L64.942 0h9.318c9.158 0 9.33.01 10.048.574 1.383 1.088 1.459 1.626 1.455 10.332-.002 4.406-.078 8.466-.17 9.02-.186 1.13-1.313 2.432-2.261 2.613-.335.064-.97.023-1.412-.092z"/>
</svg>
