<svg width="16" height="16" viewBox="0 0 16 16" fill="none" xmlns="http://www.w3.org/2000/svg">
<path d="M11.4156 7.55556C13.5138 7.55556 15.2167 5.86311 15.2167 3.77778C15.2167 1.69244 13.5138 0 11.4156 0C9.31734 0 7.61443 1.69244 7.61443 3.77778C7.61443 5.86311 9.31734 7.55556 11.4156 7.55556ZM15.5588 11.7867C15.2623 11.4844 14.8898 11.3333 14.4565 11.3333H9.13488L7.55361 10.7818L7.80449 10.0716L9.13488 10.5778H11.2635C11.5296 10.5778 11.7425 10.472 11.9173 10.2982C12.0922 10.1244 12.1758 9.91289 12.1758 9.67867C12.1758 9.27067 11.9781 8.99111 11.5828 8.83244L6.05596 6.8H4.57352V13.6L9.89511 15.1111L15.9997 12.8444C16.0073 12.444 15.8553 12.0889 15.5588 11.7867ZM3.05307 6.8H0V15.1111H3.05307V6.8Z" fill="currentColor"/>
</svg>
