<svg width="46" height="46" viewBox="0 0 46 46" fill="none" xmlns="http://www.w3.org/2000/svg">
<g clip-path="url(#clip0_27367_3517)">
<path d="M46 46H0V0H46V46ZM36.8096 22.0996C36.1592 21.4492 35.1045 21.4492 34.4541 22.0996L23.2451 33.3076L17.1328 27.1953C16.4824 26.5449 15.4278 26.5449 14.7773 27.1953C14.1272 27.8457 14.127 28.9004 14.7773 29.5508L22.0381 36.8105C22.4042 37.1766 22.898 37.3361 23.376 37.29C23.7693 37.2672 24.1565 37.1081 24.457 36.8076L36.8096 24.4551C37.4599 23.8047 37.4599 22.75 36.8096 22.0996ZM30.9346 16.2197C30.2842 15.5693 29.2295 15.5694 28.5791 16.2197L21.3184 23.4795C20.668 24.1298 20.6681 25.1846 21.3184 25.835C21.9688 26.4854 23.0234 26.4853 23.6738 25.835L30.9346 18.5752C31.5848 17.9249 31.5846 16.8701 30.9346 16.2197ZM24.5889 9.88086C23.9385 9.23045 22.8838 9.23045 22.2334 9.88086L9.88086 22.2334C9.23045 22.8838 9.23045 23.9385 9.88086 24.5889C10.5312 25.2387 11.5851 25.2388 12.2354 24.5889L24.5889 12.2354C25.2388 11.5851 25.2387 10.5312 24.5889 9.88086Z" fill="#222222"/>
</g>
<defs>
<clipPath id="clip0_27367_3517">
<rect width="46" height="46" rx="13.6757" fill="white"/>
</clipPath>
</defs>
</svg>
