<svg width="24" height="24" viewBox="0 0 24 24" fill="none" xmlns="http://www.w3.org/2000/svg">
<path d="M18.9702 7.37C18.9475 7.2855 18.9065 7.207 18.8502 7.14L14.8502 3.14C14.7867 3.07876 14.7068 3.03711 14.6202 3.02C14.6002 3.02 14.5802 3.02 14.5602 3.01C14.5402 3.01 14.5202 3 14.4902 3H8.49023C6.56023 3 4.99023 4.57 4.99023 6.5V17.5C4.99023 19.43 6.56023 21 8.49023 21H15.4902C17.4202 21 18.9902 19.43 18.9902 17.5V7.5C18.9902 7.5 18.9902 7.46 18.9802 7.44C18.9802 7.42 18.9802 7.4 18.9702 7.38V7.37ZM15.5002 20H8.50023C7.83719 20 7.20131 19.7366 6.73247 19.2678C6.26363 18.7989 6.00023 18.163 6.00023 17.5V6.5C6.00023 5.83696 6.26363 5.20107 6.73247 4.73223C7.20131 4.26339 7.83719 4 8.50023 4H14.0002V6C14.0002 7.1 14.9002 8 16.0002 8H18.0002V17.5C18.0002 18.163 17.7368 18.7989 17.268 19.2678C16.7992 19.7366 16.1633 20 15.5002 20Z" fill="currentColor"/>
<path d="M15.5 10H8.5C8.22 10 8 10.22 8 10.5C8 10.78 8.22 11 8.5 11H15.5C15.78 11 16 10.78 16 10.5C16 10.22 15.78 10 15.5 10ZM15.5 13H8.5C8.22 13 8 13.22 8 13.5C8 13.78 8.22 14 8.5 14H15.5C15.78 14 16 13.78 16 13.5C16 13.22 15.78 13 15.5 13ZM15.5 16H8.5C8.22 16 8 16.22 8 16.5C8 16.78 8.22 17 8.5 17H15.5C15.78 17 16 16.78 16 16.5C16 16.22 15.78 16 15.5 16ZM8.5 8H11.5C11.78 8 12 7.78 12 7.5C12 7.22 11.78 7 11.5 7H8.5C8.22 7 8 7.22 8 7.5C8 7.78 8.22 8 8.5 8Z" fill="currentColor"/>
</svg>
