<svg width="46" height="46" viewBox="0 0 46 46" fill="none" xmlns="http://www.w3.org/2000/svg">
<g clip-path="url(#clip0_27367_3534)">
<path d="M46 46H0V0H46V46ZM20.2852 15.6367C19.807 15.6023 19.3268 15.6024 18.8486 15.6367C18.2041 15.6847 17.5657 15.7998 16.9443 15.9805C15.5342 16.3828 14.2511 17.1518 13.2207 18.2109C12.2476 19.2296 11.5116 20.4576 11.0684 21.8047C10.7519 22.7193 10.5622 23.6747 10.5049 24.6426C10.4954 24.7501 10.4804 24.857 10.46 24.9629V25.6914C10.4861 25.7875 10.5074 25.8849 10.5225 25.9834C10.5447 26.3311 10.5948 26.6766 10.6738 27.0156C10.8318 27.7792 11.1712 28.4923 11.6621 29.0918C12.1531 29.6913 12.7815 30.1593 13.4912 30.4551C14.2 30.7594 14.9501 30.9528 15.7158 31.0283C16.4653 31.1 17.2203 31.1 17.9697 31.0283C18.7441 30.9494 19.5099 30.7975 20.2568 30.5752C20.673 30.4591 21.0782 30.3052 21.4678 30.1162C21.5833 30.0607 21.6862 29.9813 21.7695 29.8828C21.853 29.7841 21.9154 29.6677 21.9521 29.543C21.9824 29.455 22.007 29.3647 22.0254 29.2734C22.1155 28.8265 22.1999 28.3737 22.29 27.9268C22.5942 26.379 22.9043 24.8312 23.2197 23.249C23.2433 23.1091 23.2529 22.9671 23.248 22.8252C23.2419 22.7022 23.1971 22.5842 23.1201 22.4893C23.0431 22.3944 22.9377 22.3273 22.8203 22.2979C22.7586 22.2894 22.6955 22.2894 22.6338 22.2979H17.6934C17.634 22.2965 17.5752 22.3092 17.5215 22.335C17.4678 22.3608 17.4205 22.3988 17.3838 22.4463C17.2781 22.5841 17.1962 22.7396 17.1416 22.9053C17.033 23.2416 16.9625 23.5896 16.9326 23.9424C16.9185 24.0776 16.9185 24.2144 16.9326 24.3496C16.9361 24.3843 16.9465 24.4186 16.9629 24.4492C16.9792 24.4798 17.0017 24.5065 17.0283 24.5283C17.055 24.5502 17.0862 24.5665 17.1191 24.5762C17.152 24.5858 17.1868 24.5889 17.2207 24.585H19.958C19.9618 24.6307 19.9618 24.6769 19.958 24.7227C19.7496 25.7829 19.5355 26.8489 19.3271 27.9092C19.324 27.954 19.3082 27.9976 19.2812 28.0332C19.2542 28.0689 19.2167 28.0958 19.1748 28.1104C18.5568 28.377 17.892 28.5137 17.2207 28.5117C16.6566 28.5273 16.0944 28.4336 15.5645 28.2363C15.1914 28.1045 14.8483 27.8961 14.5576 27.624C14.2669 27.3519 14.0342 27.0217 13.874 26.6543C13.6659 26.1497 13.5587 25.6078 13.5586 25.0605C13.5613 24.637 13.6051 24.2148 13.6885 23.7998C13.8457 22.6826 14.2498 21.6156 14.8711 20.6807C15.3723 19.9094 16.0434 19.2677 16.8311 18.8066C17.5215 18.4045 18.2917 18.1636 19.085 18.1016C19.4394 18.0786 19.795 18.0786 20.1494 18.1016C20.4915 18.1233 20.8316 18.1767 21.1641 18.2617C21.8763 18.4557 22.5562 18.7575 23.1807 19.1562C23.2875 19.223 23.4008 19.2786 23.5186 19.3223C23.5486 19.34 23.5817 19.3513 23.6162 19.3555C23.6506 19.3596 23.6856 19.3568 23.7188 19.3467C23.7519 19.3365 23.7831 19.3196 23.8096 19.2969C23.836 19.2741 23.8577 19.2455 23.873 19.2139C23.9559 19.101 24.0243 18.9773 24.0762 18.8467C24.2503 18.3701 24.3357 17.8648 24.3291 17.3564C24.3361 17.2261 24.3078 17.0959 24.2461 16.9814C24.1844 16.8671 24.0921 16.773 23.9805 16.709C23.7664 16.5829 23.5576 16.4508 23.3379 16.3477C22.3693 15.9299 21.3359 15.6891 20.2852 15.6367ZM32.1309 15.6104L31.6699 15.6641C30.8847 15.7149 30.117 15.896 29.4082 16.1982C28.2139 16.711 27.2931 17.615 26.8428 18.7168C26.6493 19.1885 26.5454 19.6851 26.5342 20.1865C26.5072 20.626 26.56 21.0667 26.6914 21.4912C26.9185 22.2474 27.4114 22.9213 28.0986 23.416C28.7046 23.8371 29.3432 24.2204 30.0088 24.5645C30.2901 24.7111 30.5573 24.8783 30.8086 25.0625C30.9902 25.1959 31.1552 25.3459 31.2998 25.5107C31.487 25.7222 31.6032 25.9763 31.6338 26.2432C31.6519 26.4049 31.6519 26.5687 31.6338 26.7305C31.5941 27.0711 31.4561 27.3972 31.2334 27.6777C31.0106 27.9584 30.7099 28.1845 30.3604 28.334C29.9371 28.5245 29.4711 28.6299 28.9961 28.6436C28.3284 28.6819 27.6589 28.5889 27.0371 28.3711C26.5342 28.1826 26.0532 27.9517 25.6006 27.6816C25.4887 27.6149 25.368 27.559 25.2422 27.5156C25.2085 27.5002 25.1716 27.491 25.1338 27.4883C25.0959 27.4855 25.0576 27.4895 25.0215 27.5C24.9854 27.5105 24.9515 27.5268 24.9229 27.5488C24.8943 27.5708 24.8712 27.5979 24.8545 27.6279C24.8091 27.6792 24.7704 27.735 24.7393 27.7939C24.6815 27.9089 24.631 28.0266 24.5879 28.1465C24.4572 28.5495 24.3734 28.9638 24.3389 29.3818C24.3169 29.5174 24.3383 29.6558 24.4004 29.7812C24.4625 29.9067 24.5628 30.0148 24.6904 30.0928C24.846 30.1952 25.0082 30.2896 25.1758 30.376C25.9312 30.7255 26.754 30.9481 27.6016 31.0332L28.0312 31.082L29.0928 31.0605H29.2139L29.7109 31.0176C30.5225 30.9289 31.3094 30.7114 32.0332 30.376C33.3256 29.7992 34.3089 28.7961 34.7686 27.585C34.9798 27.1027 35.104 26.5942 35.1377 26.0781C35.1511 25.641 35.0881 25.2042 34.9502 24.7842C34.6897 24.0617 34.1862 23.4257 33.5068 22.9609C32.9136 22.557 32.2939 22.184 31.6514 21.8438C31.3544 21.6674 31.0756 21.4912 30.7969 21.3096C30.5622 21.1626 30.3572 20.9813 30.1904 20.7744C30.0139 20.5538 29.918 20.2905 29.917 20.0205C29.905 19.8909 29.905 19.7605 29.917 19.6309C29.9656 19.264 30.1399 18.9184 30.416 18.6406C30.6921 18.3629 31.0578 18.1658 31.4639 18.0752C32.1198 17.9199 32.8127 17.9364 33.458 18.123C33.9772 18.2679 34.4744 18.469 34.9375 18.7217C35.0376 18.7796 35.1456 18.827 35.2588 18.8613C35.2882 18.8741 35.3208 18.881 35.3535 18.8828C35.3862 18.8846 35.4192 18.8805 35.4502 18.8711C35.4811 18.8616 35.5098 18.8473 35.5342 18.8281C35.5586 18.809 35.5785 18.7857 35.5928 18.7598C35.6693 18.655 35.7346 18.5434 35.7871 18.4277C35.9611 17.9673 36.0546 17.4862 36.0654 17.001C36.074 16.8824 36.047 16.7633 35.9863 16.6572C35.9256 16.551 35.8331 16.4609 35.7197 16.3965C35.5712 16.3058 35.4171 16.2222 35.2588 16.1455C34.621 15.886 33.939 15.7217 33.2402 15.6592L32.791 15.6104H32.1309Z" fill="#222222"/>
</g>
<defs>
<clipPath id="clip0_27367_3534">
<rect width="46" height="46" rx="13.4437" fill="white"/>
</clipPath>
</defs>
</svg>
