<svg width="16" height="14" viewBox="0 0 16 14" fill="none" xmlns="http://www.w3.org/2000/svg">
<path d="M6.4367 0.465681C6.90148 0.161824 7.44474 0 8.00004 0C8.55533 0 9.09859 0.161824 9.56337 0.465681L15.7413 4.5043C15.8202 4.55586 15.8851 4.62614 15.9302 4.70887C15.9753 4.79159 15.9993 4.88419 16 4.97843C16.0007 5.07266 15.978 5.1656 15.9341 5.24897C15.8901 5.33233 15.8263 5.40354 15.7481 5.45624L9.60223 9.61599C9.12943 9.93607 8.57156 10.1071 8.00061 10.1071C7.42965 10.1071 6.87179 9.93607 6.39899 9.61599L1.14331 6.06077V9.66856C1.14331 9.8201 1.08311 9.96544 0.975949 10.0726C0.868792 10.1798 0.723455 10.24 0.571912 10.24C0.420369 10.24 0.275032 10.1798 0.167875 10.0726C0.060718 9.96544 0.000517701 9.8201 0.000517701 9.66856V5.0974L0.00280325 5.04026C-0.00753953 4.93623 0.0108588 4.83135 0.0559948 4.73705C0.101131 4.64275 0.171274 4.56264 0.258788 4.50544L6.4367 0.465681ZM2.28609 10.8102V8.21264L5.75789 10.5634C6.41979 11.0114 7.20075 11.2509 8.00004 11.2509C8.79933 11.2509 9.58029 11.0114 10.2422 10.5634L13.714 8.21264V10.8113C13.714 10.947 13.6658 11.0782 13.578 11.1816L13.5768 11.1839L13.5746 11.1862L13.5677 11.1942L13.5448 11.2193L13.4671 11.3039C13.3732 11.402 13.2764 11.4972 13.1769 11.5896C12.9255 11.8216 12.5563 12.1278 12.0809 12.4352C11.1324 13.0478 9.73936 13.6695 8.00118 13.6695C6.26071 13.6695 4.8688 13.0478 3.91914 12.4352C3.53008 12.1856 3.1634 11.9026 2.82321 11.5896C2.69497 11.4718 2.57218 11.3483 2.45523 11.2193L2.43237 11.1942L2.42551 11.1862L2.42323 11.1839L2.85749 10.8125C2.42209 11.1816 2.42323 11.1828 2.42323 11.1828C2.33472 11.0792 2.28608 10.9475 2.28609 10.8113" fill="currentColor"/>
</svg>
