<svg xmlns="http://www.w3.org/2000/svg" viewBox="0 0 79.071 79.127">
  <path fill="currentColor" d="M31.73 73.295v-5.832h15.588l.078 1.918.077 1.918 3.704.078c2.038.043 4.478-.054 5.424-.215 2.851-.486 4.967-2.08 6.138-4.625.605-1.314.61-1.418.742-15.081.097-10.18.216-13.906.457-14.325.178-.312.693-.878 1.144-1.257.757-.637 1.013-.69 3.314-.69 1.818 0 2.493-.09 2.493-.33 0-.183-.293-1.538-.65-3.012-1.366-5.636-4.063-10.384-8.335-14.669-5.67-5.687-11.574-8.482-19.508-9.234-15.717-1.49-30.647 9.403-33.793 24.654-.231 1.122-.42 2.163-.42 2.315 0 .17.869.276 2.262.276 2.523 0 3.361.3 4.453 1.598l.693.824-.001 11.423c-.001 10.931-.024 11.46-.527 12.285-.982 1.61-1.849 1.914-5.481 1.915-2.603 0-3.511-.104-4.67-.537-1.8-.674-3.655-2.285-4.397-3.817-.561-1.16-.567-1.331-.463-13.16.116-13.228.125-13.31 1.96-18.733C5.156 17.69 11.268 10.224 19.91 5.117 25.673 1.711 32.221-.007 39.403 0 50.166.011 59.374 3.736 67.15 11.224c5.605 5.399 9.455 12.297 11.304 20.256.392 1.688.477 3.768.566 13.934.105 11.841.1 11.963-.476 13.303-1.065 2.475-4.065 4.513-6.644 4.513-.702 0-.746.066-.746 1.135 0 2.748-1.734 6.96-3.871 9.403-1.575 1.8-4.084 3.57-6.347 4.476l-1.82.728-13.692.078-13.692.077z"/>
</svg>
