<svg width="16" height="17" viewBox="0 0 16 17" fill="none" xmlns="http://www.w3.org/2000/svg">
<path d="M5.43676 14.4064L6.91571 12.9274C7.04763 12.8024 7.22126 12.726 7.40178 12.7191C7.66561 12.726 7.9017 12.8927 7.99891 13.1357C8.09613 13.3787 8.04057 13.6634 7.86004 13.8509L6.37414 15.3437C6.1103 15.5937 5.70059 15.5937 5.4437 15.3368C5.1868 15.0799 5.17985 14.6632 5.43676 14.4064ZM3.687 13.594C3.81198 13.7189 3.97862 13.7953 4.15221 13.7953C4.3258 13.7953 4.49939 13.7259 4.61743 13.594L6.1103 12.1011C6.36024 11.8373 6.35328 11.4207 6.0964 11.1707C5.83946 10.9138 5.42287 10.9207 5.16596 11.1707L3.687 12.6496C3.43009 12.9066 3.43009 13.3301 3.687 13.594ZM1.93723 10.9068C1.68727 11.1707 1.68727 11.5803 1.94418 11.8373C2.20109 12.0941 2.6177 12.1011 2.87461 11.8442L4.36052 10.3514L4.38135 10.3305C4.61743 10.0667 4.60354 9.65701 4.33968 9.41398C4.08278 9.17094 3.67311 9.17094 3.4162 9.41398L1.92335 10.9068H1.93723ZM0.0833215 9.9625C0.187474 10.1361 0.368004 10.2611 0.576307 10.2819C0.784616 10.3028 0.985974 10.2402 1.13179 10.0944L2.6177 8.60157C2.86766 8.33773 2.86766 7.92808 2.61076 7.67114C2.35385 7.41426 1.93723 7.41426 1.68032 7.67114L0.916539 8.42799C0.576307 8.81685 -0.277741 9.36537 0.0902649 9.96945L0.0833215 9.9625ZM8.81822 2.39409C8.92239 2.28299 9.07516 2.2205 9.22793 2.2205C9.38065 2.2205 9.52647 2.28299 9.63759 2.39409L14.4702 7.22678C14.991 6.60184 15.3313 5.84499 15.4562 5.0465C15.5812 4.24106 15.484 3.42173 15.1715 2.67183C14.0606 -0.320819 9.88062 -0.91796 7.86004 1.48449L5.52007 3.82445L5.7631 4.06747C6.15196 4.44937 6.76989 4.44937 7.15875 4.06747L8.83212 2.39409H8.81822ZM0.867938 6.85183C1.38176 6.34496 2.14554 6.19219 2.81211 6.45602C3.48564 6.71991 3.93696 7.35175 3.96474 8.0739C4.90905 8.1225 5.65894 8.8793 5.70755 9.82363C6.65883 9.86529 7.41568 10.6291 7.45734 11.5734C8.97795 11.5456 9.81811 13.6773 8.6655 14.6841L8.2836 15.066L9.15152 15.9339C9.41541 16.1839 9.83202 16.1839 10.0889 15.92C10.3458 15.6631 10.3458 15.2396 10.0889 14.9826C9.87367 14.7535 9.88062 14.4064 10.1028 14.1841C10.325 13.962 10.6722 13.962 10.9013 14.1703C11.1582 14.4272 11.5818 14.4272 11.8387 14.1703C12.0956 13.9133 12.0956 13.4898 11.8387 13.226C11.7137 13.0871 11.6581 12.8996 11.6929 12.7191C11.7276 12.5386 11.8456 12.3788 12.0123 12.3025C12.2275 12.2053 12.4844 12.2469 12.658 12.4135C12.9149 12.6566 13.3107 12.6566 13.5676 12.4205C13.8245 12.1844 13.8523 11.7817 13.6301 11.5109C13.5121 11.4068 13.4357 11.254 13.4357 11.0943C13.4357 10.9346 13.4982 10.7749 13.6093 10.6638C13.7273 10.5527 13.8801 10.4972 14.0467 10.5041C14.2064 10.511 14.3591 10.5943 14.4563 10.7194C14.7341 10.9346 15.1299 10.8999 15.359 10.636C15.5951 10.3791 15.5882 9.97641 15.3451 9.72642L9.22793 3.6092L7.95726 4.87986C7.12404 5.71307 5.77006 5.71307 4.93683 4.87986L4.29108 4.23412C4.06889 4.01193 4.06889 3.64392 4.29108 3.42173L6.56161 1.15814C5.4437 0.512401 4.09667 0.401305 2.88155 0.845687C1.66644 1.28313 0.708236 2.24133 0.270796 3.4495C-0.173588 4.66461 -0.0555488 6.01166 0.583254 7.12957L0.867938 6.84488V6.85183Z" fill="currentColor"/>
</svg>
