<?xml version="1.0" encoding="UTF-8" standalone="no"?>
<svg
   width="42"
   height="42"
   viewBox="0 0 42 42"
   fill="none"
   version="1.1"
   id="svg4"
   xmlns="http://www.w3.org/2000/svg"
   xmlns:svg="http://www.w3.org/2000/svg">
  <g
     clip-path="url(#clip0_21341_54735)"
     id="g3">
    <path
       id="path1"
       style="fill:#ffffff"
       d="M -0.03125,4.9042969 V 37.572266 h 42 V 4.9042969 Z m 24.705078,6.2246091 c 5.9909,0 8.986328,3.079835 8.986328,9.240235 0,5.0673 -1.88545,8.059409 -5.65625,8.974609 l 2.949219,3.431641 -2.658203,2.021484 -4.13086,-5.238281 c -5.474,0 -8.345987,-3.062953 -8.617187,-9.189453 0,-6.1604 3.042853,-9.240235 9.126953,-9.240235 z M 8.9882812,11.255859 H 12.357422 V 29.431641 H 8.9882812 Z m 15.6855468,2.796875 c -3.7538,0 -5.630859,2.079635 -5.630859,6.240235 0,4.2284 1.877059,6.34375 5.630859,6.34375 3.6607,0 5.490234,-2.11535 5.490234,-6.34375 0,-4.1606 -1.829534,-6.240235 -5.490234,-6.240235 z" />
  </g>
  <defs
     id="defs4">
    <clipPath
       id="clip0_21341_54735">
      <path
         d="M 0,14.2376 C 0,9.08297 4.17868,4.9043 9.33333,4.9043 H 32.6667 C 37.8213,4.9043 42,9.08297 42,14.2376 v 14 c 0,5.1547 -4.1787,9.3334 -9.3333,9.3334 H 9.33333 C 4.17868,37.571 0,33.3923 0,28.2376 Z"
         fill="#ffffff"
         id="path4" />
    </clipPath>
  </defs>
</svg>
