<svg width="46" height="46" viewBox="0 0 46 46" fill="none" xmlns="http://www.w3.org/2000/svg">
<path d="M46 46H0V0H46V46ZM26.2832 14.3818C20.6113 14.3818 17.7755 17.2944 17.7754 23.1191C18.0282 28.912 20.7064 31.8086 25.8096 31.8086L29.6602 36.7607L32.1367 34.8496L29.3877 31.6045C32.9031 30.7392 34.6611 27.9105 34.6611 23.1191C34.661 17.2944 31.8682 14.3818 26.2832 14.3818ZM11.6611 14.502V31.6885H14.8008V14.502H11.6611ZM26.2832 17.1465C29.6959 17.1465 31.4023 19.1138 31.4023 23.0479C31.4022 27.0457 29.6957 29.0449 26.2832 29.0449C22.7838 29.0449 21.0343 27.0457 21.0342 23.0479C21.0342 19.1138 22.7836 17.1465 26.2832 17.1465Z" fill="currentColor"/>
</svg>
