<svg width="24" height="24" viewBox="0 0 24 24" fill="none" xmlns="http://www.w3.org/2000/svg">
<path d="M12 17.4C11.5226 17.4 11.0648 17.5896 10.7272 17.9272C10.3896 18.2648 10.2 18.7226 10.2 19.2C10.2 19.6774 10.3896 20.1352 10.7272 20.4728C11.0648 20.8104 11.5226 21 12 21C12.4774 21 12.9352 20.8104 13.2728 20.4728C13.6104 20.1352 13.8 19.6774 13.8 19.2C13.8 18.7226 13.6104 18.2648 13.2728 17.9272C12.9352 17.5896 12.4774 17.4 12 17.4ZM12 3C11.7636 3 11.5296 3.04656 11.3112 3.13702C11.0928 3.22748 10.8944 3.36006 10.7272 3.52721C10.5601 3.69435 10.4275 3.89278 10.337 4.11117C10.2466 4.32956 10.2 4.56362 10.2 4.8C10.2 5.03638 10.2466 5.27044 10.337 5.48883C10.4275 5.70722 10.5601 5.90565 10.7272 6.07279C10.8944 6.23994 11.0928 6.37252 11.3112 6.46298C11.5296 6.55344 11.7636 6.6 12 6.6C12.2364 6.6 12.4704 6.55344 12.6888 6.46298C12.9072 6.37252 13.1056 6.23994 13.2728 6.07279C13.4399 5.90565 13.5725 5.70722 13.663 5.48883C13.7534 5.27044 13.8 5.03638 13.8 4.8C13.8 4.56362 13.7534 4.32956 13.663 4.11117C13.5725 3.89278 13.4399 3.69435 13.2728 3.52721C13.1056 3.36006 12.9072 3.22748 12.6888 3.13702C12.4704 3.04656 12.2364 3 12 3ZM8.18 18.36C7.48 19.06 6.34 19.06 5.63 18.36C4.93 17.66 4.93 16.52 5.63 15.81C6.33 15.11 7.47 15.11 8.18 15.81C8.88 16.51 8.88 17.65 8.18 18.36ZM18.36 8.18C17.66 8.88 16.52 8.88 15.81 8.18C15.11 7.48 15.11 6.34 15.81 5.63C16.51 4.93 17.65 4.93 18.36 5.63C19.06 6.33 19.06 7.47 18.36 8.18ZM4.8 13.8C3.81 13.8 3 12.99 3 12C3 11.01 3.81 10.2 4.8 10.2C5.79 10.2 6.6 11.01 6.6 12C6.6 12.99 5.79 13.8 4.8 13.8ZM19.2 13.8C18.21 13.8 17.4 12.99 17.4 12C17.4 11.01 18.21 10.2 19.2 10.2C20.19 10.2 21 11.01 21 12C21 12.99 20.19 13.8 19.2 13.8ZM5.64 8.18C4.94 7.48 4.94 6.34 5.64 5.63C6.34 4.93 7.48 4.93 8.19 5.63C8.89 6.33 8.89 7.47 8.19 8.18C7.49 8.88 6.35 8.88 5.64 8.18ZM15.82 18.37C15.12 17.67 15.12 16.53 15.82 15.82C16.52 15.12 17.66 15.12 18.37 15.82C19.07 16.52 19.07 17.66 18.37 18.37C17.67 19.07 16.53 19.07 15.82 18.37Z" fill="currentColor"/>
</svg>
