<svg width="24" height="24" viewBox="0 0 24 24" fill="none" xmlns="http://www.w3.org/2000/svg">
<path d="M7.5 10H16.5C16.78 10 17 9.78 17 9.5C17 9.22 16.78 9 16.5 9H7.5C7.22 9 7 9.22 7 9.5C7 9.78 7.22 10 7.5 10ZM7.5 13H13.5C13.78 13 14 12.78 14 12.5C14 12.22 13.78 12 13.5 12H7.5C7.22 12 7 12.22 7 12.5C7 12.78 7.22 13 7.5 13Z" fill="#222222"/>
<path d="M6.5 18.01H7V19.76C7 20.36 7.34 20.89 7.89 21.13C8.1561 21.2487 8.45101 21.2873 8.7387 21.2411C9.02639 21.195 9.2944 21.066 9.51 20.87L12.7 18H17.51C19.44 18 21.01 16.43 21.01 14.5V7.5C21.01 5.57 19.44 4 17.51 4H6.5C4.57 4 3 5.57 3 7.5V14.5C3 16.43 4.57 18 6.5 18V18.01ZM4 7.51C4 6.84696 4.26339 6.21107 4.73223 5.74223C5.20107 5.27339 5.83696 5.01 6.5 5.01H17.5C18.163 5.01 18.7989 5.27339 19.2678 5.74223C19.7366 6.21107 20 6.84696 20 7.51V14.51C20 15.173 19.7366 15.8089 19.2678 16.2778C18.7989 16.7466 18.163 17.01 17.5 17.01H12.5C12.38 17.01 12.26 17.06 12.17 17.14L8.84 20.14C8.62 20.34 8.37 20.26 8.3 20.22C8.21056 20.181 8.1345 20.1166 8.08119 20.0349C8.02788 19.9531 7.99966 19.8576 8 19.76V17.51C8 17.23 7.78 17.01 7.5 17.01H6.5C5.83696 17.01 5.20107 16.7466 4.73223 16.2778C4.26339 15.8089 4 15.173 4 14.51V7.51Z" fill="currentColor"/>
</svg>
