<svg xmlns="http://www.w3.org/2000/svg" width="42" height="42" viewBox="0 0 42 42" fill="none"><path d="M42 42H0V0H42V42ZM32.3701 15.752C31.7479 15.7171 31.1278 15.8474 30.5723 16.1299C30.0167 16.4124 29.5454 16.8369 29.207 17.3604H29.0918C28.9331 16.615 28.8278 16.142 28.7773 15.9424H26.9561V29.2334H29.207V26.918C29.207 26.7339 29.1634 26.1853 29.0732 25.291H29.207C29.5737 25.7653 30.0494 26.1443 30.5938 26.3955C31.0703 26.6153 31.5873 26.732 32.1104 26.7383L32.334 26.7197C32.93 26.7466 33.5242 26.6291 34.0654 26.3779C34.6064 26.1269 35.0791 25.7496 35.4434 25.2773C36.1912 24.3084 36.5669 22.9592 36.5693 21.2305C36.5717 19.5017 36.2025 18.1561 35.4619 17.1943C35.1015 16.7222 34.632 16.344 34.0938 16.0928C33.5554 15.8415 32.9636 15.725 32.3701 15.752ZM17.5957 15.752C16.9183 15.7399 16.2475 15.8902 15.6406 16.1914C15.0932 16.468 14.6349 16.8933 14.3174 17.418H14.166C13.6322 16.3071 12.5493 15.752 10.9189 15.752C10.28 15.7447 9.64778 15.8854 9.07227 16.1631C8.53799 16.4152 8.09176 16.822 7.79199 17.3311H7.67969L7.3623 15.9424H5.59863V26.5391H7.8457V21.2773C7.8457 19.9609 8.05206 19.0194 8.45605 18.4531C8.67884 18.164 8.97007 17.9351 9.30371 17.7871C9.63749 17.6391 10.0032 17.5765 10.3672 17.6055C10.6381 17.5823 10.911 17.6243 11.1621 17.7285C11.4132 17.8327 11.6357 17.996 11.8105 18.2041C12.1536 18.7403 12.3147 19.3728 12.2715 20.0078V26.5391H14.5332V20.9492C14.5332 19.8095 14.7321 18.9685 15.1396 18.4238C15.5473 17.8794 16.1861 17.6055 17.0625 17.6055C17.333 17.5836 17.6048 17.6265 17.8555 17.7305C18.1064 17.8346 18.3293 17.9969 18.5049 18.2041C18.8509 18.7391 19.0147 19.3722 18.9707 20.0078V26.5391H21.2285V19.6328C21.2285 18.3236 20.943 17.3529 20.3623 16.7109C19.7816 16.069 18.8617 15.752 17.5957 15.752ZM22.9521 26.5176H25.2207V15.9355H22.9521V26.5176ZM31.79 17.6055C32.1505 17.5865 32.5096 17.6609 32.833 17.8213C33.1565 17.9818 33.4337 18.2228 33.6367 18.5215C34.0551 19.131 34.2637 20.0404 34.2637 21.2197C34.2636 22.399 34.0509 23.3119 33.6289 23.9502C33.4396 24.2547 33.173 24.5035 32.8564 24.6719C32.5398 24.8403 32.1845 24.9224 31.8262 24.9092C30.898 24.9068 30.2291 24.617 29.8203 24.04C29.4115 23.463 29.207 22.5285 29.207 21.2373V20.9023C29.2094 19.7434 29.4159 18.9011 29.8271 18.377C30.1869 17.9183 30.7321 17.6609 31.4619 17.6035L31.79 17.6055ZM22.9521 14.5068H25.2246V13.2881L22.9521 11.0303V14.5068Z" fill="currentColor"></path></svg>