<svg xmlns="http://www.w3.org/2000/svg" viewBox="0 0 46.027 46.183">
  <path fill="currentColor" d="M16.366 45.904c-2.221-.83-3.691-2.236-4.479-4.28-.457-1.188-.393-3.857.117-4.843l.436-.842-2.238-2.979-2.239-2.978-1.49-.052c-1.925-.067-3.54-.855-4.887-2.385C.364 26.155-.006 25.058 0 22.838c.006-2.015.622-3.383 2.158-4.794 1.744-1.6 3.491-2.023 6.729-1.625.433.053.977-.494 2.401-2.417l1.842-2.485-.781-1.442C10.068 5.863 12.855.61 17.672.041c3.669-.433 7.409 2.66 7.54 6.237l.048 1.328 4.491 1.82 4.49 1.82.988-.714c2.722-1.972 6.358-1.672 8.831.73 1.38 1.34 1.958 2.763 1.962 4.829.005 2.795-1.301 4.98-3.728 6.234l-.762.394v5.479l.784.324c1.1.456 3.046 2.617 3.445 3.826.53 1.605.236 4.556-.581 5.838-1.317 2.064-2.893 3.062-5.12 3.24-2.281.184-3.346-.07-4.737-1.133l-1.195-.912-4.48.923c-2.465.507-4.536.922-4.604.922-.068 0-.19.268-.273.596-.28 1.11-1.727 2.742-3.088 3.483-1.615.88-3.886 1.135-5.317.6zm3.741-5.142c.749-.952.677-2.22-.174-3.071-2.018-2.018-5.037.834-3.266 3.085.875 1.113 2.559 1.106 3.44-.014zM40.76 36.22c.862-.862.96-1.537.386-2.648-.437-.845-.881-1.077-2.065-1.077-2.235 0-2.866 3.093-.855 4.193.899.491 1.728.338 2.534-.468zm-11.917-.42c1.792-.364 3.273-.692 3.291-.727.019-.035.168-.737.332-1.56.406-2.04 1.398-3.503 3.123-4.607l1.446-.925V22.716l-.992-.511c-2.054-1.058-3.453-3.123-3.693-5.447l-.144-1.39-4.433-1.768-4.432-1.767-1.237.834c-.972.656-1.626.871-3.057 1.005l-1.82.17-2.166 2.879-2.166 2.878.467 1.54c.576 1.903.402 3.5-.577 5.3l-.705 1.294.638.88c.35.485 1.172 1.601 1.825 2.481l1.188 1.6 2.12-.124c1.57-.092 2.373-.015 3.101.297 1.233.528 2.761 1.856 3.271 2.843.215.414.61.754.877.754s1.951-.299 3.743-.663zM8.34 24.703c1.412-1.411.421-3.848-1.564-3.848-.696 0-1.078.194-1.6.814-.748.889-.85 1.555-.376 2.444.744 1.398 2.448 1.682 3.54.59zm32.42-7.003c.862-.862.96-1.537.386-2.647-.437-.846-.881-1.078-2.065-1.078-1.93 0-2.804 2.498-1.345 3.85.962.892 2.052.847 3.024-.125zM19.816 8.527c1.613-1.357.69-3.813-1.435-3.813-2.354 0-3.114 3-1.058 4.178.844.484 1.619.37 2.493-.365z"/>
</svg>
