<?xml version="1.0" encoding="UTF-8" standalone="no"?>
<svg
   viewBox="0 0 1027.391 799.46503"
   version="1.1"
   id="svg1"
   width="1027.391"
   height="799.46503"
   xmlns="http://www.w3.org/2000/svg"
   xmlns:svg="http://www.w3.org/2000/svg">
  <defs
     id="defs1" />
  <path
     fill="currentColor"
     d="M 799.888,0.001 H 228.356 C 102.399,0.001 0,102.4 0,228.357 v 342.752 c 0,126.393 102.399,228.356 228.356,228.356 h 571.105 c 123.817,0 223.639,-98.541 227.93,-221.076 V 221.076 C 1023.533,98.541 923.282,0 799.461,0 Z M 302.47,600.667 H 220.207 V 155.524 h 82.263 z m 383.026,-2.141 72.406,83.972 -65.126,49.27 L 591.665,603.67 c -134.096,0 -204.362,-74.978 -210.791,-224.931 0,-150.811 74.546,-226.216 223.217,-226.216 146.529,0 219.786,75.405 219.786,226.216 0,124.246 -46.271,197.082 -138.387,219.786 z m 53.128,-221.935 c 0,103.681 -44.99,155.091 -134.533,155.091 -91.683,0 -137.954,-51.842 -137.954,-155.091 0,-103.249 45.846,-152.951 137.954,-152.951 89.543,0 134.533,50.988 134.533,152.951 z"
     id="path1" />
</svg>
