<svg width="24" height="24" viewBox="0 0 24 24" fill="none" xmlns="http://www.w3.org/2000/svg">
<path d="M17.5 4H6.5C4.57 4 3 5.57 3 7.5V16.5C3 18.43 4.57 20 6.5 20H17.5C19.43 20 21 18.43 21 16.5V7.5C21 5.57 19.43 4 17.5 4ZM11.78 9L9.38 5H12.21L14.61 9H11.78ZM15.78 9L13.38 5H16.21L18.61 9H15.78ZM8.21 5L10.61 9H7.78L5.5 5.21C5.8 5.08 6.14 5 6.49 5H8.21ZM3.99 7.5C3.99 6.84 4.25 6.23 4.68 5.79L6.61 9H3.99V7.5ZM19.99 16.5C19.99 17.88 18.87 19 17.49 19H6.5C5.12 19 4 17.88 4 16.5V10H20V16.5H19.99ZM19.99 9H19.77L17.37 5H17.49C18.87 5 19.99 6.12 19.99 7.5V9Z" fill="currentColor"/>
<path d="M10.77 16.5199L13.33 14.9199C13.64 14.7199 13.64 14.2699 13.33 14.0699L10.77 12.4699C10.44 12.2599 10 12.4999 10 12.8899V16.0899C10 16.4799 10.43 16.7199 10.77 16.5099V16.5199Z" fill="currentColor"/>
</svg>
