<svg width="46" height="46" viewBox="0 0 46 46" fill="none" xmlns="http://www.w3.org/2000/svg">
<g clip-path="url(#clip0_28510_2325)">
<path d="M46 46H0V0H46V46ZM21.8662 14.1504C19.9294 14.1426 18.0674 14.9033 16.6865 16.2666V16.2686C16.0048 16.9528 15.4637 17.7652 15.0947 18.6592C14.9665 18.9698 14.8609 19.2885 14.7764 19.6123C13.4921 19.8119 12.2946 20.4158 11.3643 21.3496C10.2096 22.5086 9.56091 24.0807 9.56055 25.7197C9.55986 26.5319 9.7182 27.3364 10.0273 28.0869C10.3365 28.8375 10.7904 29.5192 11.3623 30.0938C11.9341 30.6682 12.613 31.1245 13.3604 31.4355C14.1079 31.7465 14.9096 31.9062 15.7188 31.9062H21.8838V31.9014H29.1045C31.0206 31.9014 32.859 31.1373 34.2139 29.7773C35.5687 28.4174 36.3291 26.5727 36.3291 24.6494C36.3029 22.7432 35.5309 20.9236 34.1787 19.585C32.8266 18.2464 31.0036 17.4962 29.1045 17.4961C28.7671 17.4961 28.4319 17.5209 28.1016 17.5674V17.5664C28.0928 17.5676 28.084 17.569 28.0752 17.5703C28.0622 17.5722 28.0491 17.5732 28.0361 17.5752C27.7491 17.1209 27.4133 16.6949 27.0283 16.3086C25.6585 14.9342 23.803 14.1583 21.8662 14.1504Z" fill="currentColor"/>
<path fill-rule="evenodd" clip-rule="evenodd" d="M36.3296 24.6494C36.3296 26.5727 35.5684 28.4172 34.2135 29.7772C32.8586 31.1372 31.021 31.9012 29.1048 31.9012H21.8788V24.6494C21.9049 22.7432 22.6777 20.924 24.0298 19.5853C25.382 18.2466 27.2049 17.4961 29.1042 17.4961C31.0034 17.4961 32.8263 18.2466 34.1785 19.5853C35.5307 20.924 36.3034 22.7432 36.3296 24.6494Z" fill="currentColor" fill-opacity="0.1"/>
<path fill-rule="evenodd" clip-rule="evenodd" d="M9.56031 25.7193C9.56067 24.0803 10.2095 22.5086 11.3641 21.3496C12.5187 20.1907 14.0846 19.5394 15.7175 19.5391C16.5266 19.538 17.328 19.6969 18.0758 20.0069C18.8237 20.3168 19.5034 20.7716 20.0761 21.3453C20.6488 21.9189 21.1032 22.6003 21.4135 23.3503C21.7238 24.1004 21.8837 24.9045 21.8843 25.7166V31.9065H15.7189C14.9096 31.9065 14.1084 31.7464 13.3608 31.4354C12.6133 31.1244 11.9341 30.6686 11.3622 30.094C10.7902 29.5194 10.3367 28.8373 10.0275 28.0866C9.71835 27.336 9.55958 26.5316 9.56031 25.7193Z" fill="currentColor" fill-opacity="0.1"/>
<path fill-rule="evenodd" clip-rule="evenodd" d="M16.6863 16.2666C18.0672 14.9032 19.9288 14.1426 21.8658 14.1505C23.8027 14.1583 25.6582 14.9339 27.0281 16.3084C28.3981 17.6829 29.1715 19.545 29.1801 21.4893C29.1886 23.4335 28.4316 25.3024 27.0739 26.689L21.8801 31.9009L16.6863 26.689C16.0046 26.0048 15.4638 25.1925 15.0949 24.2984C14.7259 23.4044 14.536 22.4462 14.536 21.4785C14.536 20.5108 14.7259 19.5526 15.0949 18.6586C15.4638 17.7646 16.0046 16.9523 16.6863 16.268V16.2666Z" fill="currentColor" fill-opacity="0.1"/>
</g>
<defs>
<clipPath id="clip0_28510_2325">
<rect width="45.89" height="45.8937" rx="13.6757" fill="white"/>
</clipPath>
</defs>
</svg>
