<svg xmlns="http://www.w3.org/2000/svg" width="42" height="42" viewBox="0 0 42 42"><g><rect y="0.0488281" width="41.8995" height="41.9029" rx="12.4865"></rect><path d="M42 42.0488H0V0.0488281H42V42.0488ZM19.9648 12.9688C18.1963 12.9616 16.4962 13.6565 15.2354 14.9014V14.9023C14.613 15.5271 14.1191 16.2687 13.7822 17.085C13.6651 17.3688 13.5684 17.6601 13.4912 17.9561C12.3187 18.1384 11.2254 18.6894 10.376 19.542C9.32176 20.6002 8.72885 22.0358 8.72852 23.5322C8.72791 24.2737 8.87304 25.0081 9.15527 25.6934C9.43756 26.3787 9.85181 27.0017 10.374 27.5264C10.8962 28.051 11.5167 28.467 12.1992 28.751C12.8816 29.0348 13.6129 29.1806 14.3516 29.1807H19.9814V29.1758H26.5742C28.3236 29.1757 30.0013 28.478 31.2383 27.2363C32.4753 25.9946 33.1709 24.3107 33.1709 22.5547C33.147 20.8143 32.4406 19.1529 31.2061 17.9307C29.9715 16.7086 28.3071 16.0234 26.5732 16.0234C26.2451 16.0234 25.9194 16.0476 25.5986 16.0957C25.3365 15.6809 25.0293 15.2922 24.6777 14.9395C23.427 13.6846 21.7332 12.976 19.9648 12.9688Z" fill="currentColor"></path><path fill-rule="evenodd" clip-rule="evenodd" d="M33.1708 22.5547C33.1708 24.3108 32.4758 25.9949 31.2387 27.2366C30.0016 28.4783 28.3238 29.1759 26.5743 29.1759H19.9766V22.5547C20.0004 20.8143 20.706 19.1533 21.9406 17.931C23.1752 16.7087 24.8396 16.0234 26.5737 16.0234C28.3078 16.0234 29.9721 16.7087 31.2067 17.931C32.4413 19.1533 33.1469 20.8143 33.1708 22.5547V22.5547Z" fill="white" fill-opacity="0.7"></path><path fill-rule="evenodd" clip-rule="evenodd" d="M8.73047 23.5315C8.7308 22.0351 9.3232 20.6 10.3774 19.5418C11.4316 18.4836 12.8614 17.889 14.3522 17.8887V17.8887C15.091 17.8877 15.8227 18.0328 16.5055 18.3158C17.1884 18.5987 17.809 19.014 18.3318 19.5378C18.8547 20.0616 19.2697 20.6837 19.553 21.3685C19.8362 22.0534 19.9823 22.7875 19.9828 23.529V29.1807H14.3535C13.6146 29.1807 12.883 29.0345 12.2005 28.7506C11.518 28.4666 10.8979 28.0504 10.3756 27.5258C9.85343 27.0011 9.43935 26.3783 9.15706 25.693C8.87477 25.0076 8.72981 24.2731 8.73047 23.5315V23.5315Z" fill="white" fill-opacity="0.7"></path><path fill-rule="evenodd" clip-rule="evenodd" d="M15.2367 14.901C16.4975 13.6561 18.1973 12.9617 19.9658 12.9688C21.7343 12.976 23.4285 13.6841 24.6793 14.9391C25.9301 16.1941 26.6363 17.8943 26.6441 19.6695C26.6519 21.4446 25.9607 23.151 24.721 24.4171L19.9788 29.1758L15.2367 24.4171C14.6143 23.7923 14.1205 23.0506 13.7837 22.2344C13.4468 21.4181 13.2734 20.5432 13.2734 19.6597C13.2734 18.7761 13.4468 17.9012 13.7837 17.0849C14.1205 16.2687 14.6143 15.527 15.2367 14.9022V14.901Z" fill="white" fill-opacity="0.7"></path><path fill-rule="evenodd" clip-rule="evenodd" d="M25.6584 16.0879C24.0981 16.3073 22.6675 17.0799 21.6254 18.266C20.5832 19.4521 19.9984 20.9733 19.9766 22.5546V29.1758L24.7187 24.4172C25.791 23.3403 26.4678 21.9302 26.6385 20.4173C26.8091 18.9044 26.4636 17.3782 25.6584 16.0879V16.0879Z" fill="white" fill-opacity="0.7"></path><path fill-rule="evenodd" clip-rule="evenodd" d="M19.9783 23.529C19.9773 22.0325 19.3842 20.5977 18.3295 19.54C17.2749 18.4823 15.8449 17.8883 14.354 17.8887V17.8887C14.0657 17.8885 13.7779 17.9108 13.4931 17.9552C13.1958 19.0914 13.2003 20.2859 13.5064 21.4197C13.8124 22.5535 14.4093 23.5869 15.2373 24.417L19.9795 29.1756V23.524L19.9783 23.529Z" fill="white" fill-opacity="0.5"></path></g></svg>