<svg width="46" height="46" viewBox="0 0 46 46" fill="none" xmlns="http://www.w3.org/2000/svg">
<path d="M46 46H0V0H46V46ZM20.626 33.9307C21.4346 34.1143 22.2772 34.2109 23.1426 34.2109C23.6618 34.2109 24.1738 34.1763 24.6748 34.1084L23.9717 28.916C23.7002 28.9539 23.4219 28.9717 23.1426 28.9717C22.6781 28.9717 22.223 28.9203 21.7861 28.8184L20.626 33.9307ZM28.3594 25.9697C28.2898 26.0894 28.2152 26.2095 28.1367 26.3232C27.806 26.813 27.4057 27.251 26.9482 27.6211L30.2412 31.7295C31.3029 30.8848 32.2073 29.8517 32.9072 28.6846L28.3594 25.9697ZM12.8994 27.8096C13.4977 29.0389 14.3132 30.1442 15.293 31.0771L18.9365 27.2666C18.4168 26.763 17.9887 26.166 17.6777 25.501L12.8994 27.8096ZM23.1426 19.7031C22.4615 19.7041 21.8401 19.9074 21.3174 20.2598C20.7946 20.6113 20.3777 21.1119 20.1309 21.6953C19.967 22.0827 19.876 22.5086 19.876 22.9619C19.876 23.6418 20.0802 24.2614 20.4326 24.7842C20.7835 25.3045 21.2868 25.7192 21.8701 25.9648C22.2606 26.1293 22.6879 26.2207 23.1426 26.2207C23.8237 26.2207 24.445 26.0165 24.9678 25.665C25.4905 25.3145 25.9055 24.8129 26.1523 24.2305C26.3177 23.8411 26.4092 23.4153 26.4092 22.9619V22.9609C26.4076 22.2818 26.2043 21.6628 25.8516 21.1416C25.4986 20.6202 24.9971 20.2052 24.4121 19.959C24.0228 19.7942 23.5965 19.7031 23.1426 19.7031ZM28.7441 20.7451C29.0057 21.3964 29.1532 22.1049 29.168 22.8408L34.5166 22.8184C34.5112 21.4158 34.2517 20.0756 33.7783 18.8369L28.7441 20.7451ZM12.8809 17.9639C12.3029 19.1671 11.929 20.4857 11.8105 21.8779L17.1475 22.3398C17.2235 21.6108 17.4288 20.9186 17.7441 20.29L12.8809 17.9639ZM24.957 17.2295C25.5143 17.4062 26.0398 17.6595 26.5127 17.9805C26.6231 18.0542 26.7305 18.1313 26.835 18.2129L30.2051 13.9736C29.1482 13.1348 27.9366 12.4815 26.6221 12.0615L24.957 17.2295ZM20.582 11.8105C19.2285 12.1202 17.9677 12.6702 16.8467 13.416L19.8545 17.9248C20.1511 17.7324 20.4658 17.5646 20.7949 17.4248C21.1177 17.2875 21.4543 17.1803 21.8027 17.1006L20.582 11.8105Z" fill="currentColor"/>
</svg>
