<svg xmlns="http://www.w3.org/2000/svg" width="75" height="74" viewBox="0 0 75 74" fill="currentColor"><g clip-path="url(#clip0_11775_1861)"><rect x="0.291992" width="74" height="74" rx="22" fill="white"></rect><path fill-rule="evenodd" clip-rule="evenodd" d="M74.292 0H0.291992V74H74.292V0ZM26.6813 40.9257C29.3069 40.0978 31.5466 42.9961 31.3579 45.1477C31.2801 46.0359 30.3995 48.2848 27.4765 47.0113C26.4939 46.4207 25.8918 45.502 25.2898 44.5834C24.7741 43.7965 24.2584 43.0096 23.5035 42.4288C23.4898 42.4192 23.4761 42.4096 23.4619 42.3999C22.6667 41.8904 22.0133 41.6385 21.2156 41.9548C20.7697 42.1318 20.3456 42.0532 19.9546 41.7221C19.0918 40.9906 18.4649 39.5792 18.3175 38.0385C18.1873 36.6743 18.5112 34.1222 20.3446 34.9415C20.4473 34.9876 21.3666 35.452 22.0001 37.5954C22.4638 39.165 23.0566 39.8768 23.862 40.5166L23.8833 40.5315L23.9047 40.5465C24.9048 41.169 25.6054 41.2648 26.6813 40.9257ZM55.1951 26.6475C54.9068 26.0898 54.3521 25.1447 53.8752 25.0804L53.8751 25.0804C53.7765 25.1955 53.6642 25.3265 54.0084 26.4868C54.3236 27.5505 54.4446 28.3424 54.0104 28.7506L54.002 28.756C53.9988 28.758 53.9956 28.7601 53.9926 28.7622C53.5701 28.926 53.1446 28.6826 52.3651 27.8324C51.0477 26.394 50.4503 27.1297 50.2114 27.696C49.407 29.6039 49.9937 33.2675 51.6731 34.2612C52.7002 34.8691 53.4466 34.3348 53.892 32.6733C54.2235 31.4367 54.5875 31.1391 54.7431 31.0123C54.7497 31.0083 54.7563 31.0037 54.7629 30.9997C54.9749 30.8998 55.3695 30.7147 55.9633 31.6593C56.2872 32.1744 56.4418 32.2479 56.5547 31.9402C56.7214 30.3821 55.7518 27.7244 55.1951 26.6475ZM51.9459 47.1496C52.0299 47.0856 52.1139 47.0218 52.1976 46.9579C52.7381 46.5457 53.2704 46.1315 53.7855 45.6625C53.242 46.1569 52.4264 46.7237 51.6394 46.6273C50.803 46.5249 50.3042 45.6843 49.9483 45.011C48.936 43.0955 45.8996 43.741 44.5878 44.3534C39.5654 46.6983 39.0341 50.7706 41.766 51.5332C43.6957 52.0715 45.6833 51.0693 47.4072 50.2001C47.5619 50.1221 47.7145 50.0452 47.8647 49.9705C49.0234 49.3946 50.0688 48.6173 51.0791 47.8173C51.3688 47.5884 51.6579 47.3685 51.9452 47.15L51.9459 47.1496ZM56.4588 37.1606C56.5941 34.9576 55.897 33.8965 54.9376 34.8425C54.4915 35.2823 54.2006 35.8404 53.9098 36.3984C53.5897 37.0126 53.2696 37.6267 52.7426 38.0828C51.5971 39.075 50.8111 39.2003 49.8257 39.2692C49.602 39.2672 49.3732 39.2616 49.1393 39.2525C47.3476 39.0492 45.9362 38.4469 44.4398 36.0751C43.0391 33.8544 41.1726 34.0531 40.6336 34.1667C36.9688 34.9409 35.684 39.2165 37.4366 41.7246C38.3167 42.9841 40.1882 44.0092 42.5672 42.7549C44.9345 41.5061 46.4766 41.0838 48.6777 41.0802C48.9619 41.0924 49.239 41.099 49.509 41.1005C50.7989 41.1705 52.2301 41.3824 52.887 43.018C53.1392 43.6462 53.3934 43.7816 53.8953 43.5534C55.7928 42.0081 56.3999 38.1178 56.4588 37.1606ZM34.4723 44.4494C36.9057 43.2529 39.9619 45.2789 39.1443 47.5462C38.7666 48.5942 37.2438 49.7832 35.0412 49.1454C32.4039 48.1354 32.4512 45.4437 34.4723 44.4494ZM48.2393 30.3875C47.9597 28.9679 46.9759 27.6142 46.0459 27.3703C45.2444 27.1601 44.7402 27.639 44.2361 28.1179C43.7505 28.5791 43.265 29.0403 42.5138 28.8853L42.4757 28.8747C41.9648 28.692 41.6488 28.1871 41.3378 27.6902C40.8857 26.9679 40.444 26.2622 39.4296 26.586C37.6897 27.1417 36.9926 29.1571 37.6424 30.417C37.9429 30.9995 38.3222 31.1815 38.6888 31.3575C39.3539 31.6767 39.9285 31.4081 40.5031 31.1394C41.0143 30.9003 41.5255 30.6613 42.1004 30.8362C43.0019 31.1105 43.3725 31.9769 43.5307 32.3466L43.5307 32.3466C44.0635 33.5918 44.7281 33.9954 45.5619 34.218C48.3909 34.3589 48.4437 31.4259 48.2393 30.3875ZM33.8702 32.9319C35.2608 33.7239 35.7153 35.4254 35.4453 36.6965C35.2379 37.6725 33.9592 40.207 30.906 39.0875C30.0457 38.5906 29.4142 37.9848 29.1285 36.6432C29.0415 36.2351 28.8377 35.2789 27.9352 34.7202C27.112 34.2101 26.4627 34.4231 26.2187 34.5031C25.1972 34.8378 24.6273 34.3936 24.5235 34.3009L24.5235 34.3008C24.1778 33.9931 23.7044 33.5718 23.6063 32.5887C23.4278 30.8071 24.7828 29.4671 26.0234 29.5457C27.2463 29.6235 27.5579 30.494 27.8709 31.3682C28.086 31.969 28.3017 32.5716 28.8143 32.9198C28.8265 32.9269 28.8387 32.9345 28.8509 32.9416C29.5642 33.3076 30.1204 33.3071 30.904 32.94C31.9885 32.4315 32.9865 32.429 33.8702 32.9319ZM45.2004 52.6605C44.9263 52.3233 40.5822 53.9716 39.9146 54.3428L39.9118 54.3554L39.909 54.3681C39.9868 54.3661 40.0905 54.3529 40.1678 54.3418C41.894 53.998 41.9972 53.9772 43.4071 53.5229C43.5191 53.48 43.6314 53.4375 43.7436 53.3949C43.9034 53.3344 44.0632 53.2738 44.2226 53.2121C44.3635 53.1579 44.5043 53.1031 44.6446 53.0468C44.759 53.0007 44.8846 52.9439 44.9843 52.8699C44.9984 52.8595 45.0142 52.8488 45.0307 52.8375C45.0994 52.791 45.1803 52.7361 45.2004 52.6605ZM34.5168 25.0891C35.9531 24.5456 36.7046 25.8608 36.13 27.1618C35.7309 28.0653 34.7435 28.7842 33.6992 28.3365C32.3879 27.5643 33.0865 25.6301 34.5168 25.0891ZM31.7358 24.8653C32.3271 24.0181 32.0556 23.0406 30.9777 23.2383C29.8108 23.4522 28.9134 24.8648 29.8052 25.5406C30.5694 25.9685 31.3951 25.3535 31.7358 24.8653ZM28.9196 22.3834C29.3686 22.3591 29.4749 22.7865 29.1195 23.185C28.9252 23.403 28.4951 23.6672 28.1677 23.4497C27.7823 23.0988 28.3568 22.4133 28.9196 22.3834ZM47.1274 19.9187C46.7877 19.6226 46.139 19.1095 45.6112 19C45.507 19.0339 45.389 19.0725 45.8141 19.6454C46.204 20.1697 46.3693 20.5413 45.9071 20.6478C45.901 20.6488 45.8944 20.6493 45.8878 20.6498C45.4297 20.6503 44.9507 20.4703 44.0589 19.9608C42.5504 19.0994 41.9219 19.3229 41.6814 19.5328C40.872 20.2406 41.6652 21.9629 43.5545 22.689C44.7097 23.1336 45.5105 23.0241 45.9346 22.3645C46.2498 21.8737 46.6387 21.8037 46.8045 21.7743L46.8152 21.7731L46.8259 21.7718L46.8266 21.7718C47.0565 21.7642 47.4835 21.75 48.1747 22.2687C48.552 22.5521 48.7254 22.6109 48.8367 22.4938C48.9583 21.8326 47.7832 20.4906 47.1274 19.9187ZM38.2512 19.1015C39.2518 19.0118 39.7739 19.6202 39.3723 20.1008C39.0931 20.4344 38.4047 20.6377 37.6782 20.3574C36.766 19.9193 37.2541 19.1907 38.2512 19.1015ZM37.0821 53.45C37.6765 53.0013 37.1299 52.4299 35.9783 52.2965C34.4596 52.1206 33.2729 52.8167 33.6755 53.3866C33.8525 53.6376 34.2521 53.74 34.4443 53.7892C35.5242 54.0082 36.6331 53.7887 37.0821 53.45ZM27.5543 48.977C29.8627 48.5323 32.4008 50.6303 32.1583 51.8603C32.1552 51.8765 31.7596 53.4554 28.9571 52.4484C28.1798 52.103 27.5505 51.5564 26.921 51.0098L26.921 51.0098L26.921 51.0098C26.4281 50.5818 25.9351 50.1537 25.3711 49.8221L25.3566 49.8141L25.3314 49.7998C24.4056 49.306 23.9332 49.163 23.6475 49.2908L23.6472 49.2909C23.5419 49.3376 23.3454 49.4247 22.7791 48.9638C22.3738 48.6342 22.0296 48.2666 21.693 47.8671C21.3328 47.4402 20.9832 47.0046 20.6337 46.569L20.4718 46.3674C20.0381 45.8284 19.7905 45.3452 19.6842 44.643C19.401 42.7788 21.5776 44.8185 21.9401 45.2687C22.1609 45.5426 22.3683 45.8293 22.5758 46.1161C23.0838 46.8181 23.5923 47.5211 24.2988 48.0405C24.4706 48.1663 24.7071 48.3244 24.8876 48.437L25.0787 48.545C26.0555 49.0449 26.6569 49.1503 27.5543 48.977ZM40.0157 53.7327C40.2684 53.6136 40.3406 53.4965 40.1992 53.4336C39.7721 53.2455 38.1233 53.6765 38.2392 53.9462C38.2679 54.0141 38.43 54.0266 38.5096 54.0328H38.5096L38.5117 54.0329C39.0252 54.0466 39.6796 53.8909 40.0157 53.7327ZM22.1195 27.5773C22.7983 27.3502 23.1074 28.3211 22.6361 29.2002C22.3834 29.6723 21.8317 30.1443 21.3975 29.7174C20.9124 29.0785 21.4422 27.8039 22.1195 27.5773Z"></path></g><defs><clipPath id="clip0_11775_1861"><rect x="0.291992" width="74" height="74" rx="22" fill="white"></rect></clipPath></defs></svg>