<svg width="46" height="46" viewBox="0 0 46 46" fill="none" xmlns="http://www.w3.org/2000/svg">
<path d="M46 46H0V0H46V46ZM23.9619 15.2148C22.5407 15.2148 21.1621 15.5825 19.9541 16.2773C19.279 15.6102 18.3555 15.2148 17.4199 15.2148C15.758 15.2149 14.349 16.3283 13.9502 17.9072C13.0541 17.9822 12.1851 18.3261 11.4824 18.8906C10.8273 19.4077 10.3341 20.0944 10.042 20.8838C8.06025 21.7602 6.79302 23.7066 6.79297 25.8896C6.79297 28.9136 9.25234 31.373 12.2803 31.373H35.5479C37.502 31.373 39.0889 29.7861 39.0889 27.8359C39.0888 26.4503 38.2757 25.1945 37.0322 24.6182C37.044 24.4841 37.0479 24.346 37.0479 24.208C37.0478 21.5393 34.8767 19.3721 32.2119 19.3721C31.8291 19.3721 31.4578 19.4152 31.0986 19.498C30.4907 18.3614 29.6145 17.3787 28.541 16.6406C27.1871 15.7051 25.604 15.211 23.9619 15.2109V15.2148ZM23.9619 17.2207C26.4528 17.2209 28.7347 18.7842 29.6387 21.1133L29.875 21.7207C29.9145 21.8233 29.998 21.9029 30.0967 21.9463C30.1439 21.9659 30.1911 21.9736 30.2422 21.9736C30.3013 21.9736 30.3608 21.9621 30.4121 21.9346L31 21.6543C31.3749 21.4728 31.7857 21.3819 32.2119 21.3818C33.7791 21.3818 35.0507 22.6565 35.0508 24.2197C35.0508 24.4961 35.0116 24.7687 34.9287 25.0371L34.7227 25.7158C34.6911 25.8264 34.7073 25.9453 34.7705 26.0439C34.8337 26.1425 34.9364 26.2059 35.0508 26.2217L35.7539 26.3164C36.5195 26.4153 37.0917 27.0742 37.0918 27.8438C37.0918 28.6965 36.3966 29.3877 35.5479 29.3877H12.2764C10.3499 29.3877 8.78613 27.82 8.78613 25.8975C8.78622 24.3974 9.74586 23.0675 11.167 22.5898L11.4863 22.4824C11.6166 22.439 11.7155 22.3325 11.7471 22.1982L11.8223 21.8711C12.0828 20.746 13.0973 19.9251 14.25 19.8936C14.2736 19.8975 14.2976 19.9014 14.3213 19.9014C14.4396 19.9014 14.5701 19.909 14.6963 19.9287L15.4229 20.0391C15.427 20.0395 15.4628 20.0429 15.4814 20.043C15.5801 20.043 15.675 20.0075 15.7461 19.9404C15.8329 19.8615 15.8799 19.7433 15.8721 19.625L15.833 18.8984V18.8115C15.833 17.9351 16.5436 17.2247 17.4199 17.2246C18.0041 17.2246 18.5567 17.5639 18.8291 18.0928L19.1572 18.7285C19.2086 18.8311 19.3075 18.906 19.418 18.9336C19.4455 18.9414 19.4773 18.9453 19.5088 18.9453V18.9375C19.5916 18.9374 19.6742 18.9096 19.7451 18.8584L20.3174 18.4326C21.3754 17.6391 22.6355 17.2207 23.9619 17.2207Z" fill="currentColor"/>
</svg>
