<svg xmlns="http://www.w3.org/2000/svg" viewBox="0 0 105.418 94.295">
  <path fill="currentColor" d="M21.798 93.994c-7.681-1.466-13.637-6.012-16.876-12.879-.558-1.183-1.726-4.951-2.946-9.501C.06 64.464-.04 63.956.062 61.824c.127-2.651.911-4.394 2.86-6.36 1.575-1.588 2.556-1.946 12.303-4.491 4.512-1.178 8.41-2.203 8.666-2.278.436-.128.463.606.463 12.817 0 14.24.077 15.173 1.63 19.577 1.43 4.052 3.702 7.788 6.342 10.429.69.689 1.156 1.313 1.037 1.386-.12.074-1.213.374-2.43.666-2.94.707-6.73.883-9.135.424zm26.827-.027c-4.835-.917-8.755-3.116-12.399-6.955a22.809 22.809 0 0 1-5.301-9.048c-.615-1.973-.618-2.068-.618-15.743V48.463l.687-1.456c.899-1.903 2.571-3.586 4.43-4.458l1.497-.701 15.151-.073c16.762-.08 16.705-.084 19.158 1.604 1.605 1.105 2.711 2.524 3.398 4.36.538 1.438.55 1.82.461 14.726-.088 12.816-.11 13.313-.681 15.189-1.907 6.263-6.316 11.62-11.873 14.426-3.812 1.925-9.582 2.708-13.91 1.887zm29.042.22c-1.473-.19-4.492-.837-5.252-1.127l-.755-.287 1.61-1.72c2.795-2.989 4.973-6.587 6.243-10.311 1.25-3.67 1.285-4.124 1.443-18.414l.15-13.65 8.732 2.303c4.802 1.267 9.202 2.503 9.778 2.746 3.043 1.286 5.145 3.982 5.675 7.278.252 1.561.198 1.959-.794 5.812-3.222 12.52-4.145 15.114-6.528 18.34-2.535 3.431-6.973 6.67-10.954 7.992-2.775.923-6.782 1.367-9.348 1.037zm-66.675-53.23C5.927 39.497 1.958 35.51.425 30.338c-.569-1.92-.566-5.765.005-7.673.971-3.247 3.125-6.582 5.32-8.238 6.203-4.68 14.23-4.078 19.8 1.487 5.935 5.928 5.875 15.002-.138 21.05-3.169 3.187-6.284 4.503-10.573 4.467-1.294-.01-2.938-.214-3.847-.476zm75.7.107c-2.625-.752-4.724-2.013-6.806-4.088-3.145-3.134-4.483-6.26-4.489-10.488-.01-8.284 6.793-15.215 14.917-15.196 6.755.017 12.86 4.848 14.609 11.562 1.834 7.044-2.363 15.04-9.297 17.708-1.485.572-2.355.717-4.73.787-1.947.058-3.338-.036-4.204-.285zm-36.307-7.273c-5.885-.916-10.698-4.535-13.213-9.935-1.164-2.498-1.54-4.612-1.379-7.743.156-3.033.812-5.193 2.388-7.867 1.46-2.477 3.06-4.135 5.402-5.594 6.116-3.812 13.21-3.5 19.303.847 5.255 3.75 7.835 10.983 6.2 17.376-1.309 5.118-4.472 9.04-9.208 11.419-2.6 1.306-6.634 1.942-9.493 1.497z"/>
</svg>
