<svg xmlns="http://www.w3.org/2000/svg" viewBox="0 0 79.248 79.328">
  <path fill="currentColor" d="M47.518 79.068c-.824-.296-5.785-5.11-23.508-22.811C11.655 43.917 1.2 33.356.779 32.788c-1.277-1.718-.988-3.45.902-5.408 2.533-2.624 6.785-5.03 10.114-5.722 2.68-.557 8.93-1.025 11.287-.845l2.035.156 6.299-6.501c3.615-3.731 7.232-7.204 8.49-8.15 3.88-2.917 9.139-5.166 14.041-6.002 3.886-.662 13.983-.233 19.13.813 4.103.834 4.623 1.453 5.563 6.63.507 2.79.602 4.238.608 9.26.007 6.022-.143 7.509-1.21 12.039-.828 3.518-2.036 6.298-4.023 9.26-.586.873-4.306 4.862-8.267 8.864l-7.201 7.276-.031 3.307c-.088 9.492-1.514 14.144-5.896 19.241-1.85 2.152-3.263 2.723-5.102 2.062zm1.407-11.086c1.363-3.64 2.06-8.474 1.725-11.936-.114-1.165-.203-2.356-.2-2.647.024-2.054-.171-1.81 8.122-10.168 4.413-4.449 8.404-8.584 8.867-9.19 3.153-4.12 4.643-12.592 3.738-21.255-.472-4.527-.215-4.126-2.86-4.457-4.081-.511-10.055-.661-12.346-.311-4.153.634-8.377 2.317-11.657 4.644-.882.625-4.785 4.408-8.673 8.406-3.888 3.999-7.42 7.416-7.85 7.594-.592.245-1.507.26-3.772.06-4.605-.406-8.797.12-12.457 1.562-.75.296-1.408.582-1.463.637-.123.122 37.866 38.48 38.114 38.483.099 0 .42-.639.712-1.422zm3.387-35.452c-2.469-.693-4.88-3.006-5.488-5.264-.456-1.692-.205-4.34.554-5.847 1.972-3.915 6.497-5.417 10.47-3.474 2.497 1.222 4.102 3.613 4.29 6.392.364 5.403-4.705 9.631-9.826 8.193zM3.986 73.838c.015-4.175 1.666-10.47 3.78-14.416.654-1.222 1.921-2.602 3.006-3.272l.934-.577 5.918 5.913c6.767 6.762 6.438 5.9 3.117 8.196-4.692 3.243-11.178 5.544-15.636 5.545H3.98z"/>
</svg>
