<svg width="74" height="74" viewBox="0 0 74 74" xmlns="http://www.w3.org/2000/svg">
<path d="M74 74H0V0H74V74ZM36.998 8C33.9164 8 31.4092 10.5071 31.4092 13.5889C31.4093 17.0945 32.5954 20.3294 34.5889 22.9102C34.0521 23.3343 33.4845 23.7037 32.8975 24.0176C32.8184 24.0607 32.7392 24.1019 32.6602 24.1426C32.6004 24.1737 32.5403 24.2018 32.4805 24.2305C32.4301 24.2544 32.3824 24.2788 32.332 24.3027C32.3033 24.3171 32.2719 24.3318 32.2432 24.3438C32.1906 24.3676 32.1404 24.3916 32.0879 24.4131C32.0521 24.4298 32.0182 24.4437 31.9824 24.458C31.9178 24.4867 31.8551 24.5132 31.7881 24.5371C31.7666 24.5466 31.7451 24.5563 31.7236 24.5635C31.6613 24.5898 31.596 24.6167 31.5312 24.6406C31.5074 24.6501 31.4858 24.6575 31.4619 24.667C31.4069 24.6861 31.3519 24.708 31.2969 24.7295C30.4822 25.0242 29.6268 25.2305 28.7402 25.3359C28.7402 25.3359 28.7402 25.3333 28.7402 25.3311C28.3257 22.0959 26.8752 18.971 24.3975 16.4932C22.2192 14.3149 18.6733 14.3149 16.4951 16.4932C14.3169 18.6715 14.3169 22.2182 16.4951 24.3965C18.9727 26.8741 22.0973 28.3213 25.332 28.7383H25.3369C25.0805 30.8783 24.2489 32.8893 22.9189 34.5859H22.917C20.2571 32.5274 17.0074 31.4102 13.5879 31.4102C12.0952 31.4102 10.691 31.9926 9.63672 33.0469C8.5824 34.1036 8.00006 35.5081 8 37.001V37.0107C8.0024 38.4989 8.58474 39.8987 9.63672 40.9531C10.6934 42.0098 12.0952 42.5893 13.5879 42.5918C17.0961 42.5918 20.3289 41.4054 22.9121 39.4092H22.915C24.2473 41.1057 25.0785 43.1165 25.335 45.2588C25.335 45.2588 25.3295 45.2588 25.3271 45.2588C22.0923 45.6758 18.9679 47.1238 16.4902 49.6016C14.312 51.7799 14.312 55.3266 16.4902 57.5049C16.495 57.5096 16.5001 57.5142 16.5049 57.5166C18.6855 59.6828 22.2202 59.6784 24.3936 57.5049C26.8736 55.0247 28.3184 51.8996 28.7354 48.667C28.7354 48.667 28.7354 48.6645 28.7354 48.6621C30.8799 48.9185 32.89 49.7527 34.5889 51.085V51.0869C32.5952 53.6677 31.4069 56.903 31.4092 60.4111C31.4092 61.952 32.0376 63.35 33.0488 64.3613C34.06 65.3724 35.4574 66 36.998 66H37.0117C38.4997 65.9976 39.8968 65.4152 40.9512 64.3633C42.0055 63.3089 42.5879 61.9041 42.5879 60.4111C42.5878 56.9916 41.4714 53.7419 39.4131 51.082V51.0801C41.1096 49.7501 43.12 48.9186 45.2598 48.6621C45.1759 48.0103 45.1333 47.3509 45.1357 46.6943L45.1436 47.1865C45.159 47.6797 45.1969 48.1716 45.2598 48.6621V48.6689C45.6767 51.9017 47.1248 55.027 49.6025 57.5049C51.5579 59.4601 54.6154 59.6611 56.7959 58.1035C57.045 57.9287 57.2798 57.73 57.5049 57.5049C57.7014 57.3084 57.8814 57.0975 58.042 56.8818C59.6667 54.6963 59.4842 51.5829 57.5049 49.6035C55.0248 47.1234 51.9024 45.6787 48.6699 45.2617H48.668C48.7566 44.5045 48.9237 43.7636 49.1514 43.0566C49.1801 42.968 49.2095 42.8792 49.2383 42.793C49.2429 42.7859 49.2453 42.7766 49.25 42.7695C49.2692 42.7072 49.2905 42.6468 49.3145 42.5869C49.3384 42.5175 49.3672 42.4503 49.3936 42.3809C49.396 42.3713 49.4011 42.3615 49.4082 42.3496C49.4345 42.2755 49.4611 42.2061 49.4922 42.1367C49.5017 42.1129 49.511 42.0937 49.5205 42.0723C49.5541 41.9908 49.59 41.9135 49.626 41.832C49.6618 41.7507 49.7006 41.6696 49.7412 41.5859C49.7412 41.5787 49.7486 41.5712 49.751 41.5664C49.7725 41.5185 49.7988 41.4703 49.8203 41.4248C49.8658 41.3362 49.9115 41.2474 49.957 41.1611C50.2757 40.5503 50.6539 39.9703 51.0898 39.4121H51.0928C53.6736 41.4082 56.9088 42.5942 60.4121 42.5918C63.4888 42.5916 65.9928 40.0921 66 37.0176V37.0039L65.9932 36.9941C65.9932 33.9148 63.4864 31.4059 60.4072 31.4082C56.8991 31.4082 53.6638 32.5941 51.083 34.5879H51.0781C49.7459 32.8913 48.9146 30.8806 48.6582 28.7383H48.665C51.9 28.3213 55.0252 26.8767 57.5029 24.3965C59.6788 22.2206 59.6813 18.6827 57.5127 16.502L57.5029 16.4932C55.3247 14.3148 51.7802 14.3148 49.5996 16.4932C47.122 18.971 45.6743 22.0955 45.2549 25.3281C45.2549 25.3281 45.2549 25.3307 45.2549 25.333C43.1129 25.0766 41.1002 24.2453 39.4014 22.9131C38.9988 23.4331 38.5625 23.9267 38.0977 24.3916H38.0996C37.7451 24.7485 37.3765 25.0817 36.998 25.3955C38.0523 26.2629 39.2241 26.9887 40.4844 27.5518C40.5657 27.5876 40.6516 27.6262 40.7354 27.6621C40.8167 27.698 40.8987 27.7316 40.9824 27.7627C41.0232 27.7819 41.0692 27.7967 41.1123 27.8135C41.1697 27.8374 41.2273 27.8617 41.2871 27.8809C41.3661 27.9096 41.443 27.94 41.5244 27.9688C41.6178 28.0023 41.7084 28.0343 41.8018 28.0654C42.904 28.4369 44.0426 28.6788 45.1904 28.7891V28.7959C45.3534 30.4662 45.7873 32.0579 46.4463 33.5293C46.5277 33.7185 46.616 33.903 46.707 34.085C46.7406 34.1497 46.7745 34.2146 46.8057 34.2793C46.8367 34.3391 46.8679 34.3988 46.9014 34.4609C46.9589 34.5712 47.0188 34.6818 47.0811 34.792L47.084 34.7939C47.5225 35.5704 48.0281 36.3039 48.5889 36.9893L48.5938 36.9941C48.91 37.3775 49.2455 37.7494 49.5977 38.1016H49.5947C49.2377 37.7493 48.9047 37.3795 48.5908 36.9961C48.5429 37.0536 48.5 37.1115 48.4521 37.1689C48.4114 37.2193 48.3704 37.2719 48.332 37.3223C48.2913 37.3774 48.2454 37.4298 48.207 37.4873C48.1639 37.54 48.1213 37.5958 48.083 37.6533C48.0519 37.694 48.0253 37.7323 47.9941 37.7754C47.9367 37.8544 47.8788 37.9338 47.8213 38.0176C47.795 38.0581 47.764 38.101 47.7354 38.1416C47.7282 38.1512 47.7206 38.1609 47.7158 38.1729L47.6104 38.3359C47.5026 38.4964 47.4019 38.6574 47.3037 38.8203C47.2679 38.88 47.2322 38.9398 47.2012 38.9971C47.1604 39.0618 47.1268 39.1248 47.0908 39.1895C47.0525 39.2541 47.0169 39.3188 46.9834 39.3857C46.9475 39.4504 46.9109 39.5149 46.875 39.582C46.8391 39.6466 46.8083 39.7114 46.7725 39.7783C46.739 39.8453 46.7053 39.9126 46.6719 39.9795C46.6311 40.0634 46.5896 40.15 46.5488 40.2314C46.4674 40.4016 46.3932 40.5746 46.3213 40.7471C46.2974 40.8043 46.2739 40.8617 46.25 40.9189C46.2357 40.9572 46.2189 40.9983 46.2021 41.0342C46.195 41.0629 46.1828 41.087 46.1709 41.1133C46.1062 41.2762 46.0462 41.4441 45.9863 41.6094C45.9815 41.6213 45.9794 41.6336 45.9746 41.6455C45.5768 42.7742 45.3102 43.9631 45.1904 45.1973V45.2021C43.7551 45.3411 42.3338 45.6831 40.9775 46.2295C40.8963 46.2606 40.8151 46.2966 40.7314 46.3301C40.6476 46.366 40.5604 46.4021 40.4766 46.4404C39.2163 47.0036 38.047 47.7297 36.9951 48.5947H36.9932C36.6074 48.911 36.2379 49.2464 35.8857 49.5986H35.8838C36.2406 49.2394 36.6095 48.9041 36.9902 48.5928C34.5916 46.6182 31.7283 45.4874 28.793 45.2021H28.7832C28.2897 45.1542 27.7913 45.127 27.2979 45.127V45.123C27.7985 45.1231 28.2945 45.1464 28.7832 45.1943C28.4956 42.2636 27.3666 39.3978 25.3945 36.999H25.3926C25.3926 36.999 25.3926 36.9936 25.3926 36.9912C26.2407 35.9609 26.9544 34.8175 27.5127 33.5859C27.5438 33.5165 27.5758 33.4468 27.6045 33.375C27.6523 33.2675 27.6972 33.1597 27.7402 33.0498C27.7738 32.9636 27.8083 32.8796 27.8418 32.791C27.8729 32.7096 27.9039 32.6303 27.9326 32.5488C27.959 32.4721 27.9873 32.395 28.0137 32.3184C28.409 31.1731 28.6682 29.9895 28.7832 28.7939C28.7832 28.7939 28.7832 28.7885 28.7832 28.7861C28.8311 28.2926 28.8574 27.7943 28.8574 27.3008H28.8623C28.8623 27.8015 28.8379 28.2974 28.79 28.7861C28.941 28.7718 29.0922 28.755 29.2432 28.7334C29.3294 28.7214 29.4157 28.7116 29.502 28.6973C29.5834 28.6853 29.6627 28.6741 29.7441 28.6621C29.8064 28.6525 29.8664 28.6428 29.9287 28.6309C29.9381 28.6308 29.9476 28.6283 29.957 28.626C29.969 28.626 29.9812 28.6206 29.9932 28.6182C30.0435 28.6086 30.0942 28.5994 30.1445 28.5898C30.2043 28.5779 30.2669 28.5657 30.3291 28.5537C30.396 28.5394 30.4608 28.527 30.5254 28.5127C30.5469 28.5079 30.5713 28.5038 30.5928 28.499C30.6548 28.4847 30.7144 28.4704 30.7764 28.4561C30.7931 28.4513 30.8104 28.4482 30.8271 28.4434C30.9062 28.4242 30.9854 28.4049 31.0645 28.3857C31.1459 28.3642 31.2297 28.3428 31.3135 28.3213C31.3973 28.2974 31.4787 28.2759 31.5625 28.252C31.6391 28.2304 31.7183 28.2065 31.7949 28.1826C31.8572 28.1634 31.9221 28.1436 31.9844 28.1221C32.0393 28.1054 32.0945 28.087 32.1494 28.0703C32.2045 28.0535 32.2603 28.0338 32.3154 28.0146C32.3944 27.9883 32.4712 27.9599 32.5479 27.9336C32.6293 27.9048 32.7086 27.8729 32.79 27.8418C32.8762 27.8083 32.9627 27.7747 33.0488 27.7412C33.1733 27.6909 33.2955 27.6386 33.4199 27.5859C33.4749 27.562 33.53 27.538 33.585 27.5117C34.8142 26.9558 35.9599 26.2389 36.9902 25.3906L36.9951 25.3857C37.3785 25.0694 37.7478 24.7366 38.0977 24.3867C38.5625 23.9219 38.9959 23.4281 39.3984 22.9082C39.3984 22.9082 39.3984 22.9077 39.3984 22.9053C41.3921 20.3244 42.5781 17.0893 42.5781 13.5811C42.5876 10.5089 40.086 8.00479 37.0068 8H36.998ZM36.9932 53.6133C38.3829 55.5878 39.1328 57.9415 39.1328 60.4072C39.1327 60.9797 38.9096 61.516 38.5049 61.9209H38.5068C38.1043 62.3235 37.5728 62.544 37.0049 62.5488H36.9902C35.8089 62.5487 34.8506 61.5881 34.8506 60.4092C34.8506 57.9433 35.6009 55.5903 36.9932 53.6133ZM25.2344 48.7559C24.8294 51.0682 23.7344 53.2826 21.9541 55.0654C21.1226 55.8969 19.7758 55.899 18.9395 55.0771C18.9347 55.0724 18.9296 55.0701 18.9248 55.0654C18.0909 54.2315 18.0909 52.8725 18.9248 52.0361C20.7076 50.2533 22.922 49.1584 25.2344 48.7559ZM48.749 48.7529C51.0615 49.1603 53.2757 50.2508 55.0586 52.0361H55.0605C55.6883 52.6639 55.8444 53.5912 55.5234 54.3652C55.4204 54.6193 55.2642 54.8564 55.0605 55.0625C54.8257 55.2973 54.5482 55.4658 54.2559 55.5664C53.5034 55.83 52.6337 55.6616 52.0322 55.0625C50.2494 53.2796 49.154 51.0654 48.749 48.7529ZM45.8428 42.082C45.6526 42.687 45.4986 43.302 45.3838 43.9229C45.4981 43.3021 45.6511 42.6869 45.8428 42.082ZM13.5879 34.8564C16.0537 34.8564 18.4049 35.6062 20.3818 36.9961C18.4073 38.3884 16.0537 39.1387 13.5879 39.1387V39.1416C13.0153 39.1415 12.4782 38.9186 12.0732 38.5137C11.6708 38.1112 11.4512 37.5766 11.4463 37.0088V36.999C11.4463 36.4264 11.6684 35.8893 12.0732 35.4844C12.4782 35.0794 13.0153 34.8589 13.5879 34.8564ZM60.4023 34.8564C61.5836 34.8565 62.5442 35.8148 62.542 36.9961V37.0088C62.537 38.1828 61.5787 39.1391 60.4023 39.1367C57.9389 39.1367 55.5902 38.3885 53.6133 37.001C55.5375 35.6494 57.8766 34.854 60.4023 34.8564ZM45.2578 28.7959C45.6124 28.8294 45.9647 28.8459 46.3193 28.8555C45.9647 28.8483 45.6124 28.8294 45.2578 28.7959ZM52.0391 18.9326C52.8754 18.0963 54.2315 18.0987 55.0654 18.9326L55.0752 18.9424C55.8993 19.7763 55.8969 21.1275 55.0654 21.959C53.2826 23.7418 51.0682 24.8348 48.7559 25.2422C49.1632 22.9297 50.2563 20.7155 52.0391 18.9326ZM18.9316 18.9297C19.7655 18.0958 21.1246 18.0958 21.9609 18.9297C23.7437 20.7125 24.8362 22.9269 25.2412 25.2393C22.9289 24.8342 20.7144 23.7418 18.9316 21.959C18.0979 21.125 18.0978 19.766 18.9316 18.9297ZM37.0098 11.4482C38.1863 11.4531 39.1426 12.4123 39.1426 13.5889C39.1425 16.1119 38.3493 18.4529 36.998 20.377C35.6107 18.4025 34.8604 16.0522 34.8604 13.5889C34.8604 12.4098 35.821 11.4482 37 11.4482H37.0098Z" fill="currentColor"/>
</svg>
