<svg width="46" height="46" viewBox="0 0 46 46" fill="none" xmlns="http://www.w3.org/2000/svg">
<g clip-path="url(#clip0_27367_3556)">
<path d="M46 46H0V0H46V46ZM12.9854 33.0371C15.0221 34.2581 17.059 35.4548 19.0957 36.6758C20.3081 34.6244 21.4966 32.5728 22.709 30.5215C20.6722 29.3005 18.6354 28.1038 16.5986 26.8828C15.3862 28.9342 14.1977 30.9857 12.9854 33.0371ZM29.4014 26.8828C27.3646 28.1038 25.3278 29.3004 23.291 30.5215C24.5034 32.5728 25.6919 34.6244 26.9043 36.6758C28.941 35.4548 30.9779 34.2581 33.0146 33.0371C31.8023 30.9857 30.6138 28.9342 29.4014 26.8828ZM9.32422 26.5898H16.4287V19.4346H9.32422V26.5898ZM29.5713 26.5898H36.6758V19.4346H29.5713V26.5898ZM23.0723 19.9473C21.3025 19.9475 19.8479 21.4129 19.8477 23.1953C19.8477 25.0023 21.3024 26.4431 23.0723 26.4434C24.8666 26.4434 26.2979 24.978 26.2979 23.1953C26.2976 21.3883 24.8422 19.9473 23.0723 19.9473ZM19.0957 9.32422C17.059 10.5452 15.0221 11.7419 12.9854 12.9629C14.1977 15.0143 15.3862 17.0658 16.5986 19.1172C18.6354 17.8962 20.6722 16.6995 22.709 15.4785C21.4966 13.4272 20.3081 11.3756 19.0957 9.32422ZM23.291 15.4785C25.3278 16.6996 27.3646 17.8962 29.4014 19.1172C30.6138 17.0658 31.8023 15.0143 33.0146 12.9629C30.9779 11.7419 28.941 10.5452 26.9043 9.32422C25.6919 11.3756 24.5034 13.4272 23.291 15.4785Z" fill="#222222"/>
</g>
<defs>
<clipPath id="clip0_27367_3556">
<rect width="46" height="46" rx="13.6757" fill="white"/>
</clipPath>
</defs>
</svg>
