<svg width="36" height="36" viewBox="0 0 36 36" fill="none" xmlns="http://www.w3.org/2000/svg">
<g clip-path="url(#clip0_28636_34)">
<path d="M36 36H0V0H36V36ZM14.7559 3.87109C13.8982 3.59051 13.0667 4.26826 13.2822 5.14453C13.7623 7.09552 15.1012 9.55121 18.1279 10.6504C17.7384 11.3642 17.3884 12.2378 17.1504 13.292C11.7251 11.8933 7.45874 14.0467 7.66992 20.9316L7.69824 21.4277C8.13907 26.5586 12.923 31.7627 18.5811 31.6182C24.4216 31.4687 28.9826 25.6763 28.8203 20.3906C28.2551 13.1732 24.2324 11.9877 19.0977 13.251C19.4539 11.9744 19.9995 11.0945 20.4727 10.5205C20.7643 10.1667 21.0322 9.92424 21.2188 9.77539C21.312 9.70101 21.3851 9.64975 21.4297 9.62012C21.4513 9.60576 21.4662 9.59632 21.4736 9.5918C21.4758 9.59046 21.4778 9.58929 21.4785 9.58887L21.4766 9.58984C21.4759 9.59025 21.4745 9.59128 21.4736 9.5918H21.4707C21.9235 9.33798 22.0854 8.76652 21.832 8.31348C21.5782 7.86055 21.0049 7.69851 20.5518 7.95215L20.9355 8.63867C20.5515 7.95262 20.5512 7.9519 20.5508 7.95215L20.5498 7.95312L20.5479 7.9541C20.5464 7.95494 20.5447 7.95603 20.543 7.95703C20.5394 7.95907 20.535 7.96113 20.5303 7.96387C20.5208 7.96939 20.5089 7.97695 20.4951 7.98535C20.4675 8.00216 20.431 8.02494 20.3877 8.05371C20.3007 8.11151 20.1841 8.19441 20.0459 8.30469C19.9456 8.38471 19.8349 8.48058 19.7148 8.59082C19.6615 7.04261 18.5497 5.11299 14.7559 3.87109ZM18.5664 15.3457C21.278 14.5325 23.2228 14.5007 24.4697 15.124C25.544 15.6611 26.6563 16.992 26.9395 20.4883C26.9918 22.5823 26.1068 24.8854 24.5322 26.6963C22.9568 28.5081 20.8256 29.6796 18.5332 29.7383C16.2392 29.7969 14.0335 28.735 12.3438 27.001C10.6448 25.2572 9.61445 22.9797 9.5498 20.874C9.45083 17.6475 10.45 16.1118 11.5703 15.415C12.794 14.6542 14.7937 14.4834 17.4531 15.335L18.0078 15.5137L18.5664 15.3457Z" fill="#222222"/>
</g>
<defs>
<clipPath id="clip0_28636_34">
<rect width="36" height="36" rx="10.7027" fill="white"/>
</clipPath>
</defs>
</svg>
