<svg xmlns="http://www.w3.org/2000/svg" width="74" height="74" viewBox="0 0 74 74"><path fill-rule="evenodd" clip-rule="evenodd" d="M0 0H75V74H0V0ZM16.3543 37.4736C15.0434 40.8455 13.5785 42.094 10.9281 42.094C9.337 42.094 8.1831 41.7203 7.0292 41.0952L8.3078 38.2852C8.99446 38.6598 9.74268 38.9102 10.5225 38.9102C11.5832 38.9102 12.2383 38.4417 12.861 37.005L6 20.5196H10.0237L14.7008 32.7584L18.9739 20.5196H22.9044L16.3551 37.4736H16.3543ZM50.2539 26.4833C50.2539 22.4548 48.0708 20.1758 44.4852 20.1758C41.9895 20.1758 40.2437 21.3304 38.9027 23.0791C38.0298 21.3304 36.3771 20.1758 34.0062 20.1758C31.4805 20.1758 30.0464 21.5492 28.9849 23.0167V20.5196H25.2114V37.0043H28.9849V27.7319C28.9849 25.1716 30.4206 23.6101 32.5097 23.6101C34.5989 23.6101 35.8451 25.0467 35.8451 27.607V37.0043H39.6202V27.7003C39.6202 25.0467 41.0243 23.6101 43.1442 23.6101C45.2642 23.6101 46.4804 25.0151 46.4804 27.6371V37.005H50.2539V26.4833ZM61.6671 37.376C56.4591 37.376 52.5711 33.752 52.5711 28.688C52.5711 23.624 56.4591 20 61.6911 20C64.5951 20 67.0191 21.056 68.6031 22.976L66.1071 25.28C64.9791 23.984 63.5631 23.312 61.8831 23.312C58.7391 23.312 56.5071 25.52 56.5071 28.688C56.5071 31.856 58.7391 34.064 61.8831 34.064C63.5631 34.064 64.9791 33.392 66.1071 32.072L68.6031 34.376C67.0191 36.32 64.5951 37.376 61.6671 37.376ZM46.1483 52.102C44.4237 52.102 43.5613 51.1306 43.5613 49.1879C43.5613 47.2764 44.4237 46.3206 46.1483 46.3206C47.8302 46.3206 48.6711 47.2764 48.6711 49.1879C48.6711 51.1306 47.8302 52.102 46.1483 52.102ZM46.1483 44.9775C43.353 44.9775 41.9554 46.3926 41.9554 49.223C42.08 52.0377 43.4776 53.4451 46.1483 53.4451C48.9008 53.4451 50.277 52.0377 50.277 49.223C50.277 46.3926 48.9008 44.9775 46.1483 44.9775ZM7 53.3867V45.0359H8.54754L12.9566 51.1209V45.0359H14.4457V53.3867H12.8982L8.48914 47.1732V53.3867H7ZM22.2794 45.0359V46.3673H18.0981V48.4697H22.0808V49.8537H18.0806V52.0436H22.3611V53.3867H16.5623V45.0359H22.2794ZM29.6108 46.379V45.0359H23.2747V46.379H25.669V53.3867H27.2165V46.379H29.6108ZM30.1799 45.0359H31.7508L32.6442 51.0333L34.8166 45.0359H36.3058L38.338 50.7997L39.284 45.0359H40.8082L39.2373 53.3867H37.7657L35.4707 46.8345L33.0063 53.3867H31.5522L30.1799 45.0359ZM52.1016 53.375V45.0359H55.8975C57.6027 45.0359 58.4553 45.7814 58.4553 47.2725C58.4553 48.2808 57.7915 49.1159 56.4639 49.7778L59.1093 53.3867H57.1588L54.6185 49.7486V49.042C56.098 48.7889 56.8377 48.2146 56.8377 47.3192C56.8377 46.7041 56.4912 46.3965 55.7982 46.3965H53.6783V53.375H52.1016ZM61.7515 53.3867V45.0359H60.2039V53.3867H61.7515ZM64.064 48.931L67.6263 45.0359H65.7342L62.6274 48.4813V49.4858L65.8568 53.3867H68L64.064 48.931Z" fill="currentColor"></path></svg>