<svg width="74" height="74" viewBox="0 0 74 74" fill="none" xmlns="http://www.w3.org/2000/svg">
<path fill-rule="evenodd" clip-rule="evenodd" d="M75 0H0V74H75V0ZM10.9281 51.006C13.5784 51.006 15.0433 49.7575 16.3543 46.3857H16.3551L22.9043 29.4316H18.9738L14.7008 41.6704L10.0236 29.4316H5.99995L12.861 45.9171C12.2383 47.3537 11.5832 47.8223 10.5224 47.8223C9.74263 47.8223 8.99441 47.5718 8.30775 47.1972L7.02915 50.0072C8.18305 50.6323 9.33695 51.006 10.9281 51.006ZM44.4851 29.0879C48.0708 29.0879 50.2539 31.3668 50.2539 35.3954V45.9171H46.4804V36.5491C46.4804 33.9271 45.2641 32.5221 43.1442 32.5221C41.0242 32.5221 39.6201 33.9587 39.6201 36.6123V45.9163H35.8451V36.519C35.8451 33.9587 34.5989 32.5221 32.5097 32.5221C30.4205 32.5221 28.9848 34.0836 28.9848 36.6439V45.9163H25.2114V29.4316H28.9848V31.9287C30.0464 30.4613 31.4805 29.0879 34.0061 29.0879C36.3771 29.0879 38.0298 30.2424 38.9027 31.9911C40.2437 30.2424 41.9895 29.0879 44.4851 29.0879ZM52.571 37.6C52.571 42.664 56.459 46.288 61.667 46.288C64.595 46.288 67.019 45.232 68.603 43.288L66.107 40.984C64.979 42.304 63.563 42.976 61.883 42.976C58.739 42.976 56.507 40.768 56.507 37.6C56.507 34.432 58.739 32.224 61.883 32.224C63.563 32.224 64.979 32.896 66.107 34.192L68.603 31.888C67.019 29.968 64.595 28.912 61.691 28.912C56.459 28.912 52.571 32.536 52.571 37.6Z" fill="currentColor"/>
</svg>
