<svg width="46" height="46" viewBox="0 0 46 46" fill="none" xmlns="http://www.w3.org/2000/svg">
<g clip-path="url(#clip0_27367_3468)">
<path d="M46 46H0V0H46V46ZM12.5967 28.7949C12.1679 29.7829 11.7167 30.1055 10.9863 30.1055C10.4495 30.1055 9.93464 29.9323 9.46191 29.6748L8.58105 31.6074C9.37554 32.0373 10.1701 32.2949 11.2656 32.2949C13.0904 32.2949 14.0993 31.436 15.002 29.1172L19.5107 17.458H16.8047L13.8633 25.874L10.6426 17.458H7.87207L12.5967 28.7949ZM34.3701 17.2217C32.6521 17.2218 31.4501 18.0154 30.5264 19.2178C29.9254 18.0154 28.7874 17.2218 27.1553 17.2217C25.417 17.2217 24.4286 18.1658 23.6982 19.1748V17.458H21.0996V28.7939H23.6982V22.418C23.6982 20.6573 24.6866 19.583 26.125 19.583C27.5635 19.583 28.4219 20.5713 28.4219 22.332V28.7939H31.0205V22.3965C31.0205 20.5717 31.9876 19.583 33.4473 19.583C34.9068 19.583 35.7441 20.5495 35.7441 22.3525V28.7949H38.3428V21.5596C38.3428 18.7892 36.8389 17.2217 34.3701 17.2217Z" fill="currentColor"/>
</g>
<defs>
<clipPath id="clip0_27367_3468">
<rect width="46" height="46" rx="13.6757" fill="white"/>
</clipPath>
</defs>
</svg>
